<?xml version="1.0" encoding="UTF-8"?>
<!-- Generator: visioncortex VTracer 0.6.3 -->
<svg version="1.1" xmlns="http://www.w3.org/2000/svg" width="900" height="900" viewBox="220 120 900 900">
<path d="M0 0 C4.5 0.01 9 -0 13.5 -0.01 C21.37 -0.03 29.24 -0.02 37.11 -0.01 C48.81 0.02 60.51 0.01 72.22 0 C93.12 -0.02 114.02 -0.01 134.93 0.01 C153.21 0.03 171.5 0.04 189.79 0.04 C191.01 0.04 192.22 0.04 193.47 0.04 C198.4 0.04 203.33 0.04 208.26 0.04 C254.46 0.03 300.67 0.05 346.88 0.09 C387.93 0.12 428.97 0.14 470.02 0.13 C472.66 0.13 475.3 0.13 477.93 0.13 C479.89 0.13 479.89 0.13 481.88 0.13 C488.44 0.13 495.01 0.13 501.57 0.12 C502.86 0.12 504.16 0.12 505.49 0.12 C539.8 0.12 574.11 0.13 608.42 0.14 C609.64 0.14 610.86 0.15 612.12 0.15 C613.34 0.15 614.55 0.15 615.81 0.15 C617.03 0.15 618.24 0.15 619.49 0.15 C621.94 0.15 624.39 0.15 626.84 0.15 C643.91 0.16 660.98 0.16 678.05 0.16 C700.05 0.16 722.04 0.17 744.03 0.19 C755.66 0.21 767.29 0.21 778.93 0.2 C786.69 0.2 794.46 0.21 802.23 0.22 C806.66 0.23 811.08 0.24 815.51 0.23 C819.54 0.22 823.57 0.22 827.6 0.24 C829.05 0.24 830.49 0.24 831.94 0.24 C852.52 0.14 873.28 6.97 889.08 20.63 C889.08 21.29 889.08 21.95 889.08 22.63 C890.07 22.96 891.06 23.29 892.08 23.63 C892.08 24.29 892.08 24.95 892.08 25.63 C892.74 25.63 893.4 25.63 894.08 25.63 C894.08 26.29 894.08 26.95 894.08 27.63 C895.07 27.96 896.06 28.29 897.08 28.63 C897.08 29.29 897.08 29.95 897.08 30.63 C897.74 30.63 898.4 30.63 899.08 30.63 C900.78 32.89 902.35 35.14 903.89 37.5 C904.34 38.2 904.8 38.89 905.26 39.6 C919.18 61.21 919.82 82.6 919.71 107.55 C919.7 112.05 919.71 116.55 919.72 121.05 C919.74 128.92 919.73 136.79 919.72 144.66 C919.69 156.36 919.7 168.06 919.71 179.76 C919.73 200.67 919.72 221.57 919.7 242.47 C919.68 260.76 919.67 279.05 919.67 297.34 C919.67 298.56 919.67 299.77 919.67 301.02 C919.67 305.95 919.67 310.88 919.67 315.81 C919.68 362.01 919.66 408.22 919.62 454.43 C919.59 495.47 919.58 536.52 919.58 577.57 C919.58 580.21 919.58 582.84 919.58 585.48 C919.58 586.78 919.58 588.09 919.58 589.43 C919.58 595.99 919.59 602.55 919.59 609.12 C919.59 611.06 919.59 611.06 919.59 613.04 C919.59 647.35 919.58 681.66 919.57 715.97 C919.57 717.19 919.57 718.41 919.56 719.67 C919.56 721.49 919.56 721.49 919.56 723.36 C919.56 724.57 919.56 725.79 919.56 727.04 C919.56 729.49 919.56 731.94 919.56 734.39 C919.55 751.46 919.55 768.53 919.55 785.6 C919.55 807.59 919.54 829.59 919.52 851.58 C919.51 863.21 919.5 874.84 919.51 886.47 C919.51 894.24 919.5 902.01 919.49 909.78 C919.48 914.21 919.47 918.63 919.48 923.06 C919.49 927.09 919.49 931.12 919.47 935.15 C919.47 936.6 919.47 938.04 919.47 939.49 C919.57 960.07 912.75 980.83 899.08 996.63 C898.42 996.63 897.76 996.63 897.08 996.63 C896.75 997.62 896.42 998.61 896.08 999.63 C895.42 999.63 894.76 999.63 894.08 999.63 C894.08 1000.29 894.08 1000.95 894.08 1001.63 C893.42 1001.63 892.76 1001.63 892.08 1001.63 C891.75 1002.62 891.42 1003.61 891.08 1004.63 C890.42 1004.63 889.76 1004.63 889.08 1004.63 C889.08 1005.29 889.08 1005.95 889.08 1006.63 C886.82 1008.33 884.57 1009.9 882.21 1011.44 C881.51 1011.89 880.82 1012.35 880.11 1012.81 C858.5 1026.73 837.11 1027.37 812.16 1027.26 C807.66 1027.25 803.16 1027.26 798.67 1027.27 C790.8 1027.29 782.93 1027.28 775.06 1027.27 C763.35 1027.24 751.65 1027.25 739.95 1027.26 C719.04 1027.28 698.14 1027.27 677.24 1027.25 C658.95 1027.23 640.66 1027.22 622.37 1027.22 C621.15 1027.22 619.94 1027.22 618.69 1027.22 C613.76 1027.22 608.83 1027.22 603.91 1027.22 C557.7 1027.23 511.49 1027.21 465.28 1027.17 C424.24 1027.14 383.19 1027.12 342.14 1027.13 C339.5 1027.13 336.87 1027.13 334.23 1027.13 C332.27 1027.13 332.27 1027.13 330.28 1027.13 C323.72 1027.13 317.16 1027.13 310.6 1027.14 C308.65 1027.14 308.65 1027.14 306.67 1027.14 C272.36 1027.14 238.05 1027.13 203.74 1027.12 C202.52 1027.12 201.3 1027.11 200.04 1027.11 C198.83 1027.11 197.61 1027.11 196.35 1027.11 C195.14 1027.11 193.92 1027.11 192.67 1027.11 C190.22 1027.11 187.77 1027.11 185.32 1027.11 C168.25 1027.1 151.18 1027.1 134.11 1027.1 C112.12 1027.1 90.12 1027.09 68.13 1027.07 C56.5 1027.05 44.87 1027.05 33.24 1027.06 C25.47 1027.06 17.7 1027.05 9.93 1027.04 C5.5 1027.03 1.08 1027.02 -3.35 1027.03 C-7.38 1027.04 -11.41 1027.04 -15.44 1027.02 C-16.89 1027.01 -18.33 1027.02 -19.77 1027.02 C-40.36 1027.12 -61.12 1020.29 -76.92 1006.63 C-76.92 1005.97 -76.92 1005.31 -76.92 1004.63 C-77.91 1004.3 -78.9 1003.97 -79.92 1003.63 C-79.92 1002.97 -79.92 1002.31 -79.92 1001.63 C-80.58 1001.63 -81.24 1001.63 -81.92 1001.63 C-81.92 1000.97 -81.92 1000.31 -81.92 999.63 C-82.91 999.3 -83.9 998.97 -84.92 998.63 C-84.92 997.97 -84.92 997.31 -84.92 996.63 C-85.58 996.63 -86.24 996.63 -86.92 996.63 C-88.62 994.37 -90.19 992.12 -91.73 989.75 C-92.18 989.06 -92.63 988.37 -93.1 987.66 C-107.02 966.05 -107.66 944.66 -107.55 919.71 C-107.53 915.21 -107.55 910.71 -107.56 906.21 C-107.57 898.34 -107.57 890.47 -107.56 882.6 C-107.53 870.9 -107.54 859.2 -107.55 847.5 C-107.57 826.59 -107.56 805.69 -107.54 784.79 C-107.52 766.5 -107.51 748.21 -107.51 729.92 C-107.51 728.7 -107.51 727.49 -107.51 726.24 C-107.51 721.31 -107.51 716.38 -107.51 711.45 C-107.52 665.25 -107.49 619.04 -107.46 572.83 C-107.43 531.78 -107.41 490.74 -107.42 449.69 C-107.42 447.05 -107.42 444.42 -107.42 441.78 C-107.42 440.48 -107.42 439.17 -107.42 437.83 C-107.42 431.27 -107.42 424.71 -107.42 418.14 C-107.42 416.85 -107.42 415.56 -107.43 414.22 C-107.43 379.91 -107.42 345.6 -107.4 311.29 C-107.4 310.07 -107.4 308.85 -107.4 307.59 C-107.4 306.37 -107.4 305.16 -107.4 303.9 C-107.4 302.08 -107.4 302.08 -107.4 300.22 C-107.4 297.77 -107.4 295.32 -107.4 292.87 C-107.39 275.8 -107.39 258.73 -107.39 241.66 C-107.39 219.67 -107.38 197.67 -107.36 175.68 C-107.34 164.05 -107.34 152.42 -107.35 140.79 C-107.35 133.02 -107.34 125.25 -107.33 117.48 C-107.32 113.05 -107.31 108.63 -107.32 104.2 C-107.33 100.17 -107.32 96.14 -107.31 92.11 C-107.3 90.66 -107.31 89.22 -107.31 87.77 C-107.41 66.45 -100.21 47.34 -86.92 30.63 C-86.26 30.63 -85.6 30.63 -84.92 30.63 C-84.59 29.64 -84.26 28.65 -83.92 27.63 C-83.26 27.63 -82.6 27.63 -81.92 27.63 C-81.92 26.97 -81.92 26.31 -81.92 25.63 C-81.26 25.63 -80.6 25.63 -79.92 25.63 C-79.59 24.64 -79.26 23.65 -78.92 22.63 C-78.26 22.63 -77.6 22.63 -76.92 22.63 C-76.92 21.97 -76.92 21.31 -76.92 20.63 C-74.66 18.93 -72.41 17.36 -70.04 15.82 C-69.01 15.14 -69.01 15.14 -67.95 14.45 C-46.34 0.53 -24.95 -0.11 0 0 Z M161.08 239.63 C160.34 240.12 159.6 240.61 158.83 241.12 C157.21 242.23 155.64 243.42 154.08 244.63 C154.08 245.29 154.08 245.95 154.08 246.63 C153.54 246.85 153 247.06 152.44 247.29 C149.26 249.09 146.87 251.55 144.33 254.13 C143.82 254.63 143.32 255.13 142.8 255.64 C139.95 258.16 139.95 258.16 139.08 261.63 C138.42 261.63 137.76 261.63 137.08 261.63 C135.57 263.56 134.19 265.47 132.83 267.5 C132.43 268.1 132.03 268.69 131.61 269.3 C115.73 292.91 108.27 317.29 108.43 345.67 C108.43 347.67 108.42 349.68 108.41 351.69 C108.38 357.07 108.39 362.45 108.41 367.83 C108.42 373.51 108.41 379.19 108.4 384.86 C108.39 394.39 108.41 403.92 108.43 413.45 C108.46 424.4 108.45 435.36 108.42 446.32 C108.4 455.79 108.39 465.26 108.41 474.72 C108.41 480.35 108.42 485.98 108.4 491.61 C108.38 496.91 108.4 502.2 108.42 507.5 C108.43 509.42 108.43 511.35 108.42 513.27 C108.32 532.05 111.25 549.9 120.08 566.63 C120.58 567.73 121.08 568.83 121.6 569.96 C125.89 579.25 131.5 587.03 137.83 595.03 C138.86 596.35 139.85 597.72 140.82 599.09 C141.23 599.6 141.65 600.11 142.08 600.63 C142.74 600.63 143.4 600.63 144.08 600.63 C144.08 601.29 144.08 601.95 144.08 602.63 C145.41 604.3 145.41 604.3 147.08 605.63 C147.74 605.63 148.4 605.63 149.08 605.63 C149.08 606.29 149.08 606.95 149.08 607.63 C150.8 609.22 150.8 609.22 152.96 610.75 C153.68 611.29 154.39 611.83 155.14 612.39 C156.98 613.81 156.98 613.81 159.08 613.63 C159.08 614.29 159.08 614.95 159.08 615.63 C165.92 621.25 165.92 621.25 174.08 623.63 C174.08 624.29 174.08 624.95 174.08 625.63 C179.03 627.11 179.03 627.11 184.08 628.63 C184.08 629.29 184.08 629.95 184.08 630.63 C184.76 630.82 185.43 631.02 186.13 631.22 C187.47 631.61 187.47 631.61 188.83 632 C189.71 632.26 190.59 632.52 191.5 632.78 C194.08 633.63 194.08 633.63 196.18 634.7 C199.02 636.09 201.97 636.22 205.08 636.63 C205.41 636.96 205.74 637.29 206.08 637.63 C226.67 643.41 251.81 642.97 271.94 635.43 C273.52 634.84 275.13 634.32 276.76 633.83 C288.82 630.19 299.88 623.97 310.08 616.63 C310.85 616.09 311.61 615.55 312.4 615 C315.32 612.92 315.32 612.92 318.08 610.63 C318.08 609.97 318.08 609.31 318.08 608.63 C318.64 608.39 319.2 608.16 319.78 607.91 C322.6 606.34 324.56 604.42 326.83 602.13 C327.63 601.34 328.43 600.54 329.25 599.72 C331.3 597.84 331.3 597.84 331.08 595.63 C331.74 595.63 332.4 595.63 333.08 595.63 C334.48 594.05 334.48 594.05 335.87 591.97 C336.42 591.18 336.96 590.39 337.52 589.59 C338.1 588.73 338.68 587.88 339.27 587 C339.86 586.14 340.44 585.27 341.05 584.38 C349.73 571.37 356.95 557.27 359.08 541.63 C359.41 541.3 359.74 540.97 360.08 540.63 C361.07 532.05 362.06 523.47 363.08 514.63 C335.36 514.63 307.64 514.63 279.08 514.63 C278.42 517.93 277.76 521.23 277.08 524.63 C274.47 534.68 269.02 543.96 260 549.54 C259.37 549.9 258.73 550.26 258.08 550.63 C257.05 551.33 257.05 551.33 256.01 552.04 C249.38 555.88 242.93 556.13 235.46 556.19 C233.99 556.21 233.99 556.21 232.49 556.24 C223.61 556.11 217.55 553.16 210.08 548.63 C209.42 548.63 208.76 548.63 208.08 548.63 C208.08 547.97 208.08 547.31 208.08 546.63 C205.75 543.96 205.75 543.96 203.08 541.63 C202.42 541.63 201.76 541.63 201.08 541.63 C200.8 541.06 200.52 540.5 200.24 539.92 C199.47 538.41 198.68 536.91 197.86 535.44 C197.44 534.66 197.02 533.87 196.58 533.07 C196.16 532.3 195.74 531.54 195.3 530.75 C191.38 520.72 191.79 510.01 191.82 499.42 C191.82 497.7 191.82 495.98 191.81 494.27 C191.8 489.63 191.81 485 191.81 480.37 C191.82 475.5 191.81 470.64 191.81 465.77 C191.81 457.6 191.81 449.43 191.82 441.26 C191.83 431.84 191.83 422.42 191.82 413 C191.81 404.89 191.81 396.77 191.81 388.66 C191.81 383.83 191.81 378.99 191.81 374.16 C191.8 369.61 191.81 365.06 191.82 360.51 C191.82 358.85 191.82 357.19 191.82 355.53 C191.76 331.44 191.76 331.44 197.02 322.57 C197.52 321.69 198.03 320.81 198.55 319.91 C200.08 317.63 200.08 317.63 201.77 315.95 C203.32 314.7 203.32 314.7 203.08 312.63 C203.74 312.63 204.4 312.63 205.08 312.63 C205.08 311.97 205.08 311.31 205.08 310.63 C205.66 310.35 206.24 310.07 206.83 309.79 C209 308.67 211.03 307.45 213.08 306.13 C222.07 300.37 231.55 298.62 242.08 300.63 C242.83 300.75 243.58 300.88 244.35 301.01 C252.15 302.49 257.98 305.61 264.08 310.63 C264.74 310.63 265.4 310.63 266.08 310.63 C266.41 311.62 266.74 312.61 267.08 313.63 C267.74 313.63 268.4 313.63 269.08 313.63 C269.39 314.41 269.7 315.2 270.02 316 C271.01 318.55 271.01 318.55 272.08 320.63 C272.74 320.63 273.4 320.63 274.08 320.63 C274.18 321.29 274.29 321.95 274.39 322.63 C274.96 325.1 275.65 327.17 276.58 329.5 C278.02 333.18 278.6 336.71 279.08 340.63 C280.81 342.36 283.03 341.76 285.33 341.77 C286.09 341.76 286.84 341.76 287.61 341.76 C288.4 341.76 289.19 341.76 290 341.76 C292.62 341.77 295.24 341.77 297.86 341.76 C299.67 341.76 301.49 341.76 303.3 341.77 C307.1 341.77 310.91 341.76 314.71 341.76 C319.59 341.75 324.48 341.76 329.37 341.76 C333.11 341.77 336.85 341.77 340.6 341.76 C342.4 341.76 344.2 341.76 346 341.77 C348.52 341.77 351.03 341.76 353.55 341.76 C354.68 341.76 354.68 341.76 355.83 341.77 C359.24 342.06 359.24 342.06 362.08 340.63 C361.96 318.11 356.31 298.1 345.08 278.63 C344.54 277.67 343.99 276.72 343.43 275.73 C336.17 263.66 326.22 252.29 315.08 243.63 C314.42 243.63 313.76 243.63 313.08 243.63 C313.08 242.97 313.08 242.31 313.08 241.63 C309.86 239.31 309.86 239.31 306.08 238.63 C306.08 237.97 306.08 237.31 306.08 236.63 C305.09 236.63 304.1 236.63 303.08 236.63 C303.08 235.97 303.08 235.31 303.08 234.63 C289.74 227.78 276.73 222.14 262.08 218.63 C261.47 218.45 260.87 218.27 260.24 218.08 C252.89 216.08 245.35 216.29 237.79 216.31 C235.42 216.32 233.04 216.29 230.67 216.27 C205.23 216.16 182.08 225.64 161.08 239.63 Z M408.08 216.63 C408.75 222.62 409.2 226.7 411.02 232.13 C412.44 236.53 413.65 240.86 414.58 245.39 C415.16 248 415.86 250.56 416.58 253.13 C417.7 257.17 418.67 261.22 419.55 265.32 C420.15 267.94 420.86 270.53 421.58 273.13 C422.7 277.17 423.67 281.22 424.55 285.32 C425.15 287.94 425.86 290.53 426.58 293.13 C427.7 297.17 428.67 301.22 429.55 305.32 C430.15 307.94 430.86 310.53 431.58 313.13 C432.7 317.17 433.67 321.22 434.55 325.32 C435.15 327.94 435.86 330.53 436.58 333.13 C437.7 337.17 438.67 341.22 439.55 345.32 C440.15 347.94 440.86 350.53 441.58 353.13 C442.7 357.17 443.67 361.22 444.55 365.32 C445.15 367.94 445.86 370.53 446.58 373.13 C447.7 377.17 448.67 381.22 449.55 385.32 C450.15 387.94 450.86 390.53 451.58 393.13 C452.7 397.17 453.67 401.22 454.55 405.32 C455.15 407.94 455.86 410.53 456.58 413.13 C457.7 417.17 458.67 421.22 459.55 425.32 C460.15 427.94 460.86 430.53 461.58 433.13 C462.7 437.17 463.67 441.22 464.55 445.32 C465.15 447.94 465.86 450.53 466.58 453.13 C467.7 457.17 468.67 461.22 469.55 465.32 C470.15 467.94 470.86 470.53 471.58 473.13 C472.7 477.17 473.67 481.22 474.55 485.32 C475.15 487.94 475.86 490.53 476.58 493.13 C477.7 497.17 478.67 501.22 479.55 505.32 C480.15 507.94 480.86 510.53 481.58 513.13 C482.7 517.17 483.67 521.22 484.55 525.32 C485.15 527.94 485.86 530.53 486.58 533.13 C487.7 537.17 488.67 541.22 489.55 545.32 C490.15 547.94 490.86 550.53 491.58 553.13 C492.7 557.17 493.67 561.22 494.55 565.32 C495.15 567.94 495.86 570.53 496.58 573.13 C497.7 577.17 498.67 581.22 499.55 585.32 C500.15 587.94 500.86 590.53 501.58 593.13 C502.7 597.17 503.67 601.22 504.55 605.32 C505.15 607.94 505.86 610.53 506.58 613.13 C507.5 616.45 508.36 619.76 509.08 623.13 C510.87 632.12 510.87 632.12 514.08 640.63 C541.47 640.63 568.86 640.63 597.08 640.63 C598.88 635.24 600.41 630.47 601.55 625.01 C602.14 622.36 602.85 619.75 603.58 617.13 C604.5 613.81 605.36 610.5 606.08 607.13 C607.01 602.81 608.18 598.57 609.36 594.32 C610 591.93 610.56 589.55 611.08 587.13 C612.01 582.81 613.18 578.57 614.36 574.32 C615 571.93 615.56 569.55 616.08 567.13 C617.01 562.81 618.18 558.57 619.36 554.32 C620 551.93 620.56 549.55 621.08 547.13 C622.01 542.81 623.18 538.57 624.36 534.32 C625 531.93 625.56 529.55 626.08 527.13 C627.01 522.81 628.18 518.57 629.36 514.32 C630 511.93 630.56 509.55 631.08 507.13 C632.01 502.81 633.18 498.57 634.36 494.32 C635 491.93 635.56 489.55 636.08 487.13 C637.01 482.81 638.18 478.57 639.36 474.32 C640 471.93 640.56 469.55 641.08 467.13 C642.01 462.81 643.18 458.57 644.36 454.32 C645 451.93 645.56 449.55 646.08 447.13 C647.01 442.81 648.18 438.57 649.36 434.32 C650 431.93 650.56 429.55 651.08 427.13 C652.01 422.81 653.18 418.57 654.36 414.32 C655 411.93 655.56 409.55 656.08 407.13 C657.01 402.81 658.18 398.57 659.36 394.32 C660 391.93 660.56 389.55 661.08 387.13 C662.01 382.81 663.18 378.57 664.36 374.32 C665 371.93 665.56 369.55 666.08 367.13 C667.01 362.81 668.18 358.57 669.36 354.32 C670 351.93 670.56 349.55 671.08 347.13 C672.01 342.81 673.18 338.57 674.36 334.32 C675 331.93 675.56 329.55 676.08 327.13 C677.01 322.81 678.18 318.57 679.36 314.32 C680 311.93 680.56 309.55 681.08 307.13 C682.01 302.81 683.18 298.57 684.36 294.32 C685 291.93 685.56 289.55 686.08 287.13 C687.01 282.81 688.18 278.57 689.36 274.32 C690 271.93 690.56 269.55 691.08 267.13 C692.01 262.81 693.18 258.57 694.36 254.32 C695 251.93 695.56 249.55 696.08 247.13 C696.8 243.76 697.66 240.45 698.58 237.13 C700.46 230.33 701.92 223.59 703.08 216.63 C674.7 216.63 646.32 216.63 617.08 216.63 C615.24 222.76 613.65 228.25 612.52 234.44 C611.3 241.08 611.3 241.08 610.08 244.11 C608.78 247.39 608.22 250.66 607.58 254.13 C606.76 258.57 605.75 262.46 604.08 266.63 C603.54 269.12 603.04 271.62 602.58 274.13 C601.76 278.57 600.75 282.46 599.08 286.63 C598.54 289.12 598.04 291.62 597.58 294.13 C596.76 298.57 595.75 302.46 594.08 306.63 C593.54 309.12 593.04 311.62 592.58 314.13 C591.76 318.57 590.75 322.46 589.08 326.63 C588.54 329.12 588.04 331.62 587.58 334.13 C586.76 338.57 585.75 342.46 584.08 346.63 C583.54 349.12 583.04 351.62 582.58 354.13 C581.76 358.57 580.75 362.46 579.08 366.63 C578.54 369.12 578.04 371.62 577.58 374.13 C576.76 378.57 575.75 382.46 574.08 386.63 C573.54 389.12 573.04 391.62 572.58 394.13 C571.76 398.57 570.75 402.46 569.08 406.63 C568.54 409.12 568.04 411.62 567.58 414.13 C566.76 418.57 565.75 422.46 564.08 426.63 C563.54 429.12 563.04 431.62 562.58 434.13 C561.77 438.56 560.81 442.48 559.08 446.63 C558.57 448.93 558.15 451.23 557.74 453.54 C556.98 455.96 555.9 456.92 554.08 458.63 C553.8 457.34 553.53 456.05 553.24 454.73 C552.88 453.05 552.51 451.37 552.14 449.69 C551.96 448.84 551.78 447.99 551.59 447.12 C551.41 446.31 551.24 445.5 551.05 444.67 C550.89 443.92 550.73 443.17 550.56 442.4 C550.23 440.62 550.23 440.62 549.08 439.63 C548.73 438.33 548.42 437.01 548.14 435.69 C547.97 434.89 547.8 434.09 547.62 433.26 C546.89 429.71 546.21 426.16 545.55 422.6 C545.27 420.64 545.27 420.64 544.08 419.63 C543.73 418.33 543.42 417.01 543.14 415.69 C542.97 414.89 542.8 414.09 542.62 413.26 C541.89 409.71 541.21 406.16 540.55 402.6 C540.27 400.64 540.27 400.64 539.08 399.63 C538.73 398.33 538.42 397.01 538.14 395.69 C537.97 394.89 537.8 394.09 537.62 393.26 C536.89 389.71 536.21 386.16 535.55 382.6 C535.27 380.64 535.27 380.64 534.08 379.63 C533.73 378.33 533.42 377.01 533.14 375.69 C532.97 374.89 532.8 374.09 532.62 373.26 C531.89 369.71 531.21 366.16 530.55 362.6 C530.27 360.64 530.27 360.64 529.08 359.63 C528.73 358.33 528.42 357.01 528.14 355.69 C527.97 354.89 527.8 354.09 527.62 353.26 C526.89 349.71 526.21 346.16 525.55 342.6 C525.27 340.64 525.27 340.64 524.08 339.63 C523.73 338.33 523.42 337.01 523.14 335.69 C522.97 334.89 522.8 334.09 522.62 333.26 C521.89 329.71 521.21 326.16 520.55 322.6 C520.27 320.64 520.27 320.64 519.08 319.63 C518.85 317.65 518.62 315.66 518.39 313.68 C518 311.12 517.11 309 516.08 306.63 C514.89 302.92 514 299.37 513.58 295.5 C513.14 292.06 512.45 289.76 511.08 286.63 C509.89 282.92 509 279.37 508.58 275.5 C508.14 272.06 507.45 269.76 506.08 266.63 C504.89 262.92 504 259.37 503.58 255.5 C503.27 251.83 503.27 251.83 502.17 249.37 C500.82 245.97 499.95 242.49 499.08 238.94 C498.91 238.24 498.73 237.53 498.55 236.8 C497.4 232.11 496.39 227.41 495.57 222.65 C495.06 220.22 495.06 220.22 493.08 216.63 C465.03 216.63 436.98 216.63 408.08 216.63 Z M109.08 728.63 C109.08 755.69 109.08 782.75 109.08 810.63 C305.1 810.63 501.12 810.63 703.08 810.63 C703.08 783.57 703.08 756.51 703.08 728.63 C507.06 728.63 311.04 728.63 109.08 728.63 Z " fill="white" transform="translate(233.9190638344735,126.37006495147943)"/>
<defs>
<linearGradient id="paint0_linear_16_339" x1="-12.4348" y1="91.2145" x2="228.124" y2="92.098" gradientUnits="userSpaceOnUse">
<stop stop-color="#AA367C"/>
<stop offset="1" stop-color="#4A2FBD"/>
</linearGradient>
</defs>
</svg>
