<?xml version="1.0" encoding="UTF-8"?>
<!-- Generator: visioncortex VTracer 0.6.3 -->
<svg version="1.1" xmlns="http://www.w3.org/2000/svg" width="960" height="960" viewBox="220 120 960 960">
<path d="M0 0 C0.82 0.01 1.65 0.01 2.5 0.02 C31.8 0.32 59.69 8.2 86.56 19.62 C88.1 20.23 89.64 20.83 91.18 21.44 C107.04 27.76 122.73 35.15 137.56 43.62 C138.46 44.14 139.36 44.65 140.29 45.18 C151.34 51.51 162.32 57.84 172.76 65.15 C177.53 67.66 181.87 66.73 186.9 65.32 C194.57 63.3 202.33 61.94 210.12 60.56 C211.57 60.3 213.01 60.05 214.45 59.79 C217.23 59.29 220.02 58.79 222.8 58.3 C225.98 57.73 229.15 57.14 232.32 56.54 C238.13 55.48 243.95 54.78 249.81 54.12 C250.81 54.01 251.81 53.89 252.84 53.77 C255.72 53.44 258.61 53.13 261.5 52.84 C262.92 52.69 264.33 52.53 265.75 52.37 C284.6 50.18 303.48 50.28 322.43 50.31 C326.13 50.31 329.82 50.31 333.52 50.29 C356.74 50.18 379.5 50.87 402.56 53.62 C403.89 53.78 405.21 53.94 406.54 54.09 C429.17 56.78 451.61 60.6 473.74 66.07 C480.26 67.35 483.52 65.8 488.94 62.19 C490.37 61.27 491.79 60.35 493.22 59.43 C493.94 58.96 494.67 58.49 495.41 58.01 C504.55 52.14 513.98 46.73 523.56 41.62 C524.73 40.98 525.9 40.33 527.07 39.68 C557.95 22.71 591.15 10.09 625.56 2.62 C626.75 2.34 626.75 2.34 627.96 2.05 C636.4 0.23 644.89 0.18 653.49 0.14 C656.1 0.13 658.7 0.06 661.3 0 C679.63 -0.23 696.45 4.68 709.94 17.62 C719.02 27.3 723.47 38.62 727.56 51.12 C727.91 52.17 728.25 53.21 728.6 54.29 C738.48 84.72 744.14 115.84 743.95 147.89 C743.94 151.12 743.95 154.36 743.97 157.6 C743.99 172.26 743.61 187.46 740.03 201.76 C739.01 205.83 739.29 210.14 739.25 214.31 C739.22 215.27 739.19 216.22 739.16 217.21 C739.07 227.99 743.8 235.35 749.31 244.31 C750.39 246.09 751.46 247.87 752.54 249.64 C753.94 251.95 755.33 254.25 756.74 256.55 C805.4 336.84 805.77 436.84 783.99 545.35 C783.21 548.45 782.4 551.54 781.56 554.62 C781.27 555.73 780.97 556.83 780.67 557.97 C773.84 582.76 764.7 606.93 752.56 629.62 C751.99 630.7 751.99 630.7 751.41 631.8 C740.45 652.35 727.21 671.21 711.98 688.83 C709.95 691.17 707.97 693.55 706 695.94 C705.2 696.82 704.39 697.71 703.56 698.62 C702.9 698.62 702.24 698.62 701.56 698.62 C701.3 699.22 701.03 699.82 700.76 700.43 C699.53 702.68 698.34 704.03 696.47 705.76 C695.55 706.62 695.55 706.62 694.61 707.5 C693.96 708.1 693.3 708.7 692.62 709.31 C691.94 709.94 691.26 710.56 690.56 711.21 C675.4 725.06 658.81 737 641.25 747.6 C639.79 748.49 638.35 749.39 636.91 750.29 C624.22 758.18 610.56 764.05 596.77 769.69 C594.63 770.6 592.53 771.57 590.43 772.55 C584.04 775.41 577.35 777.44 570.69 779.56 C570.01 779.78 569.32 780 568.62 780.23 C560.25 782.9 551.87 785.5 543.38 787.75 C542.62 787.95 541.87 788.15 541.1 788.36 C537.77 789.2 535.02 789.62 531.56 789.62 C531.87 790.42 532.17 791.21 532.48 792.03 C535.44 800.26 537.53 808.49 539.25 817.06 C539.45 818.06 539.65 819.06 539.86 820.09 C542.64 834.42 543.86 848.36 543.84 862.92 C543.84 864.58 543.85 866.25 543.85 867.91 C543.87 872.38 543.87 876.85 543.86 881.32 C543.86 885.07 543.87 888.82 543.87 892.57 C543.88 901.42 543.88 910.27 543.88 919.12 C543.87 928.22 543.88 937.31 543.91 946.41 C543.92 954.26 543.93 962.11 543.93 969.95 C543.92 974.62 543.93 979.29 543.94 983.97 C543.95 988.36 543.95 992.75 543.94 997.14 C543.94 998.74 543.94 1000.34 543.95 1001.94 C544.04 1021.62 540.2 1038.69 526.31 1053.31 C516.8 1062.39 503.59 1068.66 490.25 1069.12 C474.3 1068.14 460.6 1060.16 449.81 1048.81 C445.74 1044.13 442.83 1039.39 440.56 1033.62 C440.05 1032.43 439.54 1031.24 439.02 1030.01 C436.66 1022.82 437.15 1015.27 437.18 1007.79 C437.17 1006.09 437.17 1004.39 437.16 1002.69 C437.15 999.05 437.15 995.4 437.15 991.75 C437.16 985.97 437.14 980.19 437.12 974.41 C437.09 962.13 437.07 949.85 437.06 937.56 C437.05 924.32 437.04 911.08 436.99 897.85 C436.97 892.11 436.97 886.38 436.98 880.65 C436.98 877.06 436.97 873.48 436.95 869.89 C436.95 868.24 436.95 866.6 436.96 864.95 C437.07 835.87 427.84 812.09 410.01 789.38 C397.9 773.92 392.66 760.48 394.56 740.62 C397.55 725.47 406.02 713.3 418.6 704.76 C429.88 697.37 441.13 695.57 454.34 693.99 C466.31 692.55 478.15 690.83 489.92 688.21 C492.93 687.54 495.95 686.91 498.97 686.29 C545.67 676.42 588.7 658.77 623.56 625.62 C624.59 624.7 624.59 624.7 625.63 623.75 C642.17 608.25 654.19 587.05 663.56 566.62 C663.86 565.99 664.15 565.35 664.45 564.7 C677.64 535.6 684.24 503.62 687.69 472 C687.8 470.96 687.8 470.96 687.92 469.91 C689.47 454.56 689.75 439.22 689.75 423.8 C689.75 420.5 689.77 417.19 689.79 413.89 C689.82 402.61 689.53 391.76 687.56 380.62 C687.44 379.83 687.31 379.03 687.18 378.21 C685.68 368.82 683.44 359.69 680.56 350.62 C680.37 350 680.17 349.38 679.97 348.73 C673.74 328.95 664.3 310.09 652.73 292.9 C640.85 275.12 633.94 253.8 631.56 232.62 C631.45 231.91 631.34 231.2 631.23 230.47 C628.58 212.08 631.59 193.39 634.52 175.24 C637.83 154.64 636.38 135.21 633.56 114.62 C629.48 115.13 625.84 115.69 622.06 117.31 C618.48 118.82 614.89 120.28 611.27 121.69 C581.48 133.38 553.52 149.26 527.73 168.16 C514.35 177.75 499.42 182.5 482.9 180.06 C475.34 178.64 467.91 176.46 460.48 174.46 C433.85 167.33 406.07 162.68 378.56 160.62 C377.49 160.54 376.43 160.45 375.33 160.36 C361.95 159.41 348.56 159.47 335.15 159.49 C331.75 159.5 328.34 159.5 324.94 159.49 C307.06 159.47 289.39 159.7 271.62 161.94 C270.57 162.07 269.51 162.2 268.42 162.34 C265.13 162.76 261.85 163.19 258.56 163.62 C257.55 163.76 256.53 163.89 255.48 164.03 C241.46 165.89 227.67 168.55 213.88 171.62 C213.12 171.79 212.37 171.96 211.59 172.13 C202.64 174.13 193.76 176.32 184.93 178.81 C171.61 182.05 156.74 181.27 144.56 174.62 C139.74 171.58 135.1 168.27 130.45 164.97 C102.83 145.36 72.29 128.82 40.21 117.89 C38.06 117.14 35.92 116.35 33.82 115.46 C31.34 114.39 31.34 114.39 27.56 114.62 C24.21 137.57 21.05 164.09 28.56 186.62 C30.56 200.95 30.98 215.24 29.56 229.62 C29.45 230.83 29.34 232.04 29.22 233.28 C28.14 242.31 25.78 250.91 23.17 259.6 C22.65 261.32 22.17 263.04 21.7 264.77 C17.53 278.89 9.24 291.71 1.54 304.13 C-14.32 329.79 -25.24 358.5 -28.44 388.62 C-28.54 389.54 -28.64 390.46 -28.74 391.41 C-29.05 394.37 -29.35 397.34 -29.62 400.31 C-29.71 401.2 -29.79 402.09 -29.88 403.01 C-31.02 416.61 -30.46 430.21 -29.62 443.81 C-29.58 444.54 -29.54 445.27 -29.49 446.02 C-25.21 515.6 -8.86 586 45.41 634.03 C76.82 660.34 115.61 676.48 155.4 685.13 C157.96 685.72 160.51 686.38 163.06 687.05 C170.48 688.91 177.97 690.28 185.5 691.62 C186.58 691.82 186.58 691.82 187.68 692.02 C197.39 693.78 207.1 695.42 216.89 696.6 C232.73 698.61 245.33 705.76 255.61 718.07 C264.66 730.37 268.21 744.64 266.13 759.75 C263.74 772.03 257.89 781.44 249.76 790.68 C238.73 803.32 230.98 818.19 226.69 834.38 C226.48 835.11 226.28 835.85 226.07 836.61 C221.64 854.84 223.46 874.9 223.55 893.54 C223.57 898.55 223.58 903.56 223.6 908.57 C223.63 922.79 223.67 937.02 223.73 951.24 C223.77 959.14 223.79 967.03 223.8 974.92 C223.81 979.88 223.83 984.85 223.86 989.81 C223.88 992.91 223.88 996.01 223.88 999.11 C223.89 1000.53 223.89 1001.95 223.91 1003.37 C224.08 1022.75 219.73 1039.28 206.06 1053.44 C194.9 1063.96 180.93 1069.17 165.61 1068.88 C160.69 1068.47 156.22 1067.21 151.56 1065.62 C150.3 1065.22 150.3 1065.22 149 1064.82 C142.09 1062.39 137 1058.47 131.56 1053.62 C130.92 1053.08 130.28 1052.53 129.62 1051.97 C120.7 1043.82 114.95 1032.22 114.23 1020.17 C114.01 1014.95 113.94 1009.72 113.88 1004.5 C113.84 1002.67 113.81 1000.83 113.77 999 C113.69 994.54 113.62 990.08 113.56 985.62 C109.16 985.53 104.84 985.51 100.46 986.11 C93.8 986.99 87.09 986.87 80.38 986.88 C79.61 986.88 78.84 986.88 78.04 986.88 C-9.84 986.8 -91.49 949.69 -153.18 888.07 C-157.8 883.41 -162.16 878.59 -166.44 873.62 C-185.07 852.47 -207.23 835.25 -233.44 824.62 C-248.73 818.21 -258.57 808.55 -265.44 793.62 C-266.68 790.33 -267.66 787.06 -268.44 783.62 C-268.62 783 -268.8 782.37 -268.99 781.73 C-272.05 767.38 -266.69 753.76 -259.44 741.62 C-251.14 730.32 -239.06 721.62 -225.14 718.95 C-195.37 715.41 -164.86 733.72 -141.44 750.62 C-140.78 751.1 -140.13 751.57 -139.46 752.05 C-137.4 753.54 -135.35 755.05 -133.31 756.56 C-132.72 757 -132.12 757.45 -131.5 757.9 C-129.46 759.45 -127.44 761.03 -125.44 762.62 C-124.56 763.32 -123.67 764.02 -122.77 764.74 C-111.82 773.7 -102.05 783.83 -92.12 793.88 C-89.44 796.58 -86.76 799.29 -84.07 802 C-82.42 803.67 -80.76 805.34 -79.11 807.02 C-74.91 811.25 -70.62 815.32 -66.09 819.2 C-64.06 820.95 -62.13 822.79 -60.19 824.62 C-32.9 849.15 -0.45 867.22 35.56 874.62 C36.48 874.81 37.39 875 38.34 875.2 C47.75 876.9 57.08 876.93 66.61 876.89 C69.36 876.88 72.11 876.89 74.86 876.9 C84.48 876.9 93.8 876.47 103.32 875.05 C106.12 874.68 108.74 874.54 111.56 874.62 C111.57 873.71 111.57 872.8 111.57 871.86 C111.77 846.39 113.66 822.06 121.64 797.65 C122.71 794.67 122.71 794.67 122.56 791.62 C121.69 791.39 121.69 791.39 120.8 791.14 C57.12 773.47 0.83 744.8 -46.25 697.94 C-46.96 697.24 -47.66 696.54 -48.39 695.81 C-55.43 688.75 -61.84 681.31 -67.88 673.38 C-68.44 672.64 -69 671.9 -69.58 671.14 C-73.53 665.93 -77.24 660.61 -80.8 655.12 C-82.16 653.04 -83.58 651.05 -85.06 649.06 C-87.62 645.51 -89.67 641.72 -91.72 637.86 C-92.94 635.57 -94.17 633.31 -95.43 631.05 C-138.81 552.69 -155.61 443.51 -136.44 355.62 C-136.23 354.65 -136.02 353.67 -135.8 352.66 C-130.77 329.49 -124.02 307.35 -114.44 285.62 C-114.15 284.96 -113.85 284.3 -113.55 283.62 C-107.15 269.23 -99.28 255.88 -91.11 242.44 C-81.42 226.43 -81.26 212.91 -84.22 194.73 C-89.65 160.58 -88.44 125.46 -81.44 91.62 C-81.16 90.14 -80.88 88.65 -80.61 87.16 C-76.47 65.47 -70.23 37.64 -55.44 20.62 C-54.85 19.93 -54.25 19.23 -53.64 18.5 C-39.63 3.22 -19.73 -0.33 0 0 Z " fill="white" transform="translate(374.4375,106.375)"/>
<defs>
<linearGradient id="paint0_linear_16_339" x1="-12.4348" y1="91.2145" x2="228.124" y2="92.098" gradientUnits="userSpaceOnUse">
<stop stop-color="#AA367C"/>
<stop offset="1" stop-color="#4A2FBD"/>
</linearGradient>
</defs>
</svg>
