<?xml version="1.0" encoding="UTF-8"?>
<!-- Generator: visioncortex VTracer 0.6.3 -->
<svg version="1.1" xmlns="http://www.w3.org/2000/svg" width="1280" height="1280">
<path d="M0 0 C4.29 3.63 8.3 7.54 12.33 11.47 C13.31 12.42 14.3 13.38 15.28 14.34 C24.24 23.03 33.13 31.79 42.01 40.57 C48.56 47.04 55.13 53.47 61.75 59.88 C66.42 64.4 71.05 68.96 75.66 73.54 C78.41 76.27 81.16 78.98 83.96 81.65 C103.19 100.06 103.19 100.06 103.69 109.92 C103.54 113.38 103.06 116.52 102.24 119.89 C101.58 119.89 100.92 119.89 100.24 119.89 C100.24 121.54 100.24 123.19 100.24 124.89 C99.58 124.89 98.92 124.89 98.24 124.89 C97.91 125.88 97.58 126.87 97.24 127.89 C96.58 127.89 95.92 127.89 95.24 127.89 C95.24 128.55 95.24 129.21 95.24 129.89 C93.59 131.51 93.59 131.51 91.42 133.33 C88.41 135.86 88.41 135.86 85.6 138.61 C84.24 139.89 84.24 139.89 82.24 139.89 C82.24 140.55 82.24 141.21 82.24 141.89 C80.66 143.44 80.66 143.44 78.55 145.2 C75.29 147.97 72.22 150.82 69.24 153.89 C30.9 192.22 -7.43 230.56 -45.76 268.89 C-46.89 270.02 -46.89 270.02 -48.05 271.18 C-50.41 273.54 -52.77 275.89 -55.14 278.24 C-57.4 280.49 -59.66 282.74 -61.92 284.99 C-63.1 286.17 -64.29 287.35 -65.48 288.53 C-67.21 290.25 -68.94 291.97 -70.67 293.7 C-71.19 294.21 -71.71 294.73 -72.25 295.26 C-74.85 297.86 -77.3 300.51 -79.64 303.34 C-82.4 306.6 -85.44 309.31 -88.69 312.08 C-92.27 315.21 -95.57 318.62 -98.91 322.01 C-100.43 323.54 -101.94 325.07 -103.45 326.59 C-105.81 328.98 -108.17 331.36 -110.52 333.75 C-112.82 336.07 -115.11 338.39 -117.41 340.7 C-118.47 341.78 -118.47 341.78 -119.56 342.89 C-120.21 343.54 -120.87 344.2 -121.54 344.88 C-122.12 345.46 -122.69 346.05 -123.29 346.65 C-124.76 347.89 -124.76 347.89 -126.76 347.89 C-127.03 348.53 -127.3 349.17 -127.58 349.83 C-128.76 351.89 -128.76 351.89 -131.76 352.89 C-132.09 353.55 -132.42 354.21 -132.76 354.89 C-133.09 355.55 -133.42 356.21 -133.76 356.89 C-134.75 357.22 -135.74 357.55 -136.76 357.89 C-137.04 358.45 -137.32 359.02 -137.61 359.59 C-139.24 362.83 -141.71 365.13 -144.26 367.64 C-144.76 368.15 -145.26 368.65 -145.77 369.18 C-149.51 372.89 -149.51 372.89 -151.76 372.89 C-152.03 373.53 -152.3 374.17 -152.58 374.83 C-153.76 376.89 -153.76 376.89 -156.76 377.89 C-157.09 378.55 -157.42 379.21 -157.76 379.89 C-158.09 380.55 -158.42 381.21 -158.76 381.89 C-159.75 382.22 -160.74 382.55 -161.76 382.89 C-162.09 383.55 -162.42 384.21 -162.76 384.89 C-163.09 385.55 -163.42 386.21 -163.76 386.89 C-164.75 387.22 -165.74 387.55 -166.76 387.89 C-167.09 388.55 -167.42 389.21 -167.76 389.89 C-168.09 390.55 -168.42 391.21 -168.76 391.89 C-169.75 392.22 -170.74 392.55 -171.76 392.89 C-172.09 393.55 -172.42 394.21 -172.76 394.89 C-173.09 395.55 -173.42 396.21 -173.76 396.89 C-174.75 397.22 -175.74 397.55 -176.76 397.89 C-177.09 398.55 -177.42 399.21 -177.76 399.89 C-178.09 400.55 -178.42 401.21 -178.76 401.89 C-179.75 402.22 -180.74 402.55 -181.76 402.89 C-182.09 403.55 -182.42 404.21 -182.76 404.89 C-183.09 405.55 -183.42 406.21 -183.76 406.89 C-184.75 407.22 -185.74 407.55 -186.76 407.89 C-186.76 409.54 -186.76 411.19 -186.76 412.89 C-181.76 415.54 -176.8 417.96 -171.45 419.83 C-166.09 421.7 -161.02 424.03 -155.88 426.45 C-153.2 427.69 -150.52 428.82 -147.76 429.89 C-142.71 431.86 -137.83 434.16 -132.92 436.45 C-130.22 437.68 -127.52 438.82 -124.76 439.89 C-120.96 441.37 -117.27 443.03 -113.58 444.77 C-107.56 447.58 -101.47 450.03 -95.27 452.4 C-92.7 453.49 -90.48 454.58 -88.09 455.98 C-85.42 457.51 -83.25 458.55 -80.33 459.39 C-77.34 460.32 -74.65 461.38 -71.89 462.83 C-68.73 464.48 -65.57 465.72 -62.2 466.89 C-58.98 468.02 -56.05 469.17 -53.14 470.95 C-49.85 472.84 -46.88 473.94 -43.27 474.98 C-40.36 476.04 -37.71 477.4 -34.96 478.81 C-32.74 479.9 -30.5 480.89 -28.22 481.86 C-27.07 482.34 -27.07 482.34 -25.91 482.84 C-24.34 483.5 -22.78 484.16 -21.21 484.8 C-15.1 487.43 -11.19 490.32 -7.89 496.27 C-6.59 500.45 -6.62 502.68 -7.76 506.89 C-10.65 512.15 -13.99 515.97 -19.76 517.89 C-22.59 518.19 -25.43 518.4 -28.27 518.61 C-30.76 518.75 -30.76 518.75 -32.76 519.89 C-36.03 520.12 -39.29 520.28 -42.56 520.41 C-47.24 520.64 -51.24 521.56 -55.76 522.89 C-58.03 523.14 -60.3 523.33 -62.58 523.45 C-66.83 523.58 -66.83 523.58 -70.76 524.89 C-74.03 525.12 -77.29 525.28 -80.56 525.41 C-85.24 525.64 -89.24 526.56 -93.76 527.89 C-96.03 528.14 -98.3 528.33 -100.58 528.45 C-104.83 528.58 -104.83 528.58 -108.76 529.89 C-112.03 530.12 -115.29 530.28 -118.56 530.41 C-123.24 530.64 -127.25 531.56 -131.76 532.89 C-134.01 533.14 -136.26 533.33 -138.51 533.45 C-141.89 533.65 -144.55 533.82 -147.76 534.89 C-151.47 535.17 -155.19 535.34 -158.9 535.51 C-162.75 535.89 -166.06 536.81 -169.76 537.89 C-172.01 538.14 -174.26 538.33 -176.51 538.45 C-179.89 538.65 -182.55 538.82 -185.76 539.89 C-189.47 540.17 -193.19 540.34 -196.9 540.51 C-200.75 540.89 -204.06 541.82 -207.76 542.89 C-210.03 543.14 -212.3 543.33 -214.58 543.45 C-218.83 543.58 -218.83 543.58 -222.76 544.89 C-226.03 545.12 -229.29 545.28 -232.56 545.41 C-237.24 545.64 -241.25 546.56 -245.76 547.89 C-248.01 548.14 -250.26 548.33 -252.51 548.45 C-255.89 548.65 -258.55 548.82 -261.76 549.89 C-265.04 550.12 -268.32 550.28 -271.61 550.41 C-276.27 550.64 -280.27 551.56 -284.76 552.89 C-286.84 553.14 -288.92 553.33 -291.01 553.45 C-294.23 553.65 -296.7 553.87 -299.76 554.89 C-302.16 555.07 -304.55 555.21 -306.95 555.33 C-311.69 555.59 -316.1 556.06 -320.65 557.42 C-324.7 558.33 -328.87 558.41 -333 558.64 C-335.72 558.72 -335.72 558.72 -337.76 559.89 C-340.14 560.07 -342.51 560.21 -344.89 560.33 C-349.65 560.59 -354.08 561.05 -358.65 562.42 C-362.7 563.33 -366.87 563.41 -371 563.64 C-373.72 563.72 -373.72 563.72 -375.76 564.89 C-379.27 565.12 -382.78 565.28 -386.29 565.41 C-390.83 565.62 -394.44 566.39 -398.76 567.89 C-401.01 568.14 -403.26 568.33 -405.51 568.45 C-409.8 568.57 -409.8 568.57 -413.76 569.89 C-416.31 570.07 -418.84 570.22 -421.39 570.33 C-427.74 570.62 -427.74 570.62 -433.95 571.89 C-438.64 573.12 -443.18 573.37 -448 573.64 C-450.72 573.72 -450.72 573.72 -452.76 574.89 C-459.75 575.64 -465.24 575.47 -471.14 571.47 C-474.75 567.95 -475.94 565.09 -476.09 560.1 C-476.08 558.3 -476.05 556.5 -476.01 554.7 C-476.01 553.79 -476 552.87 -476 551.93 C-475.92 545.2 -475.92 545.2 -474.76 542.89 C-474.56 541.55 -474.4 540.21 -474.26 538.86 C-474.18 538.07 -474.1 537.28 -474.01 536.46 C-473.89 535.22 -473.89 535.22 -473.76 533.95 C-473.6 532.32 -473.43 530.68 -473.26 529.05 C-473.19 528.33 -473.12 527.6 -473.04 526.85 C-472.76 524.89 -472.76 524.89 -471.76 521.89 C-471.5 518.68 -471.32 515.47 -471.16 512.25 C-470.86 507.09 -470.86 507.09 -469.76 504.89 C-469.56 503.54 -469.4 502.19 -469.26 500.83 C-469.18 500.03 -469.1 499.24 -469.01 498.41 C-468.93 497.58 -468.85 496.75 -468.76 495.89 C-468.6 494.24 -468.43 492.6 -468.26 490.95 C-468.19 490.22 -468.12 489.49 -468.04 488.74 C-467.76 486.89 -467.76 486.89 -466.76 484.89 C-466.56 482.22 -466.39 479.57 -466.26 476.89 C-465.9 469.16 -465.9 469.16 -464.76 466.89 C-464.56 465.54 -464.4 464.19 -464.26 462.83 C-464.18 462.03 -464.1 461.24 -464.01 460.41 C-463.93 459.58 -463.85 458.75 -463.76 457.89 C-463.6 456.24 -463.43 454.6 -463.26 452.95 C-463.19 452.22 -463.12 451.49 -463.04 450.74 C-462.76 448.89 -462.76 448.89 -461.76 446.89 C-461.56 444.24 -461.39 441.61 -461.26 438.95 C-460.9 431.29 -460.9 431.29 -459.76 427.89 C-459.56 426.51 -459.4 425.12 -459.26 423.73 C-459.18 422.94 -459.1 422.14 -459.01 421.33 C-458.85 419.66 -458.68 417.99 -458.51 416.32 C-458.43 415.53 -458.35 414.73 -458.26 413.92 C-458.19 413.19 -458.12 412.47 -458.04 411.72 C-457.76 409.89 -457.76 409.89 -456.76 407.89 C-456.56 405.39 -456.39 402.9 -456.26 400.39 C-455.9 393.16 -455.9 393.16 -454.76 390.89 C-454.48 387.45 -454.32 384.01 -454.14 380.57 C-453.76 376.89 -453.76 376.89 -452.76 373.45 C-451.63 369.42 -451.36 365.74 -451.2 361.58 C-450.88 354.14 -450.88 354.14 -449.76 351.89 C-449.39 349.08 -449.06 346.27 -448.76 343.45 C-447.9 335.29 -447.9 335.29 -446.76 331.89 C-446.56 329.39 -446.39 326.9 -446.26 324.39 C-445.9 317.3 -445.9 317.3 -444.76 313.89 C-444.56 312.51 -444.4 311.12 -444.26 309.73 C-444.18 308.94 -444.1 308.14 -444.01 307.33 C-443.85 305.66 -443.68 303.99 -443.51 302.32 C-443.43 301.53 -443.35 300.73 -443.26 299.92 C-443.19 299.19 -443.12 298.47 -443.04 297.72 C-442.76 295.89 -442.76 295.89 -441.76 293.89 C-441.56 291.22 -441.39 288.57 -441.26 285.89 C-440.9 278.16 -440.9 278.16 -439.76 275.89 C-439.56 274.54 -439.4 273.19 -439.26 271.83 C-439.18 271.03 -439.1 270.24 -439.01 269.41 C-438.93 268.58 -438.85 267.75 -438.76 266.89 C-438.6 265.24 -438.43 263.6 -438.26 261.95 C-438.19 261.22 -438.12 260.49 -438.04 259.74 C-437.76 257.89 -437.76 257.89 -436.76 255.89 C-436.56 253.22 -436.39 250.57 -436.26 247.89 C-435.9 240.16 -435.9 240.16 -434.76 237.89 C-434.56 236.54 -434.4 235.19 -434.26 233.83 C-434.18 233.03 -434.1 232.24 -434.01 231.41 C-433.93 230.58 -433.85 229.75 -433.76 228.89 C-433.6 227.24 -433.43 225.6 -433.26 223.95 C-433.19 223.22 -433.12 222.49 -433.04 221.74 C-432.76 219.89 -432.76 219.89 -431.76 217.89 C-431.56 215.22 -431.39 212.57 -431.26 209.89 C-430.9 202.16 -430.9 202.16 -429.76 199.89 C-429.56 198.54 -429.4 197.19 -429.26 195.83 C-429.18 195.03 -429.1 194.24 -429.01 193.41 C-428.93 192.58 -428.85 191.75 -428.76 190.89 C-428.6 189.24 -428.43 187.6 -428.26 185.95 C-428.19 185.22 -428.12 184.49 -428.04 183.74 C-427.76 181.89 -427.76 181.89 -426.76 179.89 C-426.56 177.39 -426.39 174.9 -426.26 172.39 C-425.9 165.16 -425.9 165.16 -424.76 162.89 C-424.58 160.69 -424.44 158.48 -424.33 156.27 C-423.83 148.52 -423.83 148.52 -422.76 144.95 C-421.66 141.2 -421.52 137.54 -421.33 133.64 C-420.95 126.76 -419.72 120.49 -417.76 113.89 C-417.1 113.89 -416.44 113.89 -415.76 113.89 C-415.76 112.9 -415.76 111.91 -415.76 110.89 C-415.1 110.89 -414.44 110.89 -413.76 110.89 C-413.76 110.23 -413.76 109.57 -413.76 108.89 C-408.81 105.84 -404.46 104.71 -398.76 105.89 C-390.47 110.15 -386.91 117.11 -383.7 125.5 C-382.73 128.07 -382.73 128.07 -381.14 131.14 C-379.76 133.89 -379.76 133.89 -378.88 136.59 C-377.62 140.31 -376.1 143.87 -374.51 147.45 C-374.2 148.15 -373.9 148.85 -373.58 149.57 C-370.29 157.01 -366.87 164.39 -363.42 171.75 C-361.34 176.23 -359.44 180.67 -357.83 185.33 C-356.03 190.44 -353.68 195.12 -351.2 199.92 C-349.44 203.57 -348.14 207.29 -346.83 211.11 C-345.26 215.2 -343.21 219.02 -341.21 222.91 C-339.4 226.64 -338.05 230.46 -336.69 234.37 C-335.6 237.34 -334.22 240.07 -332.76 242.88 C-331.25 245.93 -330.06 249.09 -328.83 252.26 C-327.73 254.97 -326.55 257.61 -325.33 260.27 C-321.15 269.34 -317.44 278.61 -313.76 287.89 C-313.14 287.24 -312.51 286.59 -311.86 285.92 C-310.64 284.67 -310.64 284.67 -309.39 283.39 C-308.17 282.14 -308.17 282.14 -306.93 280.86 C-304.76 278.89 -304.76 278.89 -302.76 278.89 C-302.76 278.23 -302.76 277.57 -302.76 276.89 C-302.1 276.89 -301.44 276.89 -300.76 276.89 C-300.43 275.9 -300.1 274.91 -299.76 273.89 C-299.1 273.89 -298.44 273.89 -297.76 273.89 C-297.76 273.23 -297.76 272.57 -297.76 271.89 C-297.1 271.89 -296.44 271.89 -295.76 271.89 C-295.43 270.9 -295.1 269.91 -294.76 268.89 C-294.1 268.89 -293.44 268.89 -292.76 268.89 C-292.76 268.23 -292.76 267.57 -292.76 266.89 C-292.1 266.89 -291.44 266.89 -290.76 266.89 C-290.43 265.9 -290.1 264.91 -289.76 263.89 C-289.1 263.89 -288.44 263.89 -287.76 263.89 C-287.76 263.23 -287.76 262.57 -287.76 261.89 C-287.1 261.89 -286.44 261.89 -285.76 261.89 C-285.43 260.9 -285.1 259.91 -284.76 258.89 C-284.1 258.89 -283.44 258.89 -282.76 258.89 C-282.76 258.23 -282.76 257.57 -282.76 256.89 C-282.1 256.89 -281.44 256.89 -280.76 256.89 C-280.43 255.9 -280.1 254.91 -279.76 253.89 C-279.1 253.89 -278.44 253.89 -277.76 253.89 C-277.76 253.23 -277.76 252.57 -277.76 251.89 C-277.1 251.89 -276.44 251.89 -275.76 251.89 C-275.43 250.9 -275.1 249.91 -274.76 248.89 C-274.1 248.89 -273.44 248.89 -272.76 248.89 C-272.76 248.23 -272.76 247.57 -272.76 246.89 C-272.1 246.89 -271.44 246.89 -270.76 246.89 C-270.43 245.9 -270.1 244.91 -269.76 243.89 C-269.1 243.89 -268.44 243.89 -267.76 243.89 C-267.76 243.23 -267.76 242.57 -267.76 241.89 C-267.1 241.89 -266.44 241.89 -265.76 241.89 C-265.43 240.9 -265.1 239.91 -264.76 238.89 C-264.1 238.89 -263.44 238.89 -262.76 238.89 C-262.76 238.23 -262.76 237.57 -262.76 236.89 C-262.1 236.89 -261.44 236.89 -260.76 236.89 C-260.43 235.9 -260.1 234.91 -259.76 233.89 C-259.1 233.89 -258.44 233.89 -257.76 233.89 C-257.76 233.23 -257.76 232.57 -257.76 231.89 C-257.1 231.89 -256.44 231.89 -255.76 231.89 C-255.43 230.9 -255.1 229.91 -254.76 228.89 C-254.1 228.89 -253.44 228.89 -252.76 228.89 C-252.76 228.23 -252.76 227.57 -252.76 226.89 C-252.1 226.89 -251.44 226.89 -250.76 226.89 C-250.43 225.9 -250.1 224.91 -249.76 223.89 C-249.1 223.89 -248.44 223.89 -247.76 223.89 C-247.76 223.23 -247.76 222.57 -247.76 221.89 C-247.1 221.89 -246.44 221.89 -245.76 221.89 C-245.43 220.9 -245.1 219.91 -244.76 218.89 C-244.1 218.89 -243.44 218.89 -242.76 218.89 C-242.76 218.23 -242.76 217.57 -242.76 216.89 C-242.1 216.89 -241.44 216.89 -240.76 216.89 C-240.43 215.9 -240.1 214.91 -239.76 213.89 C-239.1 213.89 -238.44 213.89 -237.76 213.89 C-237.76 213.23 -237.76 212.57 -237.76 211.89 C-237.1 211.89 -236.44 211.89 -235.76 211.89 C-235.43 210.9 -235.1 209.91 -234.76 208.89 C-234.1 208.89 -233.44 208.89 -232.76 208.89 C-232.76 208.23 -232.76 207.57 -232.76 206.89 C-232.1 206.89 -231.44 206.89 -230.76 206.89 C-230.43 205.9 -230.1 204.91 -229.76 203.89 C-229.1 203.89 -228.44 203.89 -227.76 203.89 C-227.76 203.23 -227.76 202.57 -227.76 201.89 C-227.1 201.89 -226.44 201.89 -225.76 201.89 C-225.43 200.9 -225.1 199.91 -224.76 198.89 C-224.1 198.89 -223.44 198.89 -222.76 198.89 C-222.76 198.23 -222.76 197.57 -222.76 196.89 C-222.1 196.89 -221.44 196.89 -220.76 196.89 C-220.43 195.9 -220.1 194.91 -219.76 193.89 C-219.1 193.89 -218.44 193.89 -217.76 193.89 C-217.76 193.23 -217.76 192.57 -217.76 191.89 C-217.1 191.89 -216.44 191.89 -215.76 191.89 C-215.43 190.9 -215.1 189.91 -214.76 188.89 C-214.1 188.89 -213.44 188.89 -212.76 188.89 C-212.76 188.23 -212.76 187.57 -212.76 186.89 C-212.1 186.89 -211.44 186.89 -210.76 186.89 C-210.43 185.9 -210.1 184.91 -209.76 183.89 C-209.1 183.89 -208.44 183.89 -207.76 183.89 C-207.76 183.23 -207.76 182.57 -207.76 181.89 C-207.1 181.89 -206.44 181.89 -205.76 181.89 C-205.43 180.9 -205.1 179.91 -204.76 178.89 C-204.1 178.89 -203.44 178.89 -202.76 178.89 C-202.76 178.23 -202.76 177.57 -202.76 176.89 C-202.1 176.89 -201.44 176.89 -200.76 176.89 C-200.43 175.9 -200.1 174.91 -199.76 173.89 C-199.1 173.89 -198.44 173.89 -197.76 173.89 C-197.76 173.23 -197.76 172.57 -197.76 171.89 C-197.1 171.89 -196.44 171.89 -195.76 171.89 C-195.49 171.3 -195.22 170.7 -194.94 170.09 C-193.78 167.91 -192.63 166.5 -190.89 164.77 C-190.3 164.17 -189.71 163.58 -189.1 162.97 C-188.46 162.32 -187.81 161.68 -187.14 161.01 C-186.11 159.98 -186.11 159.98 -185.05 158.92 C-182.74 156.6 -180.42 154.28 -178.1 151.97 C-176.44 150.31 -174.79 148.65 -173.13 146.99 C-168.62 142.47 -164.11 137.97 -159.6 133.46 C-155.36 129.22 -151.12 124.98 -146.88 120.74 C-137.98 111.83 -129.07 102.93 -120.16 94.03 C-112.51 86.39 -104.87 78.75 -97.23 71.1 C-88.37 62.22 -79.5 53.35 -70.62 44.48 C-65.92 39.78 -61.22 35.08 -56.53 30.38 C-52.11 25.96 -47.7 21.55 -43.27 17.14 C-41.65 15.52 -40.03 13.9 -38.41 12.27 C-36.2 10.06 -33.98 7.85 -31.77 5.64 C-31.12 4.99 -30.48 4.35 -29.82 3.68 C-20.69 -5.37 -10.69 -8.39 0 0 Z " fill="#FBFDFD" transform="translate(1177.7627410888672,13.109031677246094)"/>
<path d="M0 0 C4.37 2.31 6.6 4.68 9.31 8.75 C9.56 10.89 9.56 10.89 9.54 13.35 C9.54 14.23 9.54 15.11 9.54 16.03 C9.52 16.95 9.51 17.86 9.5 18.81 C9.5 19.74 9.5 20.66 9.5 21.61 C9.45 28.47 9.45 28.47 8.31 30.75 C8.11 32.09 7.95 33.43 7.81 34.78 C7.73 35.57 7.65 36.36 7.56 37.18 C7.48 38.01 7.4 38.83 7.31 39.69 C7.15 41.32 6.98 42.96 6.81 44.59 C6.74 45.32 6.67 46.04 6.59 46.79 C6.31 48.75 6.31 48.75 5.31 51.75 C5.05 54.96 4.87 58.17 4.71 61.39 C4.41 66.55 4.41 66.55 3.31 68.75 C3.11 70.1 2.95 71.45 2.81 72.81 C2.69 74.01 2.69 74.01 2.56 75.23 C2.48 76.06 2.4 76.89 2.31 77.75 C2.15 79.4 1.98 81.04 1.81 82.69 C1.74 83.42 1.67 84.15 1.59 84.9 C1.31 86.75 1.31 86.75 0.31 88.75 C0.11 91.42 -0.06 94.08 -0.19 96.75 C-0.55 104.48 -0.55 104.48 -1.69 106.75 C-1.89 108.1 -2.05 109.45 -2.19 110.81 C-2.31 112.01 -2.31 112.01 -2.44 113.23 C-2.52 114.06 -2.6 114.89 -2.69 115.75 C-2.85 117.4 -3.02 119.04 -3.19 120.69 C-3.26 121.42 -3.33 122.15 -3.41 122.9 C-3.69 124.75 -3.69 124.75 -4.69 126.75 C-4.89 129.42 -5.06 132.08 -5.19 134.75 C-5.55 142.48 -5.55 142.48 -6.69 144.75 C-6.89 146.17 -7.05 147.6 -7.19 149.03 C-7.31 150.29 -7.31 150.29 -7.44 151.58 C-7.52 152.46 -7.6 153.34 -7.69 154.25 C-7.85 155.99 -8.02 157.73 -8.19 159.47 C-8.26 160.24 -8.33 161.01 -8.41 161.81 C-8.69 163.75 -8.69 163.75 -9.69 165.75 C-9.89 168.25 -10.06 170.74 -10.19 173.25 C-10.55 180.48 -10.55 180.48 -11.69 182.75 C-11.97 186.19 -12.13 189.63 -12.31 193.07 C-12.69 196.75 -12.69 196.75 -13.69 200.19 C-14.82 204.22 -15.09 207.9 -15.25 212.06 C-15.57 219.51 -15.57 219.51 -16.69 221.75 C-16.89 223.1 -17.05 224.45 -17.19 225.81 C-17.27 226.61 -17.35 227.41 -17.44 228.23 C-17.52 229.06 -17.6 229.89 -17.69 230.75 C-17.85 232.4 -18.02 234.04 -18.19 235.69 C-18.26 236.42 -18.33 237.15 -18.41 237.9 C-18.69 239.75 -18.69 239.75 -19.69 241.75 C-19.89 244.42 -20.06 247.08 -20.19 249.75 C-20.55 257.48 -20.55 257.48 -21.69 259.75 C-21.89 261.17 -22.05 262.6 -22.19 264.03 C-22.27 264.87 -22.35 265.71 -22.44 266.58 C-22.52 267.46 -22.6 268.34 -22.69 269.25 C-22.85 270.99 -23.02 272.73 -23.19 274.47 C-23.26 275.24 -23.33 276.01 -23.41 276.81 C-23.69 278.75 -23.69 278.75 -24.69 280.75 C-24.89 283.25 -25.06 285.74 -25.19 288.25 C-25.55 295.48 -25.55 295.48 -26.69 297.75 C-26.89 299.17 -27.05 300.6 -27.19 302.03 C-27.27 302.87 -27.35 303.71 -27.44 304.58 C-27.52 305.46 -27.6 306.34 -27.69 307.25 C-27.85 308.99 -28.02 310.73 -28.19 312.47 C-28.26 313.24 -28.33 314.01 -28.41 314.81 C-28.69 316.75 -28.69 316.75 -29.69 318.75 C-29.89 321.25 -30.06 323.74 -30.19 326.25 C-30.55 333.48 -30.55 333.48 -31.69 335.75 C-31.89 337.09 -32.05 338.43 -32.19 339.78 C-32.27 340.57 -32.35 341.36 -32.44 342.18 C-32.56 343.42 -32.56 343.42 -32.69 344.69 C-32.85 346.32 -33.02 347.96 -33.19 349.59 C-33.26 350.32 -33.33 351.04 -33.41 351.79 C-33.69 353.75 -33.69 353.75 -34.69 356.75 C-34.89 359.25 -35.06 361.74 -35.19 364.25 C-35.55 371.34 -35.55 371.34 -36.69 374.75 C-36.96 377.94 -37.13 381.13 -37.31 384.33 C-37.69 387.75 -37.69 387.75 -38.69 391.18 C-39.77 395.05 -40.06 398.55 -40.25 402.56 C-40.59 409.55 -40.59 409.55 -41.69 411.75 C-41.97 415.19 -42.13 418.63 -42.31 422.07 C-42.69 425.75 -42.69 425.75 -43.7 429.26 C-44.74 432.93 -44.99 436.13 -45.12 439.94 C-45.59 447.94 -46.35 455.8 -50.5 462.81 C-55.06 466.85 -59.34 468.44 -65.38 468.23 C-70.86 467.09 -74.51 463.19 -77.94 459 C-79.84 455.46 -81.31 451.89 -82.75 448.14 C-83.72 445.57 -83.72 445.57 -85.31 442.5 C-86.69 439.75 -86.69 439.75 -87.59 436.98 C-88.72 433.64 -90.11 430.56 -91.62 427.38 C-93.32 423.76 -94.97 420.19 -96.31 416.44 C-97.31 413.76 -98.32 411.44 -99.62 408.94 C-101.26 405.78 -102.51 402.6 -103.69 399.25 C-105.11 395.22 -106.73 391.47 -108.7 387.68 C-111.2 382.8 -113.29 377.75 -115.36 372.68 C-115.66 371.94 -115.96 371.2 -116.27 370.45 C-116.87 368.98 -117.46 367.51 -118.05 366.04 C-119.79 361.76 -121.71 357.64 -123.8 353.52 C-124.85 351.43 -125.73 349.31 -126.56 347.12 C-130.65 336.67 -135.19 326.38 -139.87 316.18 C-143.74 307.73 -147.32 299.18 -150.77 290.55 C-151.13 289.65 -151.49 288.75 -151.86 287.82 C-152.13 287.14 -152.41 286.46 -152.69 285.75 C-153.3 286.36 -153.91 286.97 -154.53 287.6 C-190.65 323.75 -226.76 359.9 -262.88 396.05 C-267.22 400.38 -271.55 404.72 -275.89 409.06 C-276.75 409.92 -277.61 410.79 -278.5 411.68 C-292.49 425.67 -306.47 439.66 -320.44 453.66 C-334.78 468.02 -349.12 482.37 -363.47 496.72 C-372.32 505.58 -381.17 514.44 -390.02 523.3 C-396.09 529.37 -402.15 535.45 -408.22 541.51 C-411.73 545.02 -415.23 548.52 -418.73 552.03 C-421.93 555.24 -425.14 558.45 -428.35 561.65 C-429.51 562.81 -430.67 563.98 -431.83 565.14 C-433.4 566.72 -434.98 568.29 -436.56 569.87 C-437.87 571.18 -437.87 571.18 -439.21 572.52 C-441.59 574.66 -443.89 576.21 -446.69 577.75 C-447.8 578.4 -447.8 578.4 -448.94 579.06 C-453.23 580.14 -456.58 579.24 -460.69 577.75 C-467.31 573.74 -472.71 568.02 -478.13 562.56 C-479.04 561.66 -479.95 560.75 -480.89 559.82 C-483.35 557.36 -485.82 554.9 -488.28 552.43 C-490.86 549.84 -493.45 547.26 -496.03 544.68 C-500.37 540.35 -504.7 536.01 -509.02 531.67 C-514.03 526.66 -519.05 521.65 -524.06 516.64 C-528.38 512.33 -532.69 508.03 -536.99 503.71 C-539.56 501.14 -542.13 498.57 -544.71 496 C-547.57 493.15 -550.42 490.28 -553.28 487.42 C-554.13 486.57 -554.99 485.71 -555.87 484.83 C-557.03 483.67 -557.03 483.67 -558.21 482.48 C-558.89 481.8 -559.56 481.13 -560.26 480.43 C-561.69 478.75 -561.69 478.75 -561.69 476.75 C-562.35 476.75 -563.01 476.75 -563.69 476.75 C-567.19 473.46 -568.99 471.32 -569.18 466.45 C-569.14 464.92 -569.08 463.4 -569 461.88 C-568.98 461.09 -568.95 460.31 -568.93 459.5 C-568.87 457.58 -568.78 455.67 -568.69 453.75 C-568.03 453.75 -567.37 453.75 -566.69 453.75 C-566.42 453.11 -566.15 452.47 -565.88 451.81 C-564.69 449.75 -564.69 449.75 -561.69 448.75 C-561.36 448.09 -561.03 447.43 -560.69 446.75 C-559.69 444.75 -559.69 444.75 -556.69 443.75 C-556.36 443.09 -556.03 442.43 -555.69 441.75 C-554.69 439.75 -554.69 439.75 -551.69 438.75 C-551.36 438.09 -551.03 437.43 -550.69 436.75 C-549.69 434.75 -549.69 434.75 -546.69 433.75 C-546.36 433.09 -546.03 432.43 -545.69 431.75 C-544.69 429.75 -544.69 429.75 -541.69 428.75 C-541.36 428.09 -541.03 427.43 -540.69 426.75 C-539.69 424.75 -539.69 424.75 -536.69 423.75 C-536.36 423.09 -536.03 422.43 -535.69 421.75 C-534.69 419.75 -534.69 419.75 -531.69 418.75 C-531.36 418.09 -531.03 417.43 -530.69 416.75 C-529.69 414.75 -529.69 414.75 -526.69 413.75 C-526.36 413.09 -526.03 412.43 -525.69 411.75 C-524.69 409.75 -524.69 409.75 -521.69 408.75 C-521.36 408.09 -521.03 407.43 -520.69 406.75 C-519.69 404.75 -519.69 404.75 -516.69 403.75 C-516.36 403.09 -516.03 402.43 -515.69 401.75 C-514.69 399.75 -514.69 399.75 -511.69 398.75 C-511.36 398.09 -511.03 397.43 -510.69 396.75 C-509.69 394.75 -509.69 394.75 -506.69 393.75 C-506.36 393.09 -506.03 392.43 -505.69 391.75 C-504.69 389.75 -504.69 389.75 -501.69 388.75 C-501.36 388.09 -501.03 387.43 -500.69 386.75 C-499.69 384.75 -499.69 384.75 -496.69 383.75 C-496.36 383.09 -496.03 382.43 -495.69 381.75 C-494.69 379.75 -494.69 379.75 -491.69 378.75 C-491.36 378.09 -491.03 377.43 -490.69 376.75 C-489.69 374.75 -489.69 374.75 -486.69 373.75 C-486.36 373.09 -486.03 372.43 -485.69 371.75 C-484.69 369.75 -484.69 369.75 -481.69 368.75 C-481.36 368.09 -481.03 367.43 -480.69 366.75 C-479.69 364.75 -479.69 364.75 -476.69 363.75 C-476.36 363.09 -476.03 362.43 -475.69 361.75 C-474.69 359.75 -474.69 359.75 -471.69 358.75 C-471.36 358.09 -471.03 357.43 -470.69 356.75 C-469.69 354.75 -469.69 354.75 -466.69 353.75 C-466.36 353.09 -466.03 352.43 -465.69 351.75 C-464.69 349.75 -464.69 349.75 -461.69 348.75 C-461.36 348.09 -461.03 347.43 -460.69 346.75 C-459.69 344.75 -459.69 344.75 -456.69 343.75 C-456.36 343.09 -456.03 342.43 -455.69 341.75 C-454.69 339.75 -454.69 339.75 -451.69 338.75 C-451.36 338.09 -451.03 337.43 -450.69 336.75 C-449.69 334.75 -449.69 334.75 -446.69 333.75 C-446.36 333.09 -446.03 332.43 -445.69 331.75 C-444.69 329.75 -444.69 329.75 -441.69 328.75 C-441.36 328.09 -441.03 327.43 -440.69 326.75 C-439.69 324.75 -439.69 324.75 -436.69 323.75 C-436.36 323.09 -436.03 322.43 -435.69 321.75 C-434.69 319.75 -434.69 319.75 -431.69 318.75 C-431.36 318.09 -431.03 317.43 -430.69 316.75 C-429.69 314.75 -429.69 314.75 -426.69 313.75 C-426.36 313.09 -426.03 312.43 -425.69 311.75 C-424.69 309.75 -424.69 309.75 -421.69 308.75 C-421.36 308.09 -421.03 307.43 -420.69 306.75 C-419.69 304.75 -419.69 304.75 -416.69 303.75 C-416.36 303.09 -416.03 302.43 -415.69 301.75 C-414.69 299.75 -414.69 299.75 -411.69 298.75 C-411.36 298.09 -411.03 297.43 -410.69 296.75 C-409.69 294.75 -409.69 294.75 -406.69 293.75 C-406.36 293.09 -406.03 292.43 -405.69 291.75 C-404.69 289.75 -404.69 289.75 -401.69 288.75 C-401.36 288.09 -401.03 287.43 -400.69 286.75 C-399.69 284.75 -399.69 284.75 -396.69 283.75 C-396.36 283.09 -396.03 282.43 -395.69 281.75 C-394.69 279.75 -394.69 279.75 -391.69 278.75 C-391.36 278.09 -391.03 277.43 -390.69 276.75 C-389.69 274.75 -389.69 274.75 -386.69 273.75 C-386.36 273.09 -386.03 272.43 -385.69 271.75 C-384.69 269.75 -384.69 269.75 -381.69 268.75 C-381.36 268.09 -381.03 267.43 -380.69 266.75 C-379.69 264.75 -379.69 264.75 -376.69 263.75 C-376.36 263.09 -376.03 262.43 -375.69 261.75 C-374.69 259.75 -374.69 259.75 -371.69 258.75 C-371.36 258.09 -371.03 257.43 -370.69 256.75 C-369.69 254.75 -369.69 254.75 -366.69 253.75 C-366.36 253.09 -366.03 252.43 -365.69 251.75 C-364.69 249.75 -364.69 249.75 -361.69 248.75 C-361.36 248.09 -361.03 247.43 -360.69 246.75 C-359.69 244.75 -359.69 244.75 -356.69 243.75 C-356.36 243.09 -356.03 242.43 -355.69 241.75 C-354.69 239.75 -354.69 239.75 -351.69 238.75 C-351.36 238.09 -351.03 237.43 -350.69 236.75 C-349.69 234.75 -349.69 234.75 -346.69 233.75 C-346.36 233.09 -346.03 232.43 -345.69 231.75 C-344.69 229.75 -344.69 229.75 -341.69 228.75 C-341.36 228.09 -341.03 227.43 -340.69 226.75 C-339.69 224.75 -339.69 224.75 -336.69 223.75 C-336.36 223.09 -336.03 222.43 -335.69 221.75 C-334.69 219.75 -334.69 219.75 -331.69 218.75 C-331.36 218.09 -331.03 217.43 -330.69 216.75 C-329.69 214.75 -329.69 214.75 -326.69 213.75 C-326.36 213.09 -326.03 212.43 -325.69 211.75 C-324.69 209.75 -324.69 209.75 -321.69 208.75 C-321.36 208.09 -321.03 207.43 -320.69 206.75 C-319.69 204.75 -319.69 204.75 -316.69 203.75 C-316.36 203.09 -316.03 202.43 -315.69 201.75 C-314.69 199.75 -314.69 199.75 -311.69 198.75 C-311.36 198.09 -311.03 197.43 -310.69 196.75 C-309.69 194.75 -309.69 194.75 -306.69 193.75 C-306.36 193.09 -306.03 192.43 -305.69 191.75 C-304.69 189.75 -304.69 189.75 -301.69 188.75 C-301.36 188.09 -301.03 187.43 -300.69 186.75 C-299.69 184.75 -299.69 184.75 -296.69 183.75 C-296.36 183.09 -296.03 182.43 -295.69 181.75 C-294.69 179.75 -294.69 179.75 -291.69 178.75 C-291.36 178.09 -291.03 177.43 -290.69 176.75 C-289.69 174.75 -289.69 174.75 -286.69 173.75 C-286.36 173.09 -286.03 172.43 -285.69 171.75 C-284.69 169.75 -284.69 169.75 -281.69 168.75 C-280.6 166.82 -280.6 166.82 -279.69 164.75 C-279.03 164.09 -278.37 163.43 -277.69 162.75 C-282.18 159.53 -286.61 157.38 -291.75 155.38 C-298.2 152.8 -304.49 150.03 -310.78 147.08 C-314.17 145.53 -317.62 144.17 -321.09 142.81 C-325.31 141.09 -329.4 139.12 -333.53 137.19 C-336.25 135.95 -338.97 134.82 -341.75 133.75 C-345.5 132.29 -349.05 130.59 -352.62 128.75 C-357.29 126.36 -361.95 124.52 -366.9 122.82 C-371.04 121.23 -374.9 119.16 -378.84 117.13 C-382.04 115.58 -385.24 114.49 -388.63 113.45 C-390.65 112.76 -392.43 111.93 -394.31 110.94 C-398.16 108.92 -402.15 107.33 -406.19 105.75 C-410.74 103.97 -415.14 102.09 -419.47 99.81 C-422.64 98.29 -425.91 97.03 -429.19 95.75 C-433.85 93.92 -438.42 92.03 -442.85 89.68 C-445.02 88.58 -447.25 87.68 -449.5 86.75 C-452.88 85.26 -454.94 84.14 -456.69 80.75 C-457.08 80.01 -457.47 79.26 -457.88 78.5 C-459.39 73.39 -459.31 69.32 -457.38 64.44 C-454.36 59.64 -451.19 57.33 -445.69 55.75 C-442.8 55.37 -439.95 55.13 -437.04 54.96 C-434.67 54.89 -434.67 54.89 -432.69 53.75 C-428.99 53.47 -425.29 53.3 -421.58 53.13 C-417.72 52.75 -414.41 51.82 -410.69 50.75 C-408.26 50.5 -405.82 50.31 -403.38 50.19 C-398.87 50.1 -398.87 50.1 -394.69 48.75 C-392.32 48.57 -389.94 48.43 -387.56 48.31 C-382.8 48.05 -378.37 47.59 -373.8 46.22 C-369.75 45.32 -365.58 45.23 -361.45 45 C-358.73 44.92 -358.73 44.92 -356.69 43.75 C-353.42 43.52 -350.16 43.36 -346.89 43.23 C-342.21 43 -338.21 42.07 -333.69 40.75 C-331.26 40.5 -328.82 40.31 -326.38 40.19 C-321.87 40.1 -321.87 40.1 -317.69 38.75 C-313.99 38.47 -310.29 38.3 -306.58 38.13 C-302.72 37.75 -299.41 36.82 -295.69 35.75 C-293.28 35.5 -290.86 35.31 -288.44 35.19 C-283.47 34.94 -283.47 34.94 -278.69 33.75 C-274.98 33.48 -271.26 33.3 -267.55 33.13 C-263.7 32.75 -260.39 31.82 -256.69 30.75 C-254.26 30.5 -251.82 30.31 -249.38 30.19 C-244.87 30.1 -244.87 30.1 -240.69 28.75 C-236.99 28.47 -233.29 28.3 -229.58 28.13 C-225.72 27.75 -222.4 26.83 -218.69 25.75 C-216.42 25.5 -214.15 25.31 -211.88 25.19 C-207.62 25.07 -207.62 25.07 -203.69 23.75 C-199.99 23.47 -196.29 23.3 -192.58 23.13 C-188.72 22.75 -185.41 21.82 -181.69 20.75 C-179.26 20.5 -176.82 20.31 -174.38 20.19 C-169.87 20.1 -169.87 20.1 -165.69 18.75 C-163.32 18.57 -160.94 18.43 -158.56 18.31 C-153.8 18.05 -149.37 17.59 -144.8 16.22 C-140.75 15.32 -136.58 15.23 -132.45 15 C-129.73 14.92 -129.73 14.92 -127.69 13.75 C-124.42 13.52 -121.16 13.36 -117.89 13.23 C-113.21 13 -109.21 12.08 -104.69 10.75 C-102.42 10.5 -100.15 10.31 -97.88 10.19 C-93.62 10.07 -93.62 10.07 -89.69 8.75 C-86.42 8.52 -83.16 8.36 -79.89 8.23 C-75.21 8 -71.21 7.07 -66.69 5.75 C-64.26 5.5 -61.82 5.31 -59.38 5.19 C-54.87 5.1 -54.87 5.1 -50.69 3.75 C-47.42 3.52 -44.16 3.36 -40.89 3.23 C-36.21 3 -32.21 2.07 -27.69 0.75 C-25.28 0.5 -22.86 0.31 -20.44 0.19 C-2.27 -0.77 -2.27 -0.77 0 0 Z " fill="#FBFDFD" transform="translate(568.6875,693.25)"/>
<path d="M0 0 C5.28 0 10.56 0 16 0 C16 0.66 16 1.32 16 2 C16.56 2.07 17.12 2.14 17.69 2.21 C20.91 3.31 22.55 5.18 24.95 7.58 C25.44 8.07 25.92 8.55 26.42 9.05 C28.06 10.68 29.69 12.32 31.32 13.96 C32.5 15.14 33.68 16.32 34.86 17.5 C38.11 20.75 41.36 24.01 44.6 27.27 C48.09 30.78 51.6 34.28 55.1 37.78 C61.17 43.85 67.24 49.93 73.3 56.01 C82.06 64.81 90.84 73.59 99.62 82.38 C113.86 96.63 128.1 110.89 142.33 125.16 C156.15 139.01 169.97 152.86 183.8 166.71 C184.65 167.56 185.5 168.42 186.38 169.3 C195.67 178.6 204.97 187.91 214.26 197.21 C215.07 198.03 215.89 198.85 216.73 199.69 C219.99 202.96 223.26 206.22 226.52 209.49 C236.08 219.06 245.64 228.64 255.2 238.22 C261.19 244.23 267.19 250.23 273.18 256.24 C276.65 259.71 280.11 263.17 283.57 266.65 C286.73 269.82 289.9 272.99 293.07 276.16 C294.21 277.31 295.36 278.46 296.51 279.62 C298.06 281.18 299.62 282.73 301.18 284.29 C302.04 285.16 302.91 286.03 303.8 286.92 C306.02 289.13 306.02 289.13 309 291 C311.43 285.75 313.84 280.51 315.94 275.12 C317.93 270.03 320.25 265.11 322.56 260.16 C323.79 257.46 324.92 254.76 326 252 C327.97 246.95 330.27 242.07 332.56 237.16 C333.8 234.44 334.93 231.72 336 228.94 C337.47 225.14 339.2 221.56 341.06 217.94 C343.23 213.7 344.9 209.59 346.3 205.05 C346.99 203.04 347.82 201.26 348.81 199.38 C350.83 195.53 352.42 191.54 354 187.5 C355.82 182.86 357.75 178.37 360.07 173.96 C361.23 171.51 362.11 169 363 166.44 C364.12 163.26 365.24 160.37 367 157.5 C369.22 153.87 370.47 150.03 371.87 146.03 C373.52 141.62 375.54 137.4 377.55 133.15 C378.86 130.32 380.01 127.47 381.12 124.56 C383.53 118.51 385.97 113.8 392 110.69 C396.56 109.12 401.04 109.63 405.69 110.5 C410.52 113.64 413.88 118.42 415.31 124 C416.19 129 416.39 134.09 416.57 139.15 C416.77 143.72 417.73 147.63 419 152 C419.25 154.41 419.44 156.83 419.56 159.25 C419.81 164.21 419.81 164.21 421 169 C421.27 172.71 421.45 176.42 421.62 180.14 C422 183.99 422.93 187.29 424 191 C424.25 193.43 424.44 195.87 424.56 198.31 C424.65 202.82 424.65 202.82 426 207 C426.28 210.7 426.45 214.4 426.62 218.11 C427 221.97 427.93 225.28 429 229 C429.25 231.43 429.44 233.87 429.56 236.31 C429.65 240.82 429.65 240.82 431 245 C431.18 247.37 431.32 249.75 431.44 252.12 C431.7 256.89 432.16 261.31 433.53 265.89 C434.43 269.94 434.52 274.11 434.75 278.24 C434.83 280.96 434.83 280.96 436 283 C436.28 286.7 436.45 290.4 436.62 294.11 C437 297.97 437.93 301.28 439 305 C439.25 307.43 439.44 309.87 439.56 312.31 C439.65 316.82 439.65 316.82 441 321 C441.18 323.37 441.32 325.75 441.44 328.12 C441.76 334.22 441.76 334.22 443 340.19 C444.16 344.6 444.47 348.82 444.75 353.36 C444.91 356.11 444.91 356.11 446 359 C446.18 361.39 446.32 363.79 446.44 366.19 C446.7 370.93 447.17 375.34 448.53 379.89 C449.43 383.91 449.52 388.04 449.75 392.14 C449.89 395.07 449.89 395.07 451 398 C451.27 401.71 451.45 405.42 451.62 409.14 C452 412.99 452.93 416.29 454 420 C454.25 422.43 454.44 424.87 454.56 427.31 C454.65 431.82 454.65 431.82 456 436 C456.28 439.7 456.45 443.4 456.62 447.11 C457 450.97 457.93 454.28 459 458 C459.25 460.43 459.44 462.87 459.56 465.31 C459.65 469.82 459.65 469.82 461 474 C461.18 476.37 461.32 478.75 461.44 481.12 C461.7 485.89 462.16 490.31 463.53 494.89 C464.43 498.94 464.52 503.11 464.75 507.24 C464.83 509.96 464.83 509.96 466 512 C466.23 515.27 466.39 518.52 466.52 521.79 C466.75 526.47 467.67 530.48 469 535 C469.25 537.26 469.44 539.54 469.56 541.81 C469.68 546.06 469.68 546.06 471 550 C471.34 553.05 471.37 556.12 471.44 559.19 C471.48 560.03 471.53 560.86 471.58 561.73 C471.68 567.49 470.6 570.46 466.59 574.62 C463.51 577.29 461.62 578.25 457.62 578.23 C456.78 578.23 455.94 578.23 455.08 578.22 C454.21 578.21 453.34 578.2 452.44 578.19 C451.56 578.19 450.69 578.19 449.78 578.19 C443.28 578.14 443.28 578.14 441 577 C439.58 576.79 438.15 576.63 436.72 576.5 C435.46 576.38 435.46 576.38 434.17 576.25 C433.29 576.17 432.41 576.09 431.5 576 C429.76 575.84 428.02 575.67 426.28 575.5 C425.51 575.43 424.74 575.36 423.94 575.28 C422 575 422 575 420 574 C417.5 573.79 415.01 573.63 412.5 573.5 C405.27 573.14 405.27 573.14 403 572 C399.56 571.72 396.12 571.55 392.68 571.38 C389 571 389 571 385.53 570 C381.68 568.91 378.18 568.62 374.19 568.44 C367.2 568.1 367.2 568.1 365 567 C361.56 566.72 358.12 566.55 354.68 566.38 C351 566 351 566 347.53 565 C343.68 563.91 340.18 563.62 336.19 563.44 C329.2 563.1 329.2 563.1 327 562 C323.56 561.72 320.12 561.55 316.68 561.38 C313 561 313 561 309.56 560 C305.53 558.87 301.85 558.6 297.69 558.44 C290.24 558.12 290.24 558.12 288 557 C285.79 556.82 283.59 556.68 281.38 556.56 C273.63 556.07 273.63 556.07 270.06 555 C264.92 553.48 259.52 553.51 254.2 553.25 C251 553 251 553 249 552 C247.66 551.79 246.32 551.63 244.97 551.5 C244.18 551.42 243.39 551.34 242.57 551.25 C241.33 551.13 241.33 551.13 240.06 551 C238.43 550.84 236.79 550.67 235.16 550.5 C234.43 550.43 233.71 550.36 232.96 550.28 C231 550 231 550 228 549 C224.79 548.74 221.58 548.56 218.36 548.39 C213.2 548.1 213.2 548.1 211 547 C209.65 546.79 208.3 546.63 206.94 546.5 C206.14 546.42 205.34 546.34 204.52 546.25 C203.27 546.13 203.27 546.13 202 546 C200.35 545.84 198.71 545.67 197.06 545.5 C196.33 545.43 195.6 545.36 194.85 545.28 C193 545 193 545 191 544 C188.5 543.79 186.01 543.63 183.5 543.5 C176.27 543.14 176.27 543.14 174 542 C170.56 541.72 167.12 541.55 163.68 541.38 C160 541 160 541 156.56 540 C152.53 538.87 148.85 538.6 144.69 538.44 C137.24 538.12 137.24 538.12 135 537 C133.65 536.79 132.3 536.63 130.94 536.5 C130.14 536.42 129.34 536.34 128.52 536.25 C127.69 536.17 126.86 536.09 126 536 C124.35 535.84 122.71 535.67 121.06 535.5 C120.33 535.43 119.6 535.36 118.85 535.28 C117 535 117 535 115 534 C112.33 533.79 109.67 533.63 107 533.5 C99.27 533.14 99.27 533.14 97 532 C95.65 531.79 94.3 531.63 92.94 531.5 C92.14 531.42 91.34 531.34 90.52 531.25 C89.69 531.17 88.86 531.09 88 531 C86.35 530.84 84.71 530.67 83.06 530.5 C82.33 530.43 81.6 530.36 80.85 530.28 C79 530 79 530 77 529 C74.33 528.79 71.67 528.63 69 528.5 C61.27 528.14 61.27 528.14 59 527 C55.56 526.72 52.12 526.55 48.68 526.38 C45 526 45 526 41.49 524.99 C37.82 523.95 34.62 523.7 30.81 523.56 C21.29 523.01 11.71 522.41 5 515 C2.59 510.94 2.34 506.61 3 502 C4.41 496.89 6.57 493.89 11.19 491.25 C12.78 490.47 14.38 489.72 16 489 C16.73 488.66 17.45 488.33 18.2 487.98 C19.67 487.32 21.15 486.67 22.63 486.03 C25.21 484.91 27.76 483.74 30.31 482.56 C35.11 480.38 39.95 478.33 44.82 476.32 C52.79 473.01 60.72 469.59 68.59 466.06 C71.72 464.68 74.86 463.34 78 462 C87.69 457.9 87.69 457.9 97.19 453.38 C100 452 100 452 102.69 451.12 C106.55 449.81 110.16 448.14 113.87 446.43 C118.45 444.34 123.09 442.38 127.72 440.41 C130.37 439.27 133 438.12 135.62 436.94 C139.02 435.42 142.44 433.98 145.88 432.56 C149.68 430.99 153.45 429.36 157.19 427.62 C162.78 425.05 168.46 422.72 174.16 420.41 C174.86 420.13 175.56 419.84 176.28 419.55 C177.21 419.17 177.21 419.17 178.16 418.79 C180.15 417.94 182.07 416.97 184 416 C177.37 408.45 170.41 401.28 163.29 394.19 C162.12 393.03 160.96 391.87 159.8 390.7 C156.63 387.54 153.46 384.37 150.28 381.21 C146.85 377.79 143.42 374.37 140 370.94 C134.06 365.02 128.13 359.1 122.19 353.18 C112.82 343.83 103.45 334.47 94.08 325.11 C90.87 321.91 87.66 318.7 84.45 315.5 C83.65 314.7 82.85 313.9 82.02 313.07 C72.91 303.97 63.8 294.88 54.69 285.78 C53.86 284.95 53.03 284.12 52.17 283.26 C38.65 269.77 25.13 256.28 11.61 242.78 C-2.28 228.93 -16.16 215.07 -30.04 201.2 C-38.6 192.65 -47.16 184.1 -55.73 175.56 C-61.59 169.72 -67.45 163.87 -73.3 158.02 C-76.68 154.64 -80.07 151.26 -83.46 147.89 C-86.55 144.81 -89.65 141.72 -92.73 138.62 C-93.85 137.5 -94.98 136.38 -96.1 135.27 C-97.63 133.75 -99.14 132.24 -100.65 130.71 C-101.5 129.87 -102.34 129.03 -103.21 128.16 C-105 126 -105 126 -105 123 C-105.66 123 -106.32 123 -107 123 C-107 117.72 -107 112.44 -107 107 C-106.34 107 -105.68 107 -105 107 C-105 106.01 -105 105.02 -105 104 C-104.34 104 -103.68 104 -103 104 C-102.75 103.43 -102.5 102.85 -102.24 102.26 C-100.83 99.68 -99.21 97.95 -97.13 95.87 C-96.32 95.06 -95.51 94.25 -94.68 93.41 C-93.79 92.53 -92.91 91.64 -91.99 90.73 C-91.05 89.79 -90.11 88.84 -89.16 87.89 C-86.61 85.33 -84.04 82.77 -81.48 80.21 C-78.8 77.53 -76.12 74.85 -73.44 72.17 C-68.95 67.67 -64.45 63.18 -59.94 58.68 C-54.73 53.48 -49.53 48.28 -44.33 43.07 C-39.87 38.6 -35.4 34.13 -30.93 29.66 C-28.26 27 -25.59 24.33 -22.93 21.66 C-19.96 18.68 -16.98 15.71 -14.01 12.75 C-13.12 11.86 -12.23 10.97 -11.32 10.05 C-10.51 9.25 -9.7 8.44 -8.87 7.62 C-8.17 6.91 -7.46 6.21 -6.74 5.49 C-5 4 -5 4 -3 4 C-3 3.34 -3 2.68 -3 2 C-2.01 2 -1.02 2 0 2 C0 1.34 0 0.68 0 0 Z " fill="#FBFDFD" transform="translate(107,0)"/>
<path d="M0 0 C0.79 0 1.59 0 2.4 0.01 C3.23 0.02 4.05 0.03 4.9 0.04 C5.73 0.04 6.56 0.04 7.41 0.04 C13.56 0.09 13.56 0.09 15.84 1.23 C19.28 1.51 22.72 1.68 26.16 1.85 C29.84 2.23 29.84 2.23 33.31 3.23 C37.16 4.32 40.66 4.61 44.65 4.79 C51.64 5.13 51.64 5.13 53.84 6.23 C55.18 6.44 56.52 6.6 57.87 6.73 C58.66 6.81 59.45 6.9 60.27 6.98 C61.1 7.06 61.92 7.15 62.78 7.23 C64.41 7.39 66.05 7.56 67.68 7.73 C68.41 7.8 69.13 7.87 69.88 7.95 C71.84 8.23 71.84 8.23 74.84 9.23 C77.17 9.43 79.5 9.59 81.84 9.73 C88.51 10.12 88.51 10.12 91.84 11.23 C95.29 11.5 98.74 11.68 102.2 11.85 C105.84 12.23 105.84 12.23 109.3 13.23 C113.16 14.32 116.65 14.61 120.65 14.79 C127.64 15.13 127.64 15.13 129.84 16.23 C132.05 16.41 134.25 16.55 136.46 16.67 C144.22 17.16 144.22 17.16 147.84 18.23 C152.71 19.66 157.72 19.72 162.77 19.98 C165.84 20.23 165.84 20.23 168.84 21.23 C172.29 21.5 175.74 21.68 179.2 21.85 C182.84 22.23 182.84 22.23 186.3 23.23 C190.16 24.32 193.65 24.61 197.65 24.79 C204.64 25.13 204.64 25.13 206.84 26.23 C210.28 26.51 213.72 26.68 217.16 26.85 C220.84 27.23 220.84 27.23 224.31 28.23 C228.16 29.32 231.66 29.61 235.65 29.79 C242.64 30.13 242.64 30.13 244.84 31.23 C248.28 31.51 251.72 31.68 255.16 31.85 C258.84 32.23 258.84 32.23 262.31 33.23 C266.16 34.32 269.66 34.61 273.65 34.79 C280.64 35.13 280.64 35.13 282.84 36.23 C286.28 36.51 289.72 36.68 293.16 36.85 C296.84 37.23 296.84 37.23 300.31 38.23 C304.16 39.32 307.66 39.61 311.65 39.79 C318.64 40.13 318.64 40.13 320.84 41.23 C324.28 41.51 327.72 41.68 331.16 41.85 C334.84 42.23 334.84 42.23 338.31 43.23 C342.16 44.32 345.66 44.61 349.65 44.79 C356.64 45.13 356.64 45.13 358.84 46.23 C362.28 46.51 365.72 46.68 369.16 46.85 C372.84 47.23 372.84 47.23 376.31 48.23 C380.15 49.32 383.61 49.61 387.59 49.79 C394.55 50.13 394.55 50.13 397.84 51.23 C401.29 51.5 404.74 51.68 408.2 51.85 C411.84 52.23 411.84 52.23 415.34 53.24 C419.02 54.28 422.22 54.53 426.03 54.67 C435.63 55.24 444.43 55.94 451.63 62.83 C454.33 65.96 453.97 68.71 453.96 72.73 C453.97 73.9 453.97 75.06 453.97 76.26 C453.84 79.23 453.84 79.23 452.84 81.23 C452.18 81.23 451.52 81.23 450.84 81.23 C450.65 81.81 450.47 82.39 450.28 82.98 C447.14 87.88 440.47 89.92 435.28 92.17 C432.68 93.3 430.1 94.48 427.53 95.67 C422.73 97.85 417.89 99.9 413.02 101.91 C398.16 108 398.16 108 383.65 114.86 C380.84 116.23 380.84 116.23 378.15 117.11 C374.25 118.43 370.59 120.14 366.85 121.87 C363.77 123.26 360.66 124.57 357.53 125.86 C354.44 127.13 351.45 128.42 348.46 129.92 C345.84 131.23 345.84 131.23 343.07 132.13 C339.76 133.26 336.69 134.62 333.53 136.11 C332.38 136.64 331.24 137.18 330.05 137.73 C328.99 138.22 327.93 138.72 326.84 139.23 C320.42 142.19 313.9 144.85 307.36 147.52 C301.76 149.82 296.27 152.31 290.79 154.88 C285.29 157.4 279.75 159.88 273.84 161.23 C273.84 162.55 273.84 163.87 273.84 165.23 C274.5 165.23 275.16 165.23 275.84 165.23 C277.39 166.8 277.39 166.8 279.15 168.92 C281.9 172.2 284.8 175.21 287.84 178.23 C289.43 179.82 291.02 181.41 292.61 183.01 C293.54 183.94 294.47 184.87 295.43 185.83 C295.92 186.33 296.42 186.82 296.93 187.33 C308.39 198.81 319.85 210.28 331.31 221.75 C337.93 228.37 344.55 235 351.16 241.63 C356.95 247.42 362.73 253.22 368.52 259.01 C371.58 262.07 374.64 265.13 377.7 268.19 C380.57 271.07 383.45 273.95 386.33 276.83 C387.38 277.89 388.43 278.94 389.48 279.99 C394.77 285.29 400.09 290.43 405.84 295.23 C407.09 296.55 408.3 297.9 409.46 299.29 C412.13 302.42 414.89 305.36 417.84 308.23 C464.51 354.9 511.17 401.56 557.84 448.23 C558.71 449.06 559.57 449.88 560.46 450.73 C564.33 454.8 566.02 457.52 566.28 463.17 C566.11 467.97 564.99 470.5 561.84 474.23 C561.4 474.78 560.97 475.33 560.52 475.9 C557.27 479.91 553.65 483.26 549.72 486.61 C547.3 488.7 545.07 490.94 542.84 493.23 C467.84 568.23 467.84 568.23 465.15 570.86 C462.73 573.2 462.73 573.2 460.84 576.23 C460.18 576.23 459.52 576.23 458.84 576.23 C458.84 576.89 458.84 577.55 458.84 578.23 C455.96 578.37 453.09 578.46 450.21 578.54 C449.41 578.58 448.6 578.63 447.77 578.67 C443.47 578.76 440.68 578.58 437.25 575.84 C434.84 573.23 434.84 573.23 434.84 571.23 C434.18 571.23 433.52 571.23 432.84 571.23 C431.21 569.86 431.21 569.86 429.84 568.23 C429.84 567.57 429.84 566.91 429.84 566.23 C429.18 566.23 428.52 566.23 427.84 566.23 C426.21 564.86 426.21 564.86 424.84 563.23 C424.84 562.57 424.84 561.91 424.84 561.23 C424.18 561.23 423.52 561.23 422.84 561.23 C421.21 559.86 421.21 559.86 419.84 558.23 C419.84 557.57 419.84 556.91 419.84 556.23 C419.18 556.23 418.52 556.23 417.84 556.23 C416.21 554.86 416.21 554.86 414.84 553.23 C414.84 552.57 414.84 551.91 414.84 551.23 C414.18 551.23 413.52 551.23 412.84 551.23 C411.21 549.86 411.21 549.86 409.84 548.23 C409.84 547.57 409.84 546.91 409.84 546.23 C409.18 546.23 408.52 546.23 407.84 546.23 C406.21 544.86 406.21 544.86 404.84 543.23 C404.84 542.57 404.84 541.91 404.84 541.23 C404.18 541.23 403.52 541.23 402.84 541.23 C401.21 539.86 401.21 539.86 399.84 538.23 C399.84 537.57 399.84 536.91 399.84 536.23 C399.18 536.23 398.52 536.23 397.84 536.23 C396.21 534.86 396.21 534.86 394.84 533.23 C394.84 532.57 394.84 531.91 394.84 531.23 C394.18 531.23 393.52 531.23 392.84 531.23 C391.21 529.86 391.21 529.86 389.84 528.23 C389.84 527.57 389.84 526.91 389.84 526.23 C389.18 526.23 388.52 526.23 387.84 526.23 C386.21 524.86 386.21 524.86 384.84 523.23 C384.84 522.57 384.84 521.91 384.84 521.23 C384.18 521.23 383.52 521.23 382.84 521.23 C381.21 519.86 381.21 519.86 379.84 518.23 C379.84 517.57 379.84 516.91 379.84 516.23 C379.18 516.23 378.52 516.23 377.84 516.23 C376.21 514.86 376.21 514.86 374.84 513.23 C374.84 512.57 374.84 511.91 374.84 511.23 C374.18 511.23 373.52 511.23 372.84 511.23 C371.21 509.86 371.21 509.86 369.84 508.23 C369.84 507.57 369.84 506.91 369.84 506.23 C369.18 506.23 368.52 506.23 367.84 506.23 C366.21 504.86 366.21 504.86 364.84 503.23 C364.84 502.57 364.84 501.91 364.84 501.23 C364.18 501.23 363.52 501.23 362.84 501.23 C361.21 499.86 361.21 499.86 359.84 498.23 C359.84 497.57 359.84 496.91 359.84 496.23 C359.18 496.23 358.52 496.23 357.84 496.23 C356.21 494.86 356.21 494.86 354.84 493.23 C354.84 492.57 354.84 491.91 354.84 491.23 C354.18 491.23 353.52 491.23 352.84 491.23 C351.21 489.86 351.21 489.86 349.84 488.23 C349.84 487.57 349.84 486.91 349.84 486.23 C349.18 486.23 348.52 486.23 347.84 486.23 C346.21 484.86 346.21 484.86 344.84 483.23 C344.84 482.57 344.84 481.91 344.84 481.23 C344.18 481.23 343.52 481.23 342.84 481.23 C341.21 479.86 341.21 479.86 339.84 478.23 C339.84 477.57 339.84 476.91 339.84 476.23 C339.18 476.23 338.52 476.23 337.84 476.23 C336.21 474.86 336.21 474.86 334.84 473.23 C334.84 472.57 334.84 471.91 334.84 471.23 C334.18 471.23 333.52 471.23 332.84 471.23 C331.21 469.86 331.21 469.86 329.84 468.23 C329.84 467.57 329.84 466.91 329.84 466.23 C329.18 466.23 328.52 466.23 327.84 466.23 C326.21 464.86 326.21 464.86 324.84 463.23 C324.84 462.57 324.84 461.91 324.84 461.23 C324.18 461.23 323.52 461.23 322.84 461.23 C321.21 459.86 321.21 459.86 319.84 458.23 C319.84 457.57 319.84 456.91 319.84 456.23 C319.18 456.23 318.52 456.23 317.84 456.23 C316.21 454.86 316.21 454.86 314.84 453.23 C314.84 452.57 314.84 451.91 314.84 451.23 C314.18 451.23 313.52 451.23 312.84 451.23 C311.21 449.86 311.21 449.86 309.84 448.23 C309.84 447.57 309.84 446.91 309.84 446.23 C309.18 446.23 308.52 446.23 307.84 446.23 C306.21 444.86 306.21 444.86 304.84 443.23 C304.84 442.57 304.84 441.91 304.84 441.23 C304.18 441.23 303.52 441.23 302.84 441.23 C301.21 439.86 301.21 439.86 299.84 438.23 C299.84 437.57 299.84 436.91 299.84 436.23 C299.18 436.23 298.52 436.23 297.84 436.23 C296.21 434.86 296.21 434.86 294.84 433.23 C294.84 432.57 294.84 431.91 294.84 431.23 C294.18 431.23 293.52 431.23 292.84 431.23 C291.21 429.86 291.21 429.86 289.84 428.23 C289.84 427.57 289.84 426.91 289.84 426.23 C289.18 426.23 288.52 426.23 287.84 426.23 C286.21 424.86 286.21 424.86 284.84 423.23 C284.84 422.57 284.84 421.91 284.84 421.23 C284.18 421.23 283.52 421.23 282.84 421.23 C281.21 419.86 281.21 419.86 279.84 418.23 C279.84 417.57 279.84 416.91 279.84 416.23 C279.18 416.23 278.52 416.23 277.84 416.23 C276.21 414.86 276.21 414.86 274.84 413.23 C274.84 412.57 274.84 411.91 274.84 411.23 C274.18 411.23 273.52 411.23 272.84 411.23 C271.21 409.86 271.21 409.86 269.84 408.23 C269.84 407.57 269.84 406.91 269.84 406.23 C269.18 406.23 268.52 406.23 267.84 406.23 C266.21 404.86 266.21 404.86 264.84 403.23 C264.84 402.57 264.84 401.91 264.84 401.23 C264.18 401.23 263.52 401.23 262.84 401.23 C261.21 399.86 261.21 399.86 259.84 398.23 C259.84 397.57 259.84 396.91 259.84 396.23 C259.18 396.23 258.52 396.23 257.84 396.23 C256.21 394.86 256.21 394.86 254.84 393.23 C254.84 392.57 254.84 391.91 254.84 391.23 C254.18 391.23 253.52 391.23 252.84 391.23 C251.21 389.86 251.21 389.86 249.84 388.23 C249.84 387.57 249.84 386.91 249.84 386.23 C249.18 386.23 248.52 386.23 247.84 386.23 C246.21 384.86 246.21 384.86 244.84 383.23 C244.84 382.57 244.84 381.91 244.84 381.23 C244.18 381.23 243.52 381.23 242.84 381.23 C241.21 379.86 241.21 379.86 239.84 378.23 C239.84 377.57 239.84 376.91 239.84 376.23 C239.18 376.23 238.52 376.23 237.84 376.23 C236.21 374.86 236.21 374.86 234.84 373.23 C234.84 372.57 234.84 371.91 234.84 371.23 C234.18 371.23 233.52 371.23 232.84 371.23 C231.21 369.86 231.21 369.86 229.84 368.23 C229.84 367.57 229.84 366.91 229.84 366.23 C229.18 366.23 228.52 366.23 227.84 366.23 C226.21 364.86 226.21 364.86 224.84 363.23 C224.84 362.57 224.84 361.91 224.84 361.23 C224.18 361.23 223.52 361.23 222.84 361.23 C221.21 359.86 221.21 359.86 219.84 358.23 C219.84 357.57 219.84 356.91 219.84 356.23 C219.18 356.23 218.52 356.23 217.84 356.23 C216.21 354.86 216.21 354.86 214.84 353.23 C214.84 352.57 214.84 351.91 214.84 351.23 C214.18 351.23 213.52 351.23 212.84 351.23 C211.21 349.86 211.21 349.86 209.84 348.23 C209.84 347.57 209.84 346.91 209.84 346.23 C209.18 346.23 208.52 346.23 207.84 346.23 C206.21 344.86 206.21 344.86 204.84 343.23 C204.84 342.57 204.84 341.91 204.84 341.23 C204.18 341.23 203.52 341.23 202.84 341.23 C201.21 339.86 201.21 339.86 199.84 338.23 C199.84 337.57 199.84 336.91 199.84 336.23 C199.18 336.23 198.52 336.23 197.84 336.23 C196.21 334.86 196.21 334.86 194.84 333.23 C194.84 332.57 194.84 331.91 194.84 331.23 C194.18 331.23 193.52 331.23 192.84 331.23 C191.21 329.86 191.21 329.86 189.84 328.23 C189.84 327.57 189.84 326.91 189.84 326.23 C189.18 326.23 188.52 326.23 187.84 326.23 C186.21 324.86 186.21 324.86 184.84 323.23 C184.84 322.57 184.84 321.91 184.84 321.23 C184.18 321.23 183.52 321.23 182.84 321.23 C181.21 319.86 181.21 319.86 179.84 318.23 C179.84 317.57 179.84 316.91 179.84 316.23 C179.18 316.23 178.52 316.23 177.84 316.23 C176.21 314.86 176.21 314.86 174.84 313.23 C174.84 312.57 174.84 311.91 174.84 311.23 C174.18 311.23 173.52 311.23 172.84 311.23 C171.21 309.86 171.21 309.86 169.84 308.23 C169.84 307.57 169.84 306.91 169.84 306.23 C169.18 306.23 168.52 306.23 167.84 306.23 C166.21 304.86 166.21 304.86 164.84 303.23 C164.84 302.57 164.84 301.91 164.84 301.23 C164.18 301.23 163.52 301.23 162.84 301.23 C161.21 299.86 161.21 299.86 159.84 298.23 C159.84 297.57 159.84 296.91 159.84 296.23 C159.18 296.23 158.52 296.23 157.84 296.23 C156.21 294.86 156.21 294.86 154.84 293.23 C154.84 292.57 154.84 291.91 154.84 291.23 C154.18 291.23 153.52 291.23 152.84 291.23 C152.84 290.57 152.84 289.91 152.84 289.23 C151.52 288.9 150.2 288.57 148.84 288.23 C144.89 295.21 141.44 301.88 138.87 309.48 C137.73 312.53 136.33 315.34 134.84 318.23 C132.46 322.86 130.6 327.47 128.9 332.38 C126.88 337.81 124.31 343 121.84 348.23 C119.39 353.5 117 358.75 114.9 364.17 C113.4 368 111.66 371.63 109.78 375.29 C107.62 379.52 105.94 383.63 104.55 388.16 C103.59 390.95 102.24 393.46 100.88 396.06 C99.67 398.59 98.76 401.15 97.84 403.79 C96.72 406.97 95.6 409.86 93.84 412.73 C91.62 416.36 90.37 420.2 88.97 424.2 C87.32 428.62 85.29 432.84 83.28 437.1 C82.02 439.85 80.87 442.6 79.78 445.42 C72.25 464.54 72.25 464.54 63.96 468.23 C59.74 469.58 56.97 468.91 52.84 467.23 C51.79 466.86 50.74 466.49 49.65 466.11 C45.72 463.48 44.15 460.65 42.84 456.23 C42.09 452.06 41.65 447.86 41.23 443.64 C41.05 440.37 41.05 440.37 39.84 438.23 C39.66 435.69 39.51 433.15 39.4 430.61 C39.11 424.25 39.11 424.25 37.84 418.04 C36.61 413.36 36.36 408.81 36.09 403.99 C36.01 401.27 36.01 401.27 34.84 399.23 C34.61 395.97 34.45 392.71 34.32 389.44 C34.09 384.76 33.17 380.75 31.84 376.23 C31.59 373.97 31.4 371.69 31.28 369.42 C31.16 365.17 31.16 365.17 29.84 361.23 C29.61 357.97 29.45 354.71 29.32 351.44 C29.09 346.76 28.17 342.75 26.84 338.23 C26.59 335.97 26.4 333.69 26.28 331.42 C26.16 327.17 26.16 327.17 24.84 323.23 C24.66 320.86 24.52 318.48 24.4 316.11 C24.14 311.34 23.68 306.92 22.31 302.34 C21.4 298.29 21.32 294.12 21.09 289.99 C21.01 287.27 21.01 287.27 19.84 285.23 C19.61 281.72 19.45 278.22 19.32 274.7 C19.11 270.17 18.34 266.55 16.84 262.23 C16.59 259.99 16.4 257.73 16.28 255.48 C16.16 251.2 16.16 251.2 14.84 247.23 C14.66 244.69 14.51 242.15 14.4 239.61 C14.1 233.22 14.1 233.22 12.84 226.98 C11.67 222.59 11.37 218.39 11.09 213.87 C10.93 211.12 10.93 211.12 9.84 208.23 C9.66 205.84 9.52 203.44 9.4 201.04 C9.14 196.3 8.67 191.9 7.31 187.34 C6.4 183.29 6.32 179.12 6.09 174.99 C6.01 172.27 6.01 172.27 4.84 170.23 C4.66 167.86 4.52 165.48 4.4 163.11 C4.14 158.34 3.68 153.92 2.31 149.34 C1.4 145.29 1.32 141.12 1.09 136.99 C1.01 134.27 1.01 134.27 -0.16 132.23 C-0.39 128.97 -0.55 125.71 -0.68 122.44 C-0.91 117.76 -1.83 113.75 -3.16 109.23 C-3.41 106.97 -3.6 104.69 -3.72 102.42 C-3.84 98.17 -3.84 98.17 -5.16 94.23 C-5.39 90.97 -5.55 87.71 -5.68 84.44 C-5.91 79.75 -6.85 75.75 -8.16 71.23 C-8.41 68.78 -8.6 66.32 -8.72 63.86 C-8.57 59.72 -8.57 59.72 -10.16 56.23 C-10.4 53.01 -10.55 49.8 -10.68 46.57 C-10.85 43 -11.21 39.72 -12.15 36.27 C-13.33 31.92 -13.67 27.66 -13.91 23.17 C-13.97 22.4 -14.02 21.64 -14.08 20.85 C-14.43 14.58 -13.99 9.34 -9.72 4.42 C-6.37 1.55 -4.4 -0.02 0 0 Z " fill="#FBFDFD" transform="translate(697.16015625,701.76953125)"/>
</svg>
