<?xml version="1.0" encoding="UTF-8"?>
<!-- Generator: visioncortex VTracer 0.6.3 -->
<svg version="1.1" xmlns="http://www.w3.org/2000/svg" width="1280" height="1280">
<path d="M0 0 C1.62 0 1.62 0 3.27 0 C5.12 -0 5.12 -0 7.02 -0 C8.41 -0 9.8 0 11.2 0 C12.66 0 14.13 0 15.59 0 C19.64 -0 23.68 0 27.73 0.01 C32.08 0.01 36.44 0.01 40.79 0.01 C48.35 0.01 55.9 0.01 63.45 0.02 C74.37 0.03 85.29 0.03 96.21 0.03 C113.92 0.03 131.63 0.04 149.35 0.05 C166.56 0.06 183.77 0.07 200.98 0.07 C202.04 0.07 203.1 0.07 204.19 0.07 C209.51 0.07 214.83 0.07 220.15 0.07 C264.3 0.08 308.45 0.1 352.6 0.12 C354.61 3.97 355.99 6.62 355.79 11 C355.76 11.78 355.73 12.56 355.7 13.37 C355.65 14.24 355.65 14.24 355.6 15.12 C356.59 15.45 357.58 15.78 358.6 16.12 C360.3 19.45 360.6 21.31 360.6 25.12 C361.59 25.45 362.58 25.78 363.6 26.12 C363.6 26.78 363.6 27.44 363.6 28.12 C364.26 28.12 364.92 28.12 365.6 28.12 C365.6 28.78 365.6 29.44 365.6 30.12 C366.59 30.45 367.58 30.78 368.6 31.12 C368.6 31.78 368.6 32.44 368.6 33.12 C369.26 33.12 369.92 33.12 370.6 33.12 C370.6 33.78 370.6 34.44 370.6 35.12 C371.59 35.45 372.58 35.78 373.6 36.12 C373.6 36.78 373.6 37.44 373.6 38.12 C374.32 38.25 375.04 38.37 375.79 38.5 C378.56 39.11 381 40.01 383.6 41.12 C383.6 41.78 383.6 42.44 383.6 43.12 C384.47 43.07 384.47 43.07 385.36 43.02 C386.14 42.99 386.92 42.96 387.72 42.94 C388.49 42.9 389.26 42.87 390.04 42.83 C393.33 43.21 395.69 44.6 398.6 46.12 C398.62 91.33 398.64 136.54 398.65 181.75 C398.65 187.08 398.65 192.41 398.65 197.74 C398.65 199.33 398.65 199.33 398.66 200.96 C398.66 218.17 398.67 235.38 398.68 252.59 C398.69 270.23 398.69 287.88 398.69 305.52 C398.69 316.42 398.7 327.32 398.71 338.22 C398.71 345.68 398.71 353.14 398.71 360.6 C398.71 364.91 398.71 369.22 398.72 373.54 C398.72 377.48 398.72 381.42 398.72 385.36 C398.72 386.79 398.72 388.22 398.72 389.66 C398.73 391.59 398.73 393.52 398.72 395.46 C398.72 396.54 398.72 397.61 398.72 398.72 C398.6 401.12 398.6 401.12 397.6 402.12 C395.58 402.2 393.56 402.21 391.54 402.19 C390.43 402.18 389.33 402.17 388.19 402.16 C386.91 402.14 386.91 402.14 385.6 402.12 C385.6 402.78 385.6 403.44 385.6 404.12 C383.95 404.12 382.3 404.12 380.6 404.12 C380.27 405.11 379.94 406.1 379.6 407.12 C378.28 407.12 376.96 407.12 375.6 407.12 C375.6 407.78 375.6 408.44 375.6 409.12 C373.95 409.12 372.3 409.12 370.6 409.12 C370.33 409.76 370.06 410.4 369.79 411.06 C368.6 413.12 368.6 413.12 365.6 414.12 C365.27 414.78 364.94 415.44 364.6 416.12 C364.27 416.78 363.94 417.44 363.6 418.12 C362.61 418.45 361.62 418.78 360.6 419.12 C360.6 420.77 360.6 422.42 360.6 424.12 C359.94 424.12 359.28 424.12 358.6 424.12 C358.27 425.77 357.94 427.42 357.6 429.12 C356.94 429.12 356.28 429.12 355.6 429.12 C355.6 432.42 355.6 435.72 355.6 439.12 C354.94 439.12 354.28 439.12 353.6 439.12 C353.63 440.83 353.63 440.83 353.66 442.56 C353.6 446.12 353.6 446.12 352.6 447.12 C350.83 447.22 349.06 447.25 347.29 447.25 C345.56 447.25 345.56 447.25 343.79 447.26 C342.5 447.26 341.21 447.25 339.88 447.25 C338.51 447.25 337.14 447.25 335.77 447.26 C331.99 447.26 328.21 447.26 324.43 447.25 C320.36 447.25 316.29 447.26 312.22 447.26 C304.24 447.26 296.25 447.26 288.27 447.26 C281.79 447.26 275.3 447.26 268.82 447.26 C267.44 447.26 267.44 447.26 266.03 447.26 C264.16 447.26 262.29 447.26 260.42 447.26 C242.85 447.26 225.29 447.26 207.73 447.25 C192.64 447.25 177.55 447.25 162.47 447.25 C144.97 447.26 127.47 447.26 109.97 447.26 C108.11 447.26 106.24 447.26 104.38 447.26 C103.46 447.26 102.55 447.26 101.6 447.26 C95.12 447.26 88.64 447.26 82.16 447.26 C74.27 447.26 66.38 447.26 58.49 447.26 C54.45 447.25 50.42 447.25 46.39 447.26 C42.71 447.26 39.03 447.26 35.34 447.25 C33.37 447.25 31.39 447.25 29.41 447.26 C28.26 447.26 27.1 447.25 25.9 447.25 C24.39 447.25 24.39 447.25 22.85 447.25 C20.6 447.12 20.6 447.12 19.6 446.12 C19.47 443.2 19.41 440.31 19.4 437.38 C19.39 436.5 19.39 435.62 19.38 434.72 C19.37 432.85 19.36 430.99 19.36 429.12 C19.35 426.27 19.32 423.41 19.29 420.56 C19.28 418.75 19.28 416.94 19.27 415.13 C19.26 414.28 19.25 413.42 19.23 412.54 C19.24 411.74 19.24 410.94 19.24 410.12 C19.24 409.07 19.24 409.07 19.23 408 C19.71 405.55 20.66 404.64 22.6 403.12 C23.26 403.12 23.92 403.12 24.6 403.12 C24.87 402.48 25.14 401.85 25.41 401.19 C26.6 399.12 26.6 399.12 29.6 398.12 C29.93 397.46 30.26 396.8 30.6 396.12 C31.6 394.12 31.6 394.12 34.6 393.12 C34.93 392.46 35.26 391.8 35.6 391.12 C36.6 389.12 36.6 389.12 39.6 388.12 C39.93 387.46 40.26 386.8 40.6 386.12 C41.6 384.12 41.6 384.12 44.6 383.12 C44.93 382.46 45.26 381.8 45.6 381.12 C46.6 379.12 46.6 379.12 49.6 378.12 C49.93 377.46 50.26 376.8 50.6 376.12 C51.6 374.12 51.6 374.12 54.6 373.12 C54.93 372.46 55.26 371.8 55.6 371.12 C56.6 369.12 56.6 369.12 59.6 368.12 C59.93 367.46 60.26 366.8 60.6 366.12 C61.6 364.12 61.6 364.12 64.6 363.12 C64.93 362.46 65.26 361.8 65.6 361.12 C66.6 359.12 66.6 359.12 69.6 358.12 C69.93 357.46 70.26 356.8 70.6 356.12 C71.6 354.12 71.6 354.12 74.6 353.12 C74.93 352.46 75.26 351.8 75.6 351.12 C76.6 349.12 76.6 349.12 79.6 348.12 C79.93 347.46 80.26 346.8 80.6 346.12 C81.6 344.12 81.6 344.12 84.6 343.12 C84.93 342.46 85.26 341.8 85.6 341.12 C86.6 339.12 86.6 339.12 89.6 338.12 C89.93 337.46 90.26 336.8 90.6 336.12 C91.6 334.12 91.6 334.12 94.6 333.12 C94.93 332.46 95.26 331.8 95.6 331.12 C96.6 329.12 96.6 329.12 99.6 328.12 C99.93 327.46 100.26 326.8 100.6 326.12 C101.6 324.12 101.6 324.12 104.6 323.12 C104.93 322.46 105.26 321.8 105.6 321.12 C106.6 319.12 106.6 319.12 109.6 318.12 C109.93 317.46 110.26 316.8 110.6 316.12 C111.6 314.12 111.6 314.12 114.6 313.12 C114.93 312.46 115.26 311.8 115.6 311.12 C116.6 309.12 116.6 309.12 119.6 308.12 C119.93 307.46 120.26 306.8 120.6 306.12 C121.6 304.12 121.6 304.12 124.6 303.12 C124.93 302.46 125.26 301.8 125.6 301.12 C126.6 299.12 126.6 299.12 129.6 298.12 C129.93 297.46 130.26 296.8 130.6 296.12 C131.6 294.12 131.6 294.12 134.6 293.12 C134.93 292.46 135.26 291.8 135.6 291.12 C136.6 289.12 136.6 289.12 139.6 288.12 C139.93 287.46 140.26 286.8 140.6 286.12 C141.6 284.12 141.6 284.12 144.6 283.12 C144.93 282.46 145.26 281.8 145.6 281.12 C146.6 279.12 146.6 279.12 149.6 278.12 C149.93 277.46 150.26 276.8 150.6 276.12 C151.6 274.12 151.6 274.12 154.6 273.12 C154.93 272.46 155.26 271.8 155.6 271.12 C156.6 269.12 156.6 269.12 159.6 268.12 C159.93 267.46 160.26 266.8 160.6 266.12 C161.6 264.12 161.6 264.12 164.6 263.12 C164.93 262.46 165.26 261.8 165.6 261.12 C166.6 259.12 166.6 259.12 169.6 258.12 C170.75 256.16 170.75 256.16 171.6 254.12 C172.6 253.12 172.6 253.12 175.1 253 C177.6 253.12 177.6 253.12 178.6 254.12 C178.75 257.09 178.83 260.04 178.88 263.01 C178.9 263.91 178.92 264.81 178.94 265.73 C179 268.61 179.05 271.49 179.1 274.37 C179.17 278.15 179.24 281.93 179.32 285.7 C179.34 287 179.34 287 179.36 288.33 C179.44 292.38 179.6 296.17 180.6 300.12 C181.59 300.45 182.58 300.78 183.6 301.12 C183.6 301.78 183.6 302.44 183.6 303.12 C184.26 303.12 184.92 303.12 185.6 303.12 C185.6 303.78 185.6 304.44 185.6 305.12 C186.59 305.45 187.58 305.78 188.6 306.12 C188.6 306.78 188.6 307.44 188.6 308.12 C189.23 308.12 189.85 308.12 190.5 308.12 C195.87 308.12 201.23 308.12 206.6 308.12 C206.93 307.13 207.26 306.14 207.6 305.12 C208.26 305.12 208.92 305.12 209.6 305.12 C209.6 304.46 209.6 303.8 209.6 303.12 C210.26 303.12 210.92 303.12 211.6 303.12 C211.93 302.13 212.26 301.14 212.6 300.12 C213.26 300.12 213.92 300.12 214.6 300.12 C214.6 299.46 214.6 298.8 214.6 298.12 C215.26 298.12 215.92 298.12 216.6 298.12 C216.6 263.8 216.6 229.48 216.6 194.12 C215.94 194.12 215.28 194.12 214.6 194.12 C214.6 192.47 214.6 190.82 214.6 189.12 C213.96 188.86 213.32 188.59 212.66 188.31 C210.6 187.12 210.6 187.12 209.6 184.12 C207.95 184.12 206.3 184.12 204.6 184.12 C204.6 183.46 204.6 182.8 204.6 182.12 C170.28 182.12 135.96 182.12 100.6 182.12 C100.6 182.78 100.6 183.44 100.6 184.12 C99.94 184.12 99.28 184.12 98.6 184.12 C98.27 185.11 97.94 186.1 97.6 187.12 C96.94 187.12 96.28 187.12 95.6 187.12 C95.6 187.78 95.6 188.44 95.6 189.12 C94.94 189.12 94.28 189.12 93.6 189.12 C93.27 190.11 92.94 191.1 92.6 192.12 C91.94 192.12 91.28 192.12 90.6 192.12 C90.6 198.06 90.6 204 90.6 210.12 C91.59 210.45 92.58 210.78 93.6 211.12 C93.6 211.78 93.6 212.44 93.6 213.12 C94.26 213.12 94.92 213.12 95.6 213.12 C95.6 213.78 95.6 214.44 95.6 215.12 C96.59 215.45 97.58 215.78 98.6 216.12 C98.6 216.78 98.6 217.44 98.6 218.12 C103.39 219.33 108.11 219.33 113.02 219.41 C114.37 219.43 114.37 219.43 115.75 219.46 C119.59 219.54 123.44 219.61 127.28 219.68 C130.09 219.73 132.9 219.79 135.71 219.84 C136.58 219.86 137.46 219.87 138.36 219.88 C144.49 220.01 144.49 220.01 145.6 221.12 C145.91 224.05 146.04 225.55 144.22 227.94 C142.6 229.12 142.6 229.12 140.6 229.12 C140.33 229.76 140.06 230.4 139.79 231.06 C138.6 233.12 138.6 233.12 135.6 234.12 C135.27 234.78 134.94 235.44 134.6 236.12 C134.27 236.78 133.94 237.44 133.6 238.12 C132.61 238.45 131.62 238.78 130.6 239.12 C130.27 239.78 129.94 240.44 129.6 241.12 C129.27 241.78 128.94 242.44 128.6 243.12 C127.61 243.45 126.62 243.78 125.6 244.12 C125.27 244.78 124.94 245.44 124.6 246.12 C124.27 246.78 123.94 247.44 123.6 248.12 C122.61 248.45 121.62 248.78 120.6 249.12 C120.27 249.78 119.94 250.44 119.6 251.12 C119.27 251.78 118.94 252.44 118.6 253.12 C117.61 253.45 116.62 253.78 115.6 254.12 C115.27 254.78 114.94 255.44 114.6 256.12 C114.27 256.78 113.94 257.44 113.6 258.12 C112.61 258.45 111.62 258.78 110.6 259.12 C110.27 259.78 109.94 260.44 109.6 261.12 C109.27 261.78 108.94 262.44 108.6 263.12 C107.61 263.45 106.62 263.78 105.6 264.12 C105.27 264.78 104.94 265.44 104.6 266.12 C104.27 266.78 103.94 267.44 103.6 268.12 C102.61 268.45 101.62 268.78 100.6 269.12 C100.27 269.78 99.94 270.44 99.6 271.12 C99.27 271.78 98.94 272.44 98.6 273.12 C97.61 273.45 96.62 273.78 95.6 274.12 C95.27 274.78 94.94 275.44 94.6 276.12 C94.27 276.78 93.94 277.44 93.6 278.12 C92.61 278.45 91.62 278.78 90.6 279.12 C90.27 279.78 89.94 280.44 89.6 281.12 C89.27 281.78 88.94 282.44 88.6 283.12 C87.61 283.45 86.62 283.78 85.6 284.12 C85.27 284.78 84.94 285.44 84.6 286.12 C84.27 286.78 83.94 287.44 83.6 288.12 C82.61 288.45 81.62 288.78 80.6 289.12 C80.27 289.78 79.94 290.44 79.6 291.12 C79.27 291.78 78.94 292.44 78.6 293.12 C77.61 293.45 76.62 293.78 75.6 294.12 C75.27 294.78 74.94 295.44 74.6 296.12 C74.27 296.78 73.94 297.44 73.6 298.12 C72.61 298.45 71.62 298.78 70.6 299.12 C70.27 299.78 69.94 300.44 69.6 301.12 C69.27 301.78 68.94 302.44 68.6 303.12 C67.61 303.45 66.62 303.78 65.6 304.12 C65.27 304.78 64.94 305.44 64.6 306.12 C64.27 306.78 63.94 307.44 63.6 308.12 C62.61 308.45 61.62 308.78 60.6 309.12 C60.27 309.78 59.94 310.44 59.6 311.12 C59.27 311.78 58.94 312.44 58.6 313.12 C57.61 313.45 56.62 313.78 55.6 314.12 C55.27 314.78 54.94 315.44 54.6 316.12 C54.27 316.78 53.94 317.44 53.6 318.12 C52.61 318.45 51.62 318.78 50.6 319.12 C50.27 319.78 49.94 320.44 49.6 321.12 C49.27 321.78 48.94 322.44 48.6 323.12 C47.61 323.45 46.62 323.78 45.6 324.12 C45.27 324.78 44.94 325.44 44.6 326.12 C44.27 326.78 43.94 327.44 43.6 328.12 C42.61 328.45 41.62 328.78 40.6 329.12 C40.27 329.78 39.94 330.44 39.6 331.12 C39.27 331.78 38.94 332.44 38.6 333.12 C37.61 333.45 36.62 333.78 35.6 334.12 C35.27 334.78 34.94 335.44 34.6 336.12 C34.27 336.78 33.94 337.44 33.6 338.12 C32.61 338.45 31.62 338.78 30.6 339.12 C30.27 339.78 29.94 340.44 29.6 341.12 C29.27 341.78 28.94 342.44 28.6 343.12 C27.61 343.45 26.62 343.78 25.6 344.12 C25.27 344.78 24.94 345.44 24.6 346.12 C24.27 346.78 23.94 347.44 23.6 348.12 C22.61 348.45 21.62 348.78 20.6 349.12 C20.27 349.78 19.94 350.44 19.6 351.12 C19.27 351.78 18.94 352.44 18.6 353.12 C17.61 353.45 16.62 353.78 15.6 354.12 C15.27 354.78 14.94 355.44 14.6 356.12 C14.27 356.78 13.94 357.44 13.6 358.12 C12.61 358.45 11.62 358.78 10.6 359.12 C10.27 359.78 9.94 360.44 9.6 361.12 C9.27 361.78 8.94 362.44 8.6 363.12 C7.61 363.45 6.62 363.78 5.6 364.12 C5.27 364.78 4.94 365.44 4.6 366.12 C4.27 366.78 3.94 367.44 3.6 368.12 C2.61 368.45 1.62 368.78 0.6 369.12 C0.27 369.78 -0.06 370.44 -0.4 371.12 C-0.73 371.78 -1.06 372.44 -1.4 373.12 C-2.39 373.45 -3.38 373.78 -4.4 374.12 C-5.55 376.09 -5.55 376.09 -6.4 378.12 C-8.3 380.02 -11.06 379.25 -13.59 379.26 C-14.89 379.26 -14.89 379.26 -16.21 379.26 C-17.54 379.26 -17.54 379.26 -18.89 379.26 C-20.76 379.26 -22.64 379.26 -24.51 379.25 C-27.39 379.25 -30.27 379.25 -33.14 379.26 C-34.96 379.26 -36.77 379.26 -38.59 379.26 C-39.45 379.26 -40.32 379.26 -41.21 379.26 C-47.29 379.24 -47.29 379.24 -48.4 378.12 C-48.5 376.36 -48.53 374.59 -48.53 372.82 C-48.53 371.66 -48.53 370.5 -48.53 369.31 C-48.53 368.02 -48.53 366.73 -48.53 365.41 C-48.53 364.04 -48.53 362.67 -48.53 361.3 C-48.54 357.52 -48.53 353.74 -48.53 349.95 C-48.53 345.88 -48.53 341.81 -48.54 337.74 C-48.54 329.76 -48.54 321.78 -48.54 313.8 C-48.53 307.31 -48.53 300.83 -48.53 294.34 C-48.53 293.42 -48.53 292.5 -48.53 291.55 C-48.54 289.68 -48.54 287.81 -48.54 285.94 C-48.54 268.38 -48.54 250.81 -48.53 233.25 C-48.53 218.16 -48.53 203.08 -48.53 187.99 C-48.54 170.49 -48.54 152.99 -48.54 135.5 C-48.53 133.63 -48.53 131.77 -48.53 129.9 C-48.53 128.99 -48.53 128.07 -48.53 127.13 C-48.53 120.64 -48.53 114.16 -48.54 107.68 C-48.54 99.79 -48.54 91.9 -48.53 84.01 C-48.53 79.98 -48.53 75.95 -48.53 71.92 C-48.54 68.23 -48.53 64.55 -48.53 60.87 C-48.53 58.89 -48.53 56.91 -48.53 54.94 C-48.53 53.78 -48.53 52.62 -48.53 51.43 C-48.53 50.42 -48.53 49.41 -48.53 48.38 C-48.4 46.12 -48.4 46.12 -47.4 45.12 C-45.07 45.08 -42.73 45.08 -40.4 45.12 C-40.4 44.46 -40.4 43.8 -40.4 43.12 C-37.1 43.12 -33.8 43.12 -30.4 43.12 C-30.07 42.13 -29.74 41.14 -29.4 40.12 C-28.08 40.12 -26.76 40.12 -25.4 40.12 C-25.4 39.46 -25.4 38.8 -25.4 38.12 C-23.75 38.12 -22.1 38.12 -20.4 38.12 C-20.13 37.48 -19.86 36.85 -19.59 36.19 C-18.4 34.12 -18.4 34.12 -15.4 33.12 C-14.91 32.13 -14.91 32.13 -14.4 31.12 C-13.4 29.12 -13.4 29.12 -10.4 28.12 C-10.4 26.47 -10.4 24.82 -10.4 23.12 C-9.74 23.12 -9.08 23.12 -8.4 23.12 C-8.07 21.47 -7.74 19.82 -7.4 18.12 C-6.74 18.12 -6.08 18.12 -5.4 18.12 C-5.4 16.47 -5.4 14.82 -5.4 13.12 C-4.74 13.12 -4.08 13.12 -3.4 13.12 C-3.41 12.27 -3.42 11.41 -3.44 10.53 C-3.44 9.43 -3.45 8.32 -3.46 7.19 C-3.47 6.08 -3.49 4.98 -3.5 3.85 C-3.37 0.17 -3.37 0.17 0 0 Z " fill="#002269" transform="translate(817.4004688858986,63.875801503658295)"/>
<path d="M0 0 C45.21 -0.02 90.42 -0.04 135.62 -0.05 C140.95 -0.05 146.29 -0.05 151.62 -0.05 C152.68 -0.06 153.74 -0.06 154.83 -0.06 C172.04 -0.06 189.25 -0.07 206.46 -0.08 C224.11 -0.09 241.75 -0.09 259.4 -0.09 C270.3 -0.1 281.19 -0.1 292.09 -0.11 C299.55 -0.11 307.01 -0.11 314.48 -0.11 C318.79 -0.11 323.1 -0.11 327.41 -0.12 C331.35 -0.12 335.29 -0.12 339.24 -0.12 C340.67 -0.12 342.1 -0.12 343.53 -0.12 C345.47 -0.13 347.4 -0.13 349.33 -0.12 C350.41 -0.12 351.49 -0.12 352.6 -0.12 C355 0 355 0 356 1 C356.07 3.02 356.08 5.04 356.06 7.06 C356.05 8.17 356.04 9.27 356.04 10.41 C356.02 11.69 356.02 11.69 356 13 C356.66 13 357.32 13 358 13 C358 14.65 358 16.3 358 18 C358.99 18.33 359.98 18.66 361 19 C361 20.32 361 21.64 361 23 C361.66 23 362.32 23 363 23 C363 24.65 363 26.3 363 28 C363.64 28.27 364.28 28.54 364.94 28.81 C367 30 367 30 368 33 C368.66 33.33 369.32 33.66 370 34 C370.66 34.33 371.32 34.66 372 35 C372.33 35.99 372.66 36.98 373 38 C374.65 38 376.3 38 378 38 C378 38.66 378 39.32 378 40 C379.65 40.33 381.3 40.66 383 41 C383 41.66 383 42.32 383 43 C386.3 43 389.6 43 393 43 C393 43.66 393 44.32 393 45 C394.7 44.97 394.7 44.97 396.44 44.94 C400 45 400 45 401 46 C401.1 47.77 401.13 49.54 401.13 51.31 C401.13 53.04 401.13 53.04 401.13 54.81 C401.13 56.75 401.13 56.75 401.13 58.72 C401.13 60.09 401.13 61.46 401.13 62.83 C401.14 66.61 401.13 70.39 401.13 74.17 C401.13 78.24 401.13 82.31 401.13 86.38 C401.14 94.36 401.14 102.35 401.14 110.33 C401.13 116.81 401.13 123.3 401.13 129.78 C401.13 130.7 401.13 131.62 401.13 132.57 C401.13 134.44 401.13 136.31 401.14 138.18 C401.14 155.75 401.13 173.31 401.13 190.87 C401.12 205.96 401.13 221.05 401.13 236.13 C401.14 253.63 401.14 271.13 401.13 288.63 C401.13 290.49 401.13 292.36 401.13 294.22 C401.13 295.14 401.13 296.05 401.13 297 C401.13 303.48 401.13 309.96 401.14 316.44 C401.14 324.33 401.14 332.22 401.13 340.11 C401.13 344.14 401.13 348.18 401.13 352.21 C401.14 355.89 401.13 359.57 401.13 363.26 C401.13 365.23 401.13 367.21 401.13 369.19 C401.13 370.34 401.13 371.5 401.13 372.69 C401.13 373.7 401.13 374.71 401.13 375.75 C401 378 401 378 400 379 C397.08 379.13 394.18 379.19 391.26 379.2 C390.38 379.21 389.5 379.21 388.59 379.22 C386.73 379.23 384.86 379.24 383 379.24 C380.14 379.25 377.29 379.28 374.43 379.31 C372.63 379.32 370.82 379.32 369.01 379.33 C368.15 379.34 367.3 379.35 366.41 379.37 C365.62 379.36 364.82 379.36 364 379.36 C363.3 379.36 362.59 379.36 361.87 379.37 C359.42 378.89 358.52 377.94 357 376 C357 375.34 357 374.68 357 374 C356.36 373.73 355.72 373.46 355.06 373.19 C353 372 353 372 352 369 C351.34 368.67 350.68 368.34 350 368 C348 367 348 367 347 364 C346.34 363.67 345.68 363.34 345 363 C343 362 343 362 342 359 C341.34 358.67 340.68 358.34 340 358 C338 357 338 357 337 354 C336.34 353.67 335.68 353.34 335 353 C333 352 333 352 332 349 C331.34 348.67 330.68 348.34 330 348 C328 347 328 347 327 344 C326.34 343.67 325.68 343.34 325 343 C323 342 323 342 322 339 C321.34 338.67 320.68 338.34 320 338 C318 337 318 337 317 334 C316.34 333.67 315.68 333.34 315 333 C313 332 313 332 312 329 C311.34 328.67 310.68 328.34 310 328 C308 327 308 327 307 324 C306.34 323.67 305.68 323.34 305 323 C303 322 303 322 302 319 C301.34 318.67 300.68 318.34 300 318 C298 317 298 317 297 314 C296.34 313.67 295.68 313.34 295 313 C293 312 293 312 292 309 C291.34 308.67 290.68 308.34 290 308 C288 307 288 307 287 304 C286.34 303.67 285.68 303.34 285 303 C283 302 283 302 282 299 C281.34 298.67 280.68 298.34 280 298 C278 297 278 297 277 294 C276.34 293.67 275.68 293.34 275 293 C273 292 273 292 272 289 C271.34 288.67 270.68 288.34 270 288 C268 287 268 287 267 284 C266.34 283.67 265.68 283.34 265 283 C263 282 263 282 262 279 C261.34 278.67 260.68 278.34 260 278 C258 277 258 277 257 274 C256.34 273.67 255.68 273.34 255 273 C253 272 253 272 252 269 C251.34 268.67 250.68 268.34 250 268 C248 267 248 267 247 264 C246.34 263.67 245.68 263.34 245 263 C243 262 243 262 242 259 C241.34 258.67 240.68 258.34 240 258 C238 257 238 257 237 254 C236.34 253.67 235.68 253.34 235 253 C233 252 233 252 232 249 C231.34 248.67 230.68 248.34 230 248 C228 247 228 247 227 244 C226.34 243.67 225.68 243.34 225 243 C223 242 223 242 222 239 C221.34 238.67 220.68 238.34 220 238 C218 237 218 237 217 234 C216.34 233.67 215.68 233.34 215 233 C213 232 213 232 212 229 C210.03 227.85 210.03 227.85 208 227 C207 226 207 226 206.88 223.5 C207 221 207 221 208 220 C210.97 219.85 213.92 219.76 216.89 219.72 C217.79 219.7 218.68 219.68 219.61 219.66 C222.49 219.6 225.37 219.55 228.25 219.5 C232.03 219.43 235.8 219.36 239.58 219.28 C240.88 219.26 240.88 219.26 242.21 219.24 C246.26 219.16 250.05 219 254 218 C254.33 217.01 254.66 216.02 255 215 C255.66 215 256.32 215 257 215 C257 214.34 257 213.68 257 213 C257.66 213 258.32 213 259 213 C259.33 212.01 259.66 211.02 260 210 C260.66 210 261.32 210 262 210 C262 204.06 262 198.12 262 192 C261.01 191.67 260.02 191.34 259 191 C259 190.34 259 189.68 259 189 C258.34 189 257.68 189 257 189 C257 188.34 257 187.68 257 187 C256.01 186.67 255.02 186.34 254 186 C254 185.34 254 184.68 254 184 C253.34 184 252.68 184 252 184 C252 183.34 252 182.68 252 182 C217.68 182 183.36 182 148 182 C148 182.66 148 183.32 148 184 C146.35 184 144.7 184 143 184 C142.73 184.64 142.46 185.28 142.19 185.94 C141 188 141 188 138 189 C138 190.65 138 192.3 138 194 C137.34 194 136.68 194 136 194 C136 228.32 136 262.64 136 298 C136.66 298 137.32 298 138 298 C138 298.66 138 299.32 138 300 C138.99 300.33 139.98 300.66 141 301 C141 301.66 141 302.32 141 303 C141.66 303 142.32 303 143 303 C143 303.66 143 304.32 143 305 C143.99 305.33 144.98 305.66 146 306 C146 306.66 146 307.32 146 308 C147.11 308 148.23 308 149.38 308 C154.25 308 159.12 308 164 308 C164.33 307.01 164.66 306.02 165 305 C165.66 305 166.32 305 167 305 C167 304.34 167 303.68 167 303 C167.66 303 168.32 303 169 303 C169.33 302.01 169.66 301.02 170 300 C170.66 300 171.32 300 172 300 C173.21 295.21 173.2 290.49 173.28 285.58 C173.31 284.23 173.31 284.23 173.34 282.85 C173.42 279.01 173.48 275.16 173.55 271.32 C173.6 268.51 173.66 265.7 173.72 262.89 C173.73 262.01 173.75 261.14 173.76 260.24 C173.89 254.11 173.89 254.11 175 253 C177.93 252.69 179.43 252.56 181.81 254.38 C183 256 183 256 183 258 C183.64 258.27 184.28 258.54 184.94 258.81 C187 260 187 260 188 263 C188.66 263.33 189.32 263.66 190 264 C190.66 264.33 191.32 264.66 192 265 C192.33 265.99 192.66 266.98 193 268 C193.66 268.33 194.32 268.66 195 269 C195.66 269.33 196.32 269.66 197 270 C197.33 270.99 197.66 271.98 198 273 C198.66 273.33 199.32 273.66 200 274 C200.66 274.33 201.32 274.66 202 275 C202.33 275.99 202.66 276.98 203 278 C203.66 278.33 204.32 278.66 205 279 C205.66 279.33 206.32 279.66 207 280 C207.33 280.99 207.66 281.98 208 283 C208.66 283.33 209.32 283.66 210 284 C210.66 284.33 211.32 284.66 212 285 C212.33 285.99 212.66 286.98 213 288 C213.66 288.33 214.32 288.66 215 289 C215.66 289.33 216.32 289.66 217 290 C217.33 290.99 217.66 291.98 218 293 C218.66 293.33 219.32 293.66 220 294 C220.66 294.33 221.32 294.66 222 295 C222.33 295.99 222.66 296.98 223 298 C223.66 298.33 224.32 298.66 225 299 C225.66 299.33 226.32 299.66 227 300 C227.33 300.99 227.66 301.98 228 303 C228.66 303.33 229.32 303.66 230 304 C230.66 304.33 231.32 304.66 232 305 C232.33 305.99 232.66 306.98 233 308 C233.66 308.33 234.32 308.66 235 309 C235.66 309.33 236.32 309.66 237 310 C237.33 310.99 237.66 311.98 238 313 C238.66 313.33 239.32 313.66 240 314 C240.66 314.33 241.32 314.66 242 315 C242.33 315.99 242.66 316.98 243 318 C243.66 318.33 244.32 318.66 245 319 C245.66 319.33 246.32 319.66 247 320 C247.33 320.99 247.66 321.98 248 323 C248.66 323.33 249.32 323.66 250 324 C250.66 324.33 251.32 324.66 252 325 C252.33 325.99 252.66 326.98 253 328 C253.66 328.33 254.32 328.66 255 329 C255.66 329.33 256.32 329.66 257 330 C257.33 330.99 257.66 331.98 258 333 C258.66 333.33 259.32 333.66 260 334 C260.66 334.33 261.32 334.66 262 335 C262.33 335.99 262.66 336.98 263 338 C263.66 338.33 264.32 338.66 265 339 C265.66 339.33 266.32 339.66 267 340 C267.33 340.99 267.66 341.98 268 343 C268.66 343.33 269.32 343.66 270 344 C270.66 344.33 271.32 344.66 272 345 C272.33 345.99 272.66 346.98 273 348 C273.66 348.33 274.32 348.66 275 349 C275.66 349.33 276.32 349.66 277 350 C277.33 350.99 277.66 351.98 278 353 C278.66 353.33 279.32 353.66 280 354 C280.66 354.33 281.32 354.66 282 355 C282.33 355.99 282.66 356.98 283 358 C283.66 358.33 284.32 358.66 285 359 C285.66 359.33 286.32 359.66 287 360 C287.33 360.99 287.66 361.98 288 363 C288.66 363.33 289.32 363.66 290 364 C290.66 364.33 291.32 364.66 292 365 C292.33 365.99 292.66 366.98 293 368 C293.66 368.33 294.32 368.66 295 369 C295.66 369.33 296.32 369.66 297 370 C297.33 370.99 297.66 371.98 298 373 C298.66 373.33 299.32 373.66 300 374 C300.66 374.33 301.32 374.66 302 375 C302.33 375.99 302.66 376.98 303 378 C303.66 378.33 304.32 378.66 305 379 C305.66 379.33 306.32 379.66 307 380 C307.33 380.99 307.66 381.98 308 383 C308.66 383.33 309.32 383.66 310 384 C310.66 384.33 311.32 384.66 312 385 C312.33 385.99 312.66 386.98 313 388 C313.66 388.33 314.32 388.66 315 389 C315.66 389.33 316.32 389.66 317 390 C317.33 390.99 317.66 391.98 318 393 C318.66 393.33 319.32 393.66 320 394 C320.66 394.33 321.32 394.66 322 395 C322.33 395.99 322.66 396.98 323 398 C323.66 398.33 324.32 398.66 325 399 C325.66 399.33 326.32 399.66 327 400 C327.33 400.99 327.66 401.98 328 403 C329.97 404.15 329.97 404.15 332 405 C333.9 406.9 333.13 409.66 333.14 412.19 C333.14 413.49 333.14 413.49 333.13 414.81 C333.13 416.14 333.13 416.14 333.14 417.49 C333.14 419.36 333.13 421.24 333.13 423.11 C333.13 425.99 333.13 428.86 333.14 431.74 C333.14 433.56 333.13 435.37 333.13 437.19 C333.13 438.05 333.14 438.92 333.14 439.81 C333.11 445.89 333.11 445.89 332 447 C330.23 447.1 328.46 447.13 326.69 447.13 C324.96 447.13 324.96 447.13 323.19 447.13 C321.9 447.13 320.61 447.13 319.28 447.13 C317.91 447.13 316.54 447.13 315.17 447.13 C311.39 447.14 307.61 447.13 303.83 447.13 C299.76 447.13 295.69 447.13 291.62 447.13 C283.64 447.14 275.65 447.14 267.67 447.14 C261.19 447.13 254.7 447.13 248.22 447.13 C246.84 447.13 246.84 447.13 245.43 447.13 C243.56 447.13 241.69 447.13 239.82 447.14 C222.25 447.14 204.69 447.13 187.13 447.13 C172.04 447.12 156.95 447.13 141.87 447.13 C124.37 447.14 106.87 447.14 89.37 447.13 C87.51 447.13 85.64 447.13 83.78 447.13 C82.86 447.13 81.95 447.13 81 447.13 C74.52 447.13 68.04 447.13 61.56 447.14 C53.67 447.14 45.78 447.14 37.89 447.13 C33.86 447.13 29.82 447.13 25.79 447.13 C22.11 447.14 18.43 447.13 14.74 447.13 C12.77 447.13 10.79 447.13 8.81 447.13 C7.66 447.13 6.5 447.13 5.31 447.13 C3.79 447.13 3.79 447.13 2.25 447.13 C-0 447 -0 447 -1 446 C-1.04 443.67 -1.04 441.33 -1 439 C-1.66 439 -2.32 439 -3 439 C-3 435.7 -3 432.4 -3 429 C-3.99 428.67 -4.98 428.34 -6 428 C-6 426.68 -6 425.36 -6 424 C-6.66 424 -7.32 424 -8 424 C-8 422.35 -8 420.7 -8 419 C-8.64 418.73 -9.28 418.46 -9.94 418.19 C-12 417 -12 417 -13 414 C-13.66 413.67 -14.32 413.34 -15 413 C-17 412 -17 412 -18 409 C-19.65 409 -21.3 409 -23 409 C-23 408.34 -23 407.68 -23 407 C-24.65 406.67 -26.3 406.34 -28 406 C-28 405.34 -28 404.68 -28 404 C-29.65 404 -31.3 404 -33 404 C-33 403.34 -33 402.68 -33 402 C-33.85 402.01 -34.71 402.02 -35.59 402.04 C-37.25 402.05 -37.25 402.05 -38.94 402.06 C-40.04 402.07 -41.14 402.09 -42.28 402.1 C-45 402 -45 402 -46 401 C-46.1 399.11 -46.12 397.22 -46.12 395.33 C-46.13 394.09 -46.13 392.86 -46.13 391.58 C-46.13 390.19 -46.12 388.79 -46.12 387.4 C-46.12 385.94 -46.12 384.47 -46.12 383.01 C-46.13 378.96 -46.12 374.92 -46.12 370.87 C-46.11 366.52 -46.11 362.16 -46.11 357.81 C-46.11 350.25 -46.11 342.7 -46.11 335.15 C-46.1 324.23 -46.1 313.31 -46.09 302.39 C-46.09 284.68 -46.08 266.97 -46.08 249.25 C-46.07 232.04 -46.06 214.83 -46.05 197.62 C-46.05 196.56 -46.05 195.5 -46.05 194.4 C-46.05 189.09 -46.05 183.77 -46.05 178.45 C-46.04 134.3 -46.02 90.15 -46 46 C-42.15 43.99 -39.5 42.61 -35.12 42.81 C-33.95 42.85 -33.95 42.85 -32.76 42.89 C-32.18 42.93 -31.6 42.96 -31 43 C-30.67 42.01 -30.34 41.02 -30 40 C-26.68 38.29 -24.82 38 -21 38 C-20.67 37.01 -20.34 36.02 -20 35 C-19.34 35 -18.68 35 -18 35 C-18 34.34 -18 33.68 -18 33 C-17.34 33 -16.68 33 -16 33 C-15.67 32.01 -15.34 31.02 -15 30 C-14.34 30 -13.68 30 -13 30 C-13 29.34 -13 28.68 -13 28 C-12.34 28 -11.68 28 -11 28 C-10.5 26.52 -10.5 26.52 -10 25 C-9.34 25 -8.68 25 -8 25 C-7.81 23.92 -7.81 23.92 -7.62 22.81 C-7.01 20.04 -6.12 17.6 -5 15 C-4.34 15 -3.68 15 -3 15 C-3.05 14.13 -3.05 14.13 -3.11 13.24 C-3.13 12.46 -3.16 11.68 -3.19 10.88 C-3.24 9.73 -3.24 9.73 -3.29 8.55 C-2.92 5.27 -1.52 2.91 0 0 Z " fill="#002269" transform="translate(110,64)"/>
<path d="M0 0 C1.74 -0 1.74 -0 3.51 -0.01 C4.8 -0.01 6.09 -0 7.41 -0 C8.78 -0 10.15 -0 11.52 -0.01 C15.3 -0.01 19.08 -0.01 22.86 -0 C26.94 -0 31.01 -0.01 35.08 -0.01 C43.06 -0.01 51.04 -0.01 59.02 -0.01 C65.51 -0.01 71.99 -0.01 78.48 -0.01 C79.86 -0.01 79.86 -0.01 81.27 -0.01 C83.14 -0.01 85.01 -0.01 86.88 -0.01 C104.44 -0.01 122 -0.01 139.57 -0 C154.65 0 169.74 0 184.83 -0 C202.33 -0.01 219.82 -0.01 237.32 -0.01 C239.19 -0.01 241.05 -0.01 242.91 -0.01 C243.83 -0.01 244.75 -0.01 245.69 -0.01 C252.17 -0.01 258.65 -0.01 265.13 -0.01 C273.03 -0.01 280.92 -0.01 288.81 -0.01 C292.84 -0 296.87 -0 300.9 -0.01 C304.58 -0.01 308.27 -0.01 311.95 -0 C313.93 -0 315.9 -0 317.88 -0.01 C319.62 -0 319.62 -0 321.39 0 C322.4 0 323.4 0 324.44 0 C326.69 0.13 326.69 0.13 327.69 1.13 C327.82 4.05 327.88 6.94 327.9 9.87 C327.9 10.75 327.91 11.63 327.92 12.53 C327.92 14.4 327.93 16.26 327.94 18.13 C327.94 20.98 327.98 23.84 328.01 26.69 C328.01 28.5 328.02 30.31 328.02 32.12 C328.04 32.97 328.05 33.83 328.06 34.71 C328.06 35.51 328.05 36.31 328.05 37.13 C328.05 37.83 328.06 38.53 328.06 39.25 C327.58 41.7 326.64 42.61 324.69 44.13 C324.03 44.13 323.37 44.13 322.69 44.13 C322.43 44.77 322.16 45.4 321.88 46.06 C320.69 48.13 320.69 48.13 317.69 49.13 C317.36 49.79 317.03 50.45 316.69 51.13 C316.36 51.79 316.03 52.45 315.69 53.13 C314.21 53.62 314.21 53.62 312.69 54.13 C312.36 54.79 312.03 55.45 311.69 56.13 C311.36 56.79 311.03 57.45 310.69 58.13 C309.21 58.62 309.21 58.62 307.69 59.13 C307.36 59.79 307.03 60.45 306.69 61.13 C306.36 61.79 306.03 62.45 305.69 63.13 C304.21 63.62 304.21 63.62 302.69 64.13 C302.36 64.79 302.03 65.45 301.69 66.13 C301.36 66.79 301.03 67.45 300.69 68.13 C299.21 68.62 299.21 68.62 297.69 69.13 C297.36 69.79 297.03 70.45 296.69 71.13 C296.36 71.79 296.03 72.45 295.69 73.13 C294.21 73.62 294.21 73.62 292.69 74.13 C292.36 74.79 292.03 75.45 291.69 76.13 C291.36 76.79 291.03 77.45 290.69 78.13 C289.21 78.62 289.21 78.62 287.69 79.13 C287.36 79.79 287.03 80.45 286.69 81.13 C286.36 81.79 286.03 82.45 285.69 83.13 C284.21 83.62 284.21 83.62 282.69 84.13 C282.36 84.79 282.03 85.45 281.69 86.13 C281.36 86.79 281.03 87.45 280.69 88.13 C279.21 88.62 279.21 88.62 277.69 89.13 C277.36 89.79 277.03 90.45 276.69 91.13 C276.36 91.79 276.03 92.45 275.69 93.13 C274.21 93.62 274.21 93.62 272.69 94.13 C272.36 94.79 272.03 95.45 271.69 96.13 C271.36 96.79 271.03 97.45 270.69 98.13 C269.21 98.62 269.21 98.62 267.69 99.13 C267.36 99.79 267.03 100.45 266.69 101.13 C266.36 101.79 266.03 102.45 265.69 103.13 C264.21 103.62 264.21 103.62 262.69 104.13 C262.36 104.79 262.03 105.45 261.69 106.13 C261.36 106.79 261.03 107.45 260.69 108.13 C259.21 108.62 259.21 108.62 257.69 109.13 C257.36 109.79 257.03 110.45 256.69 111.13 C256.36 111.79 256.03 112.45 255.69 113.13 C254.21 113.62 254.21 113.62 252.69 114.13 C252.36 114.79 252.03 115.45 251.69 116.13 C251.36 116.79 251.03 117.45 250.69 118.13 C249.21 118.62 249.21 118.62 247.69 119.13 C247.36 119.79 247.03 120.45 246.69 121.13 C246.36 121.79 246.03 122.45 245.69 123.13 C244.21 123.62 244.21 123.62 242.69 124.13 C242.36 124.79 242.03 125.45 241.69 126.13 C241.36 126.79 241.03 127.45 240.69 128.13 C239.7 128.46 238.71 128.79 237.69 129.13 C237.36 129.79 237.03 130.45 236.69 131.13 C236.36 131.79 236.03 132.45 235.69 133.13 C234.7 133.46 233.71 133.79 232.69 134.13 C232.36 134.79 232.03 135.45 231.69 136.13 C231.36 136.79 231.03 137.45 230.69 138.13 C229.7 138.46 228.71 138.79 227.69 139.13 C227.36 139.79 227.03 140.45 226.69 141.13 C226.36 141.79 226.03 142.45 225.69 143.13 C224.7 143.46 223.71 143.79 222.69 144.13 C222.36 144.79 222.03 145.45 221.69 146.13 C221.36 146.79 221.03 147.45 220.69 148.13 C219.7 148.46 218.71 148.79 217.69 149.13 C217.36 149.79 217.03 150.45 216.69 151.13 C216.36 151.79 216.03 152.45 215.69 153.13 C214.7 153.46 213.71 153.79 212.69 154.13 C212.36 154.79 212.03 155.45 211.69 156.13 C211.36 156.79 211.03 157.45 210.69 158.13 C209.7 158.46 208.71 158.79 207.69 159.13 C207.36 159.79 207.03 160.45 206.69 161.13 C206.36 161.79 206.03 162.45 205.69 163.13 C204.7 163.46 203.71 163.79 202.69 164.13 C202.36 164.79 202.03 165.45 201.69 166.13 C201.36 166.79 201.03 167.45 200.69 168.13 C199.7 168.46 198.71 168.79 197.69 169.13 C197.36 169.79 197.03 170.45 196.69 171.13 C196.36 171.79 196.03 172.45 195.69 173.13 C194.7 173.46 193.71 173.79 192.69 174.13 C192.36 174.79 192.03 175.45 191.69 176.13 C191.36 176.79 191.03 177.45 190.69 178.13 C189.7 178.46 188.71 178.79 187.69 179.13 C187.36 179.79 187.03 180.45 186.69 181.13 C186.36 181.79 186.03 182.45 185.69 183.13 C184.7 183.46 183.71 183.79 182.69 184.13 C182.36 184.79 182.03 185.45 181.69 186.13 C181.36 186.79 181.03 187.45 180.69 188.13 C179.7 188.46 178.71 188.79 177.69 189.13 C176.54 191.09 176.54 191.09 175.69 193.13 C174.69 194.13 174.69 194.13 172.19 194.25 C169.69 194.13 169.69 194.13 168.69 193.13 C168.55 190.16 168.46 187.21 168.41 184.24 C168.4 183.34 168.38 182.44 168.36 181.52 C168.3 178.64 168.25 175.76 168.19 172.88 C168.13 169.1 168.05 165.32 167.98 161.55 C167.96 160.25 167.96 160.25 167.93 158.92 C167.85 154.87 167.69 151.08 166.69 147.13 C165.7 146.8 164.71 146.47 163.69 146.13 C163.69 145.47 163.69 144.81 163.69 144.13 C163.03 144.13 162.37 144.13 161.69 144.13 C161.69 143.47 161.69 142.81 161.69 142.13 C160.7 141.8 159.71 141.47 158.69 141.13 C158.69 140.47 158.69 139.81 158.69 139.13 C156.38 139.13 154.07 139.13 151.69 139.13 C151.69 138.47 151.69 137.81 151.69 137.13 C150.37 137.13 149.05 137.13 147.69 137.13 C147.69 137.79 147.69 138.45 147.69 139.13 C145.38 139.13 143.07 139.13 140.69 139.13 C140.36 140.12 140.03 141.11 139.69 142.13 C139.03 142.13 138.37 142.13 137.69 142.13 C137.69 142.79 137.69 143.45 137.69 144.13 C137.03 144.13 136.37 144.13 135.69 144.13 C135.36 145.12 135.03 146.11 134.69 147.13 C134.03 147.13 133.37 147.13 132.69 147.13 C132.69 147.79 132.69 148.45 132.69 149.13 C132.03 149.13 131.37 149.13 130.69 149.13 C130.69 183.45 130.69 217.77 130.69 253.13 C131.35 253.13 132.01 253.13 132.69 253.13 C132.69 254.78 132.69 256.43 132.69 258.13 C133.33 258.39 133.97 258.66 134.63 258.94 C136.69 260.13 136.69 260.13 137.69 263.13 C139.34 263.13 140.99 263.13 142.69 263.13 C142.69 263.79 142.69 264.45 142.69 265.13 C177.01 265.13 211.33 265.13 246.69 265.13 C246.69 264.47 246.69 263.81 246.69 263.13 C247.35 263.13 248.01 263.13 248.69 263.13 C249.02 262.14 249.35 261.15 249.69 260.13 C250.35 260.13 251.01 260.13 251.69 260.13 C251.69 259.47 251.69 258.81 251.69 258.13 C252.35 258.13 253.01 258.13 253.69 258.13 C254.02 257.14 254.35 256.15 254.69 255.13 C255.35 255.13 256.01 255.13 256.69 255.13 C256.69 249.19 256.69 243.25 256.69 237.13 C255.7 236.8 254.71 236.47 253.69 236.13 C253.69 235.47 253.69 234.81 253.69 234.13 C253.03 234.13 252.37 234.13 251.69 234.13 C251.69 233.47 251.69 232.81 251.69 232.13 C250.7 231.8 249.71 231.47 248.69 231.13 C248.69 230.47 248.69 229.81 248.69 229.13 C243.9 227.92 239.18 227.92 234.27 227.84 C232.92 227.82 232.92 227.82 231.54 227.79 C227.7 227.71 223.86 227.64 220.01 227.57 C217.2 227.52 214.39 227.46 211.59 227.41 C210.27 227.39 210.27 227.39 208.93 227.37 C202.81 227.24 202.81 227.24 201.69 226.13 C201.39 223.2 201.26 221.7 203.07 219.31 C204.69 218.13 204.69 218.13 206.69 218.13 C206.96 217.49 207.23 216.85 207.51 216.19 C208.69 214.13 208.69 214.13 211.69 213.13 C212.02 212.47 212.35 211.81 212.69 211.13 C213.69 209.13 213.69 209.13 216.69 208.13 C217.02 207.47 217.35 206.81 217.69 206.13 C218.69 204.13 218.69 204.13 221.69 203.13 C222.02 202.47 222.35 201.81 222.69 201.13 C223.69 199.13 223.69 199.13 226.69 198.13 C227.02 197.47 227.35 196.81 227.69 196.13 C228.69 194.13 228.69 194.13 231.69 193.13 C232.02 192.47 232.35 191.81 232.69 191.13 C233.69 189.13 233.69 189.13 236.69 188.13 C237.02 187.47 237.35 186.81 237.69 186.13 C238.69 184.13 238.69 184.13 241.69 183.13 C242.02 182.47 242.35 181.81 242.69 181.13 C243.69 179.13 243.69 179.13 246.69 178.13 C247.02 177.47 247.35 176.81 247.69 176.13 C248.69 174.13 248.69 174.13 251.69 173.13 C252.02 172.47 252.35 171.81 252.69 171.13 C253.69 169.13 253.69 169.13 256.69 168.13 C257.02 167.47 257.35 166.81 257.69 166.13 C258.69 164.13 258.69 164.13 261.69 163.13 C262.02 162.47 262.35 161.81 262.69 161.13 C263.69 159.13 263.69 159.13 266.69 158.13 C267.02 157.47 267.35 156.81 267.69 156.13 C268.69 154.13 268.69 154.13 271.69 153.13 C272.02 152.47 272.35 151.81 272.69 151.13 C273.69 149.13 273.69 149.13 276.69 148.13 C277.02 147.47 277.35 146.81 277.69 146.13 C278.69 144.13 278.69 144.13 281.69 143.13 C282.02 142.47 282.35 141.81 282.69 141.13 C283.69 139.13 283.69 139.13 286.69 138.13 C287.02 137.47 287.35 136.81 287.69 136.13 C288.69 134.13 288.69 134.13 291.69 133.13 C292.02 132.47 292.35 131.81 292.69 131.13 C293.69 129.13 293.69 129.13 296.69 128.13 C297.02 127.47 297.35 126.81 297.69 126.13 C298.69 124.13 298.69 124.13 301.69 123.13 C302.02 122.47 302.35 121.81 302.69 121.13 C303.69 119.13 303.69 119.13 306.69 118.13 C307.02 117.47 307.35 116.81 307.69 116.13 C308.69 114.13 308.69 114.13 311.69 113.13 C312.02 112.47 312.35 111.81 312.69 111.13 C313.69 109.13 313.69 109.13 316.69 108.13 C317.02 107.47 317.35 106.81 317.69 106.13 C318.69 104.13 318.69 104.13 321.69 103.13 C322.02 102.47 322.35 101.81 322.69 101.13 C323.69 99.13 323.69 99.13 326.69 98.13 C327.02 97.47 327.35 96.81 327.69 96.13 C328.69 94.13 328.69 94.13 331.69 93.13 C332.02 92.47 332.35 91.81 332.69 91.13 C333.69 89.13 333.69 89.13 336.69 88.13 C337.02 87.47 337.35 86.81 337.69 86.13 C338.69 84.13 338.69 84.13 341.69 83.13 C342.02 82.47 342.35 81.81 342.69 81.13 C343.69 79.13 343.69 79.13 346.69 78.13 C347.02 77.47 347.35 76.81 347.69 76.13 C348.69 74.13 348.69 74.13 351.69 73.13 C352.84 71.16 352.84 71.16 353.69 69.13 C355.59 67.23 358.36 68 360.88 67.99 C362.18 67.99 362.18 67.99 363.51 67.99 C364.39 67.99 365.28 67.99 366.19 67.99 C368.06 67.99 369.93 67.99 371.81 68 C374.68 68 377.56 68 380.44 67.99 C382.25 67.99 384.07 67.99 385.88 67.99 C386.75 67.99 387.62 67.99 388.51 67.99 C394.58 68.01 394.58 68.01 395.69 69.13 C395.79 70.89 395.82 72.66 395.82 74.43 C395.82 76.17 395.82 76.17 395.83 77.94 C395.83 79.87 395.83 79.87 395.82 81.84 C395.82 83.21 395.82 84.58 395.83 85.95 C395.83 89.73 395.83 93.51 395.83 97.3 C395.82 101.37 395.83 105.44 395.83 109.51 C395.83 117.49 395.83 125.47 395.83 133.45 C395.83 139.94 395.83 146.42 395.83 152.91 C395.83 153.83 395.83 154.75 395.83 155.7 C395.83 157.57 395.83 159.44 395.83 161.31 C395.83 178.87 395.83 196.44 395.82 214 C395.82 229.09 395.82 244.17 395.83 259.26 C395.83 276.76 395.83 294.26 395.83 311.75 C395.83 313.62 395.83 315.48 395.83 317.35 C395.83 318.26 395.83 319.18 395.83 320.13 C395.83 326.61 395.83 333.09 395.83 339.57 C395.83 347.46 395.83 355.35 395.83 363.24 C395.83 367.27 395.82 371.3 395.83 375.33 C395.83 379.02 395.83 382.7 395.82 386.38 C395.82 388.36 395.83 390.34 395.83 392.31 C395.83 393.47 395.82 394.63 395.82 395.82 C395.82 396.83 395.82 397.84 395.82 398.87 C395.69 401.13 395.69 401.13 394.69 402.13 C392.36 402.17 390.03 402.17 387.69 402.13 C387.69 402.79 387.69 403.45 387.69 404.13 C384.39 404.13 381.09 404.13 377.69 404.13 C377.36 405.12 377.03 406.11 376.69 407.13 C375.37 407.13 374.05 407.13 372.69 407.13 C372.69 407.79 372.69 408.45 372.69 409.13 C371.04 409.13 369.39 409.13 367.69 409.13 C367.43 409.77 367.16 410.4 366.88 411.06 C365.69 413.13 365.69 413.13 362.69 414.13 C362.36 414.79 362.03 415.45 361.69 416.13 C361.36 416.79 361.03 417.45 360.69 418.13 C359.7 418.46 358.71 418.79 357.69 419.13 C357.69 420.78 357.69 422.43 357.69 424.13 C357.03 424.13 356.37 424.13 355.69 424.13 C355.36 425.78 355.03 427.43 354.69 429.13 C354.03 429.13 353.37 429.13 352.69 429.13 C352.69 430.78 352.69 432.43 352.69 434.13 C352.03 434.13 351.37 434.13 350.69 434.13 C350.71 434.98 350.72 435.84 350.73 436.72 C350.74 438.37 350.74 438.37 350.76 440.06 C350.77 441.17 350.78 442.27 350.79 443.4 C350.69 446.13 350.69 446.13 349.69 447.13 C347.81 447.22 345.92 447.25 344.03 447.25 C342.17 447.25 342.17 447.25 340.27 447.25 C338.88 447.25 337.49 447.25 336.1 447.25 C334.63 447.25 333.17 447.25 331.7 447.25 C327.66 447.25 323.61 447.25 319.57 447.24 C315.21 447.24 310.86 447.24 306.5 447.24 C298.95 447.24 291.4 447.24 283.84 447.23 C272.93 447.22 262.01 447.22 251.09 447.22 C233.37 447.22 215.66 447.21 197.95 447.2 C180.74 447.19 163.52 447.19 146.31 447.18 C145.25 447.18 144.19 447.18 143.1 447.18 C137.78 447.18 132.46 447.18 127.15 447.18 C83 447.17 38.85 447.15 -5.31 447.13 C-7.31 443.28 -8.69 440.63 -8.49 436.25 C-8.47 435.47 -8.44 434.69 -8.41 433.88 C-8.38 433.3 -8.34 432.72 -8.31 432.13 C-9.3 431.8 -10.29 431.47 -11.31 431.13 C-13.01 427.8 -13.31 425.94 -13.31 422.13 C-14.3 421.8 -15.29 421.47 -16.31 421.13 C-16.31 420.47 -16.31 419.81 -16.31 419.13 C-16.97 419.13 -17.63 419.13 -18.31 419.13 C-18.31 418.47 -18.31 417.81 -18.31 417.13 C-19.3 416.8 -20.29 416.47 -21.31 416.13 C-21.31 415.47 -21.31 414.81 -21.31 414.13 C-21.97 414.13 -22.63 414.13 -23.31 414.13 C-23.31 413.47 -23.31 412.81 -23.31 412.13 C-24.3 411.8 -25.29 411.47 -26.31 411.13 C-26.31 410.47 -26.31 409.81 -26.31 409.13 C-26.97 409.13 -27.63 409.13 -28.31 409.13 C-28.31 408.47 -28.31 407.81 -28.31 407.13 C-30.62 407.13 -32.93 407.13 -35.31 407.13 C-35.8 405.64 -35.8 405.64 -36.31 404.13 C-36.89 404.16 -37.47 404.2 -38.06 404.23 C-38.84 404.26 -39.63 404.29 -40.43 404.31 C-41.2 404.35 -41.96 404.38 -42.75 404.42 C-46.04 404.04 -48.39 402.65 -51.31 401.13 C-51.33 355.92 -51.35 310.71 -51.36 265.5 C-51.36 260.17 -51.36 254.84 -51.36 249.51 C-51.36 248.45 -51.36 247.39 -51.36 246.29 C-51.37 229.08 -51.37 211.87 -51.38 194.66 C-51.39 177.02 -51.4 159.37 -51.4 141.73 C-51.4 130.83 -51.41 119.93 -51.41 109.03 C-51.42 101.57 -51.42 94.11 -51.42 86.65 C-51.42 82.34 -51.42 78.03 -51.42 73.71 C-51.43 69.77 -51.43 65.83 -51.43 61.89 C-51.43 60.46 -51.43 59.03 -51.43 57.59 C-51.43 55.66 -51.43 53.73 -51.43 51.79 C-51.43 50.72 -51.43 49.64 -51.43 48.53 C-51.31 46.13 -51.31 46.13 -50.31 45.13 C-48.29 45.05 -46.26 45.04 -44.24 45.06 C-42.59 45.08 -42.59 45.08 -40.9 45.09 C-40.04 45.1 -39.19 45.11 -38.31 45.13 C-38.31 44.47 -38.31 43.81 -38.31 43.13 C-36.66 43.13 -35.01 43.13 -33.31 43.13 C-32.98 42.14 -32.65 41.15 -32.31 40.13 C-30.99 40.13 -29.67 40.13 -28.31 40.13 C-28.31 39.47 -28.31 38.81 -28.31 38.13 C-26.66 38.13 -25.01 38.13 -23.31 38.13 C-23.04 37.49 -22.77 36.85 -22.49 36.19 C-21.31 34.13 -21.31 34.13 -18.31 33.13 C-17.81 32.14 -17.81 32.14 -17.31 31.13 C-16.31 29.13 -16.31 29.13 -13.31 28.13 C-13.31 26.48 -13.31 24.83 -13.31 23.13 C-12.65 23.13 -11.99 23.13 -11.31 23.13 C-10.98 21.48 -10.65 19.83 -10.31 18.13 C-9.65 18.13 -8.99 18.13 -8.31 18.13 C-8.31 14.83 -8.31 11.53 -8.31 8.13 C-7.65 8.13 -6.99 8.13 -6.31 8.13 C-6.33 6.99 -6.35 5.86 -6.37 4.69 C-6.27 -0.79 -4.98 0 0 0 Z " fill="#002269" transform="translate(115.30522155761719,768.8741588592529)"/>
<path d="M0 0 C1.74 -0 1.74 -0 3.51 -0.01 C4.8 -0.01 6.09 -0 7.41 -0 C8.78 -0 10.15 -0 11.52 -0.01 C15.3 -0.01 19.08 -0.01 22.86 -0 C26.94 -0 31.01 -0.01 35.08 -0.01 C43.06 -0.01 51.04 -0.01 59.02 -0.01 C65.51 -0.01 71.99 -0.01 78.48 -0.01 C79.86 -0.01 79.86 -0.01 81.27 -0.01 C83.14 -0.01 85.01 -0.01 86.88 -0.01 C104.44 -0.01 122 -0.01 139.57 -0 C154.65 0 169.74 0 184.83 -0 C202.33 -0.01 219.82 -0.01 237.32 -0.01 C239.19 -0.01 241.05 -0.01 242.91 -0.01 C243.83 -0.01 244.75 -0.01 245.69 -0.01 C252.17 -0.01 258.65 -0.01 265.13 -0.01 C273.03 -0.01 280.92 -0.01 288.81 -0.01 C292.84 -0 296.87 -0 300.9 -0.01 C304.58 -0.01 308.27 -0.01 311.95 -0 C313.93 -0 315.9 -0 317.88 -0.01 C319.62 -0 319.62 -0 321.39 0 C322.4 0 323.4 0 324.44 0 C326.69 0.13 326.69 0.13 327.69 1.13 C327.74 3.46 327.74 5.79 327.69 8.13 C328.35 8.13 329.01 8.13 329.69 8.13 C329.69 11.43 329.69 14.73 329.69 18.13 C330.68 18.46 331.67 18.79 332.69 19.13 C332.69 20.45 332.69 21.77 332.69 23.13 C333.35 23.13 334.01 23.13 334.69 23.13 C334.69 24.78 334.69 26.43 334.69 28.13 C335.33 28.39 335.97 28.66 336.63 28.94 C338.69 30.13 338.69 30.13 339.69 33.13 C340.35 33.46 341.01 33.79 341.69 34.13 C342.35 34.46 343.01 34.79 343.69 35.13 C344.02 36.12 344.35 37.11 344.69 38.13 C346.34 38.13 347.99 38.13 349.69 38.13 C349.69 38.79 349.69 39.45 349.69 40.13 C351.34 40.46 352.99 40.79 354.69 41.13 C354.69 41.79 354.69 42.45 354.69 43.13 C356.34 43.13 357.99 43.13 359.69 43.13 C359.69 43.79 359.69 44.45 359.69 45.13 C360.98 45.11 360.98 45.11 362.28 45.09 C363.94 45.08 363.94 45.08 365.63 45.06 C366.73 45.05 367.84 45.04 368.97 45.03 C371.69 45.13 371.69 45.13 372.69 46.13 C372.79 48.01 372.82 49.9 372.82 51.79 C372.82 53.03 372.82 54.27 372.82 55.55 C372.82 56.94 372.82 58.33 372.82 59.72 C372.82 61.19 372.82 62.65 372.82 64.12 C372.82 68.16 372.82 72.21 372.81 76.25 C372.81 80.61 372.81 84.97 372.81 89.32 C372.81 96.87 372.81 104.42 372.8 111.98 C372.79 122.9 372.79 133.81 372.79 144.73 C372.79 162.45 372.78 180.16 372.77 197.87 C372.76 215.09 372.75 232.3 372.75 249.51 C372.75 251.1 372.75 251.1 372.75 252.72 C372.75 258.04 372.75 263.36 372.75 268.68 C372.73 312.83 372.72 356.98 372.69 401.13 C368.85 403.13 366.2 404.51 361.82 404.31 C361.04 404.29 360.26 404.26 359.45 404.23 C358.58 404.18 358.58 404.18 357.69 404.13 C357.36 405.12 357.03 406.11 356.69 407.13 C354.38 407.13 352.07 407.13 349.69 407.13 C349.69 407.79 349.69 408.45 349.69 409.13 C349.03 409.13 348.37 409.13 347.69 409.13 C347.36 410.12 347.03 411.11 346.69 412.13 C346.03 412.13 345.37 412.13 344.69 412.13 C344.69 412.79 344.69 413.45 344.69 414.13 C343.04 414.13 341.39 414.13 339.69 414.13 C339.69 415.78 339.69 417.43 339.69 419.13 C339.03 419.13 338.37 419.13 337.69 419.13 C337.36 420.12 337.03 421.11 336.69 422.13 C336.03 422.13 335.37 422.13 334.69 422.13 C334.69 422.79 334.69 423.45 334.69 424.13 C334.03 424.13 333.37 424.13 332.69 424.13 C332.69 426.44 332.69 428.75 332.69 431.13 C331.7 431.46 330.71 431.79 329.69 432.13 C329.73 432.71 329.76 433.29 329.8 433.88 C329.83 434.66 329.85 435.45 329.88 436.25 C329.93 437.4 329.93 437.4 329.99 438.57 C329.61 441.86 328.21 444.21 326.69 447.13 C281.49 447.15 236.28 447.17 191.07 447.18 C185.74 447.18 180.41 447.18 175.08 447.18 C173.49 447.18 173.49 447.18 171.86 447.18 C154.65 447.19 137.44 447.19 120.23 447.2 C102.59 447.21 84.94 447.22 67.3 447.22 C56.4 447.22 45.5 447.23 34.6 447.23 C27.14 447.24 19.68 447.24 12.22 447.24 C7.91 447.24 3.59 447.24 -0.72 447.25 C-4.66 447.25 -8.6 447.25 -12.54 447.25 C-13.97 447.25 -15.4 447.25 -16.84 447.25 C-18.77 447.25 -20.7 447.25 -22.64 447.25 C-23.72 447.25 -24.79 447.25 -25.9 447.25 C-28.31 447.13 -28.31 447.13 -29.31 446.13 C-29.38 444.11 -29.39 442.08 -29.37 440.06 C-29.36 438.96 -29.35 437.85 -29.34 436.72 C-29.33 435.86 -29.32 435.01 -29.31 434.13 C-29.97 434.13 -30.63 434.13 -31.31 434.13 C-31.31 432.48 -31.31 430.83 -31.31 429.13 C-32.3 428.8 -33.29 428.47 -34.31 428.13 C-34.31 426.81 -34.31 425.49 -34.31 424.13 C-34.97 424.13 -35.63 424.13 -36.31 424.13 C-36.31 422.48 -36.31 420.83 -36.31 419.13 C-36.94 418.86 -37.58 418.59 -38.24 418.31 C-40.31 417.13 -40.31 417.13 -41.31 414.13 C-41.97 413.8 -42.63 413.47 -43.31 413.13 C-45.31 412.13 -45.31 412.13 -46.31 409.13 C-47.96 409.13 -49.61 409.13 -51.31 409.13 C-51.31 408.47 -51.31 407.81 -51.31 407.13 C-52.96 406.8 -54.61 406.47 -56.31 406.13 C-56.31 405.47 -56.31 404.81 -56.31 404.13 C-59.61 404.13 -62.91 404.13 -66.31 404.13 C-66.31 403.47 -66.31 402.81 -66.31 402.13 C-68.01 402.16 -68.01 402.16 -69.74 402.19 C-73.31 402.13 -73.31 402.13 -74.31 401.13 C-74.4 399.36 -74.43 397.59 -74.43 395.82 C-74.43 394.66 -74.44 393.5 -74.44 392.31 C-74.44 391.02 -74.43 389.74 -74.43 388.41 C-74.43 387.04 -74.43 385.67 -74.44 384.3 C-74.44 380.52 -74.44 376.74 -74.44 372.96 C-74.43 368.89 -74.44 364.81 -74.44 360.74 C-74.44 352.76 -74.44 344.78 -74.44 336.8 C-74.44 330.31 -74.44 323.83 -74.44 317.35 C-74.44 316.42 -74.44 315.5 -74.44 314.55 C-74.44 312.68 -74.44 310.81 -74.44 308.94 C-74.44 291.38 -74.44 273.82 -74.43 256.25 C-74.43 241.17 -74.43 226.08 -74.44 210.99 C-74.44 193.49 -74.44 176 -74.44 158.5 C-74.44 156.63 -74.44 154.77 -74.44 152.91 C-74.44 151.99 -74.44 151.07 -74.44 150.13 C-74.44 143.65 -74.44 137.17 -74.44 130.69 C-74.44 122.79 -74.44 114.9 -74.44 107.01 C-74.44 102.98 -74.43 98.95 -74.44 94.92 C-74.44 91.24 -74.44 87.55 -74.43 83.87 C-74.43 81.89 -74.44 79.92 -74.44 77.94 C-74.44 76.78 -74.43 75.62 -74.43 74.43 C-74.43 73.42 -74.43 72.42 -74.43 71.38 C-74.31 69.13 -74.31 69.13 -73.31 68.13 C-70.38 68 -67.49 67.94 -64.56 67.92 C-63.68 67.92 -62.8 67.91 -61.9 67.91 C-60.03 67.9 -58.17 67.89 -56.3 67.89 C-53.45 67.88 -50.59 67.84 -47.74 67.81 C-45.93 67.81 -44.12 67.8 -42.31 67.8 C-41.03 67.78 -41.03 67.78 -39.72 67.76 C-38.52 67.76 -38.52 67.76 -37.3 67.77 C-36.25 67.76 -36.25 67.76 -35.18 67.76 C-32.73 68.24 -31.82 69.18 -30.31 71.13 C-30.31 71.79 -30.31 72.45 -30.31 73.13 C-29.67 73.39 -29.03 73.66 -28.37 73.94 C-26.31 75.13 -26.31 75.13 -25.31 78.13 C-24.32 78.62 -24.32 78.62 -23.31 79.13 C-22.32 79.62 -22.32 79.62 -21.31 80.13 C-20.98 81.12 -20.65 82.11 -20.31 83.13 C-19.32 83.62 -19.32 83.62 -18.31 84.13 C-17.32 84.62 -17.32 84.62 -16.31 85.13 C-15.98 86.12 -15.65 87.11 -15.31 88.13 C-14.32 88.62 -14.32 88.62 -13.31 89.13 C-12.32 89.62 -12.32 89.62 -11.31 90.13 C-10.98 91.12 -10.65 92.11 -10.31 93.13 C-9.65 93.46 -8.99 93.79 -8.31 94.13 C-7.65 94.46 -6.99 94.79 -6.31 95.13 C-5.98 96.12 -5.65 97.11 -5.31 98.13 C-4.65 98.46 -3.99 98.79 -3.31 99.13 C-2.65 99.46 -1.99 99.79 -1.31 100.13 C-0.98 101.12 -0.65 102.11 -0.31 103.13 C0.35 103.46 1.01 103.79 1.69 104.13 C2.35 104.46 3.01 104.79 3.69 105.13 C4.02 106.12 4.35 107.11 4.69 108.13 C5.35 108.46 6.01 108.79 6.69 109.13 C7.35 109.46 8.01 109.79 8.69 110.13 C9.02 111.12 9.35 112.11 9.69 113.13 C10.35 113.46 11.01 113.79 11.69 114.13 C12.35 114.46 13.01 114.79 13.69 115.13 C14.02 116.12 14.35 117.11 14.69 118.13 C15.35 118.46 16.01 118.79 16.69 119.13 C17.35 119.46 18.01 119.79 18.69 120.13 C19.02 121.12 19.35 122.11 19.69 123.13 C20.35 123.46 21.01 123.79 21.69 124.13 C22.35 124.46 23.01 124.79 23.69 125.13 C24.02 126.12 24.35 127.11 24.69 128.13 C25.35 128.46 26.01 128.79 26.69 129.13 C27.35 129.46 28.01 129.79 28.69 130.13 C29.02 131.12 29.35 132.11 29.69 133.13 C30.35 133.46 31.01 133.79 31.69 134.13 C32.35 134.46 33.01 134.79 33.69 135.13 C34.02 136.12 34.35 137.11 34.69 138.13 C35.35 138.46 36.01 138.79 36.69 139.13 C37.35 139.46 38.01 139.79 38.69 140.13 C39.02 141.12 39.35 142.11 39.69 143.13 C40.35 143.46 41.01 143.79 41.69 144.13 C42.35 144.46 43.01 144.79 43.69 145.13 C44.02 146.12 44.35 147.11 44.69 148.13 C45.35 148.46 46.01 148.79 46.69 149.13 C47.35 149.46 48.01 149.79 48.69 150.13 C49.02 151.12 49.35 152.11 49.69 153.13 C50.35 153.46 51.01 153.79 51.69 154.13 C52.35 154.46 53.01 154.79 53.69 155.13 C54.02 156.12 54.35 157.11 54.69 158.13 C55.35 158.46 56.01 158.79 56.69 159.13 C57.35 159.46 58.01 159.79 58.69 160.13 C59.02 161.12 59.35 162.11 59.69 163.13 C60.35 163.46 61.01 163.79 61.69 164.13 C62.35 164.46 63.01 164.79 63.69 165.13 C64.02 166.12 64.35 167.11 64.69 168.13 C65.35 168.46 66.01 168.79 66.69 169.13 C67.35 169.46 68.01 169.79 68.69 170.13 C69.02 171.12 69.35 172.11 69.69 173.13 C70.35 173.46 71.01 173.79 71.69 174.13 C72.35 174.46 73.01 174.79 73.69 175.13 C74.02 176.12 74.35 177.11 74.69 178.13 C75.35 178.46 76.01 178.79 76.69 179.13 C77.35 179.46 78.01 179.79 78.69 180.13 C79.02 181.12 79.35 182.11 79.69 183.13 C80.35 183.46 81.01 183.79 81.69 184.13 C82.35 184.46 83.01 184.79 83.69 185.13 C84.02 186.12 84.35 187.11 84.69 188.13 C85.35 188.46 86.01 188.79 86.69 189.13 C87.35 189.46 88.01 189.79 88.69 190.13 C89.02 191.12 89.35 192.11 89.69 193.13 C90.35 193.46 91.01 193.79 91.69 194.13 C92.35 194.46 93.01 194.79 93.69 195.13 C94.02 196.12 94.35 197.11 94.69 198.13 C95.35 198.46 96.01 198.79 96.69 199.13 C97.35 199.46 98.01 199.79 98.69 200.13 C99.02 201.12 99.35 202.11 99.69 203.13 C100.35 203.46 101.01 203.79 101.69 204.13 C102.35 204.46 103.01 204.79 103.69 205.13 C104.02 206.12 104.35 207.11 104.69 208.13 C105.35 208.46 106.01 208.79 106.69 209.13 C107.35 209.46 108.01 209.79 108.69 210.13 C109.02 211.12 109.35 212.11 109.69 213.13 C110.35 213.46 111.01 213.79 111.69 214.13 C112.35 214.46 113.01 214.79 113.69 215.13 C114.02 216.12 114.35 217.11 114.69 218.13 C116.66 219.28 116.66 219.28 118.69 220.13 C119.69 221.13 119.69 221.13 119.82 223.63 C119.69 226.13 119.69 226.13 118.69 227.13 C115.73 227.27 112.78 227.36 109.8 227.41 C108.91 227.43 108.01 227.44 107.09 227.46 C104.21 227.52 101.33 227.57 98.44 227.63 C94.67 227.69 90.89 227.77 87.12 227.84 C85.81 227.86 85.81 227.86 84.49 227.89 C80.44 227.97 76.64 228.13 72.69 229.13 C72.36 230.12 72.03 231.11 71.69 232.13 C71.03 232.13 70.37 232.13 69.69 232.13 C69.69 232.79 69.69 233.45 69.69 234.13 C69.03 234.13 68.37 234.13 67.69 234.13 C67.36 235.12 67.03 236.11 66.69 237.13 C66.03 237.13 65.37 237.13 64.69 237.13 C64.69 243.07 64.69 249.01 64.69 255.13 C65.68 255.46 66.67 255.79 67.69 256.13 C67.69 256.79 67.69 257.45 67.69 258.13 C68.35 258.13 69.01 258.13 69.69 258.13 C69.69 258.79 69.69 259.45 69.69 260.13 C70.68 260.46 71.67 260.79 72.69 261.13 C72.69 261.79 72.69 262.45 72.69 263.13 C73.35 263.13 74.01 263.13 74.69 263.13 C74.69 263.79 74.69 264.45 74.69 265.13 C109.01 265.13 143.33 265.13 178.69 265.13 C178.69 264.47 178.69 263.81 178.69 263.13 C180.34 263.13 181.99 263.13 183.69 263.13 C183.96 262.49 184.23 261.85 184.51 261.19 C185.69 259.13 185.69 259.13 188.69 258.13 C188.69 256.48 188.69 254.83 188.69 253.13 C189.35 253.13 190.01 253.13 190.69 253.13 C190.69 218.81 190.69 184.49 190.69 149.13 C190.03 149.13 189.37 149.13 188.69 149.13 C188.69 148.47 188.69 147.81 188.69 147.13 C187.7 146.8 186.71 146.47 185.69 146.13 C185.69 145.47 185.69 144.81 185.69 144.13 C185.03 144.13 184.37 144.13 183.69 144.13 C183.69 143.47 183.69 142.81 183.69 142.13 C182.7 141.8 181.71 141.47 180.69 141.13 C180.69 140.47 180.69 139.81 180.69 139.13 C178.38 139.13 176.07 139.13 173.69 139.13 C173.69 138.47 173.69 137.81 173.69 137.13 C172.37 137.13 171.05 137.13 169.69 137.13 C169.69 137.79 169.69 138.45 169.69 139.13 C167.38 139.13 165.07 139.13 162.69 139.13 C162.36 140.12 162.03 141.11 161.69 142.13 C161.03 142.13 160.37 142.13 159.69 142.13 C159.69 142.79 159.69 143.45 159.69 144.13 C159.03 144.13 158.37 144.13 157.69 144.13 C157.36 145.12 157.03 146.11 156.69 147.13 C156.03 147.13 155.37 147.13 154.69 147.13 C153.49 151.92 153.49 156.64 153.41 161.55 C153.39 162.9 153.39 162.9 153.36 164.28 C153.28 168.12 153.21 171.96 153.14 175.81 C153.09 178.62 153.03 181.43 152.98 184.24 C152.96 185.55 152.96 185.55 152.93 186.89 C152.81 193.01 152.81 193.01 151.69 194.13 C148.77 194.43 147.27 194.56 144.88 192.75 C143.69 191.13 143.69 191.13 143.69 189.13 C143.06 188.86 142.42 188.59 141.76 188.31 C139.69 187.13 139.69 187.13 138.69 184.13 C138.03 183.8 137.37 183.47 136.69 183.13 C134.69 182.13 134.69 182.13 133.69 179.13 C133.03 178.8 132.37 178.47 131.69 178.13 C129.69 177.13 129.69 177.13 128.69 174.13 C128.03 173.8 127.37 173.47 126.69 173.13 C124.69 172.13 124.69 172.13 123.69 169.13 C123.03 168.8 122.37 168.47 121.69 168.13 C119.69 167.13 119.69 167.13 118.69 164.13 C118.03 163.8 117.37 163.47 116.69 163.13 C114.69 162.13 114.69 162.13 113.69 159.13 C113.03 158.8 112.37 158.47 111.69 158.13 C109.69 157.13 109.69 157.13 108.69 154.13 C108.03 153.8 107.37 153.47 106.69 153.13 C104.69 152.13 104.69 152.13 103.69 149.13 C103.03 148.8 102.37 148.47 101.69 148.13 C99.69 147.13 99.69 147.13 98.69 144.13 C98.03 143.8 97.37 143.47 96.69 143.13 C94.69 142.13 94.69 142.13 93.69 139.13 C93.03 138.8 92.37 138.47 91.69 138.13 C89.69 137.13 89.69 137.13 88.69 134.13 C88.03 133.8 87.37 133.47 86.69 133.13 C84.69 132.13 84.69 132.13 83.69 129.13 C83.03 128.8 82.37 128.47 81.69 128.13 C79.69 127.13 79.69 127.13 78.69 124.13 C78.03 123.8 77.37 123.47 76.69 123.13 C74.69 122.13 74.69 122.13 73.69 119.13 C73.03 118.8 72.37 118.47 71.69 118.13 C69.69 117.13 69.69 117.13 68.69 114.13 C68.03 113.8 67.37 113.47 66.69 113.13 C64.69 112.13 64.69 112.13 63.69 109.13 C63.03 108.8 62.37 108.47 61.69 108.13 C59.69 107.13 59.69 107.13 58.69 104.13 C58.03 103.8 57.37 103.47 56.69 103.13 C54.69 102.13 54.69 102.13 53.69 99.13 C53.03 98.8 52.37 98.47 51.69 98.13 C49.69 97.13 49.69 97.13 48.69 94.13 C48.03 93.8 47.37 93.47 46.69 93.13 C44.69 92.13 44.69 92.13 43.69 89.13 C43.03 88.8 42.37 88.47 41.69 88.13 C39.69 87.13 39.69 87.13 38.69 84.13 C38.03 83.8 37.37 83.47 36.69 83.13 C34.69 82.13 34.69 82.13 33.69 79.13 C33.03 78.8 32.37 78.47 31.69 78.13 C29.69 77.13 29.69 77.13 28.69 74.13 C28.03 73.8 27.37 73.47 26.69 73.13 C24.69 72.13 24.69 72.13 23.69 69.13 C23.03 68.8 22.37 68.47 21.69 68.13 C19.69 67.13 19.69 67.13 18.69 64.13 C18.03 63.8 17.37 63.47 16.69 63.13 C14.69 62.13 14.69 62.13 13.69 59.13 C13.03 58.8 12.37 58.47 11.69 58.13 C9.69 57.13 9.69 57.13 8.69 54.13 C8.03 53.8 7.37 53.47 6.69 53.13 C4.69 52.13 4.69 52.13 3.69 49.13 C3.03 48.8 2.37 48.47 1.69 48.13 C-0.31 47.13 -0.31 47.13 -1.31 44.13 C-3.27 42.98 -3.27 42.98 -5.31 42.13 C-7.2 40.23 -6.43 37.46 -6.44 34.94 C-6.44 33.64 -6.44 33.64 -6.44 32.31 C-6.44 31.43 -6.44 30.55 -6.44 29.63 C-6.44 27.76 -6.44 25.89 -6.44 24.02 C-6.43 21.14 -6.44 18.26 -6.44 15.38 C-6.44 13.57 -6.44 11.75 -6.44 9.94 C-6.44 9.07 -6.44 8.21 -6.44 7.31 C-6.42 0 -6.42 0 0 0 Z " fill="#002269" transform="translate(843.3052215576172,768.8741588592529)"/>
<path d="M0 0 C93.72 0 187.44 0 284 0 C284.33 0.99 284.66 1.98 285 3 C286.65 3 288.3 3 290 3 C290 3.66 290 4.32 290 5 C290.99 5.33 291.98 5.66 293 6 C293 6.66 293 7.32 293 8 C293.66 8 294.32 8 295 8 C295 9.65 295 11.3 295 13 C295.99 13.33 296.98 13.66 298 14 C298 107.72 298 201.44 298 298 C297.01 298.33 296.02 298.66 295 299 C295 300.65 295 302.3 295 304 C294.34 304 293.68 304 293 304 C292.67 304.99 292.34 305.98 292 307 C291.34 307 290.68 307 290 307 C290 307.66 290 308.32 290 309 C288.35 309 286.7 309 285 309 C284.67 309.99 284.34 310.98 284 312 C190.28 312 96.56 312 0 312 C-0.5 310.51 -0.5 310.51 -1 309 C-2.65 309 -4.3 309 -6 309 C-6 308.34 -6 307.68 -6 307 C-6.99 306.67 -7.98 306.34 -9 306 C-9 305.34 -9 304.68 -9 304 C-9.66 304 -10.32 304 -11 304 C-11 302.35 -11 300.7 -11 299 C-11.99 298.67 -12.98 298.34 -14 298 C-14 204.28 -14 110.56 -14 14 C-13.01 13.67 -12.02 13.34 -11 13 C-11 11.35 -11 9.7 -11 8 C-10.34 8 -9.68 8 -9 8 C-8.67 7.01 -8.34 6.02 -8 5 C-7.34 5 -6.68 5 -6 5 C-6 4.34 -6 3.68 -6 3 C-4.35 3 -2.7 3 -1 3 C-0.67 2.01 -0.34 1.02 0 0 Z " fill="#002268" transform="translate(498,484)"/>
<path d="M0 0 C19.8 0 39.6 0 60 0 C60.49 1.49 60.49 1.49 61 3 C63.31 3 65.62 3 68 3 C68 3.66 68 4.32 68 5 C68.99 5.33 69.98 5.66 71 6 C71 6.66 71 7.32 71 8 C71.66 8 72.32 8 73 8 C73 9.65 73 11.3 73 13 C73.66 13 74.32 13 75 13 C75 34.78 75 56.56 75 79 C74.34 79 73.68 79 73 79 C73 80.65 73 82.3 73 84 C72.34 84 71.68 84 71 84 C70.51 85.49 70.51 85.49 70 87 C69.34 87 68.68 87 68 87 C68 87.66 68 88.32 68 89 C66.35 89 64.7 89 63 89 C62.51 90.49 62.51 90.49 62 92 C40.88 92 19.76 92 -2 92 C-2.33 91.01 -2.66 90.02 -3 89 C-3.66 88.67 -4.32 88.34 -5 88 C-7 87 -7 87 -8 84 C-8.66 83.71 -9.32 83.42 -10 83.12 C-12 82 -12 82 -12.75 79.38 C-12.83 78.59 -12.91 77.81 -13 77 C-13.99 76.67 -14.98 76.34 -16 76 C-16 57.19 -16 38.38 -16 19 C-15.01 18.67 -14.02 18.34 -13 18 C-13.06 16.91 -13.12 15.81 -13.19 14.69 C-13 11 -13 11 -11.62 9.06 C-10 8 -10 8 -8 8 C-7.77 7.36 -7.55 6.72 -7.31 6.06 C-6 4 -6 4 -3.38 3.25 C-2.59 3.17 -1.81 3.09 -1 3 C-0.67 2.01 -0.34 1.02 0 0 Z " fill="#002267" transform="translate(1205,704)"/>
<path d="M0 0 C19.8 0 39.6 0 60 0 C60.5 1.49 60.5 1.49 61 3 C62.18 3.12 62.18 3.12 63.38 3.25 C64.24 3.5 65.11 3.75 66 4 C67.06 5.94 67.06 5.94 68 8 C70 9.21 70 9.21 72 10 C73 11 73 11 73.06 14.56 C73.04 15.7 73.02 16.83 73 18 C74.48 18.5 74.48 18.5 76 19 C76 37.81 76 56.62 76 76 C74.52 76.5 74.52 76.5 73 77 C72.92 77.78 72.83 78.57 72.75 79.38 C72.5 80.24 72.25 81.11 72 82 C70.06 83.06 70.06 83.06 68 84 C67.32 85.33 66.65 86.66 66 88 C64.52 88.5 64.52 88.5 63 89 C62.5 90.49 62.5 90.49 62 92 C40.88 92 19.76 92 -2 92 C-2.33 91.01 -2.66 90.02 -3 89 C-4.65 89 -6.3 89 -8 89 C-8 88.34 -8 87.68 -8 87 C-8.99 86.67 -9.98 86.34 -11 86 C-11 85.34 -11 84.68 -11 84 C-11.66 84 -12.32 84 -13 84 C-13 82.35 -13 80.7 -13 79 C-13.66 79 -14.32 79 -15 79 C-15 57.22 -15 35.44 -15 13 C-14.34 13 -13.68 13 -13 13 C-13 11.35 -13 9.7 -13 8 C-12.34 8 -11.68 8 -11 8 C-10.67 7.01 -10.34 6.02 -10 5 C-9.34 5 -8.68 5 -8 5 C-8 4.34 -8 3.68 -8 3 C-5.69 3 -3.38 3 -1 3 C-0.67 2.01 -0.34 1.02 0 0 Z " fill="#002267" transform="translate(15,704)"/>
<path d="M0 0 C18.81 0 37.62 0 57 0 C57.5 1.48 57.5 1.48 58 3 C59.09 2.94 60.19 2.88 61.31 2.81 C65 3 65 3 66.94 4.38 C68 6 68 6 68 8 C68.64 8.23 69.28 8.45 69.94 8.69 C72 10 72 10 72.75 12.62 C72.83 13.41 72.91 14.19 73 15 C73.99 15.33 74.98 15.66 76 16 C76 35.8 76 55.6 76 76 C74.51 76.49 74.51 76.49 73 77 C73 79.31 73 81.62 73 84 C72.34 84 71.68 84 71 84 C70.5 85.48 70.5 85.48 70 87 C69.34 87 68.68 87 68 87 C68 87.66 68 88.32 68 89 C66.35 89 64.7 89 63 89 C63 89.66 63 90.32 63 91 C41.22 91 19.44 91 -3 91 C-3 90.34 -3 89.68 -3 89 C-4.65 89 -6.3 89 -8 89 C-8 88.34 -8 87.68 -8 87 C-8.99 86.67 -9.98 86.34 -11 86 C-11 85.34 -11 84.68 -11 84 C-11.66 84 -12.32 84 -13 84 C-13 82.35 -13 80.7 -13 79 C-13.99 78.67 -14.98 78.34 -16 78 C-16 57.54 -16 37.08 -16 16 C-15.01 15.67 -14.02 15.34 -13 15 C-12.92 14.22 -12.83 13.43 -12.75 12.62 C-12.5 11.76 -12.25 10.89 -12 10 C-10.06 8.94 -10.06 8.94 -8 8 C-7.69 7.32 -7.38 6.64 -7.06 5.94 C-6.71 5.3 -6.36 4.66 -6 4 C-3.38 3.25 -3.38 3.25 -1 3 C-0.67 2.01 -0.34 1.02 0 0 Z " fill="#002267" transform="translate(500,1189)"/>
<path d="M0 0 C20.46 0 40.92 0 62 0 C62.5 1.49 62.5 1.49 63 3 C64.18 3.12 64.18 3.12 65.38 3.25 C66.24 3.5 67.11 3.75 68 4 C69.06 5.94 69.06 5.94 70 8 C70.68 8.31 71.36 8.62 72.06 8.94 C73.02 9.46 73.02 9.46 74 10 C74.75 12.62 74.75 12.62 75 15 C75.99 15.33 76.98 15.66 78 16 C78 34.81 78 53.62 78 73 C76.52 73.5 76.52 73.5 75 74 C75.06 75.09 75.12 76.19 75.19 77.31 C75 81 75 81 73.62 82.94 C72 84 72 84 70 84 C69.77 84.64 69.55 85.28 69.31 85.94 C68 88 68 88 65.38 88.75 C64.59 88.83 63.81 88.91 63 89 C62.5 90.49 62.5 90.49 62 92 C42.2 92 22.4 92 2 92 C1.67 91.01 1.34 90.02 1 89 C-1.31 89 -3.62 89 -6 89 C-6 88.34 -6 87.68 -6 87 C-6.99 86.67 -7.98 86.34 -9 86 C-9 85.34 -9 84.68 -9 84 C-9.66 84 -10.32 84 -11 84 C-11 82.35 -11 80.7 -11 79 C-11.66 79 -12.32 79 -13 79 C-13 57.22 -13 35.44 -13 13 C-12.34 13 -11.68 13 -11 13 C-11 11.35 -11 9.7 -11 8 C-10.34 8 -9.68 8 -9 8 C-8.67 7.01 -8.34 6.02 -8 5 C-7.34 5 -6.68 5 -6 5 C-6 4.34 -6 3.68 -6 3 C-4.35 3 -2.7 3 -1 3 C-0.67 2.01 -0.34 1.02 0 0 Z " fill="#002267" transform="translate(13,484)"/>
<path d="M0 0 C20.46 0 40.92 0 62 0 C62.49 1.49 62.49 1.49 63 3 C64.65 3 66.3 3 68 3 C68 3.66 68 4.32 68 5 C68.99 5.33 69.98 5.66 71 6 C71 6.66 71 7.32 71 8 C71.66 8 72.32 8 73 8 C73 9.65 73 11.3 73 13 C73.66 13 74.32 13 75 13 C75 34.78 75 56.56 75 79 C74.34 79 73.68 79 73 79 C73 80.65 73 82.3 73 84 C72.34 84 71.68 84 71 84 C70.51 85.49 70.51 85.49 70 87 C69.34 87 68.68 87 68 87 C68 87.66 68 88.32 68 89 C65.69 89 63.38 89 61 89 C60.51 90.49 60.51 90.49 60 92 C40.2 92 20.4 92 0 92 C-0.33 91.01 -0.66 90.02 -1 89 C-1.78 88.92 -2.57 88.84 -3.38 88.75 C-4.67 88.38 -4.67 88.38 -6 88 C-7.06 86.06 -7.06 86.06 -8 84 C-10 82.79 -10 82.79 -12 82 C-13 81 -13 81 -13.06 77.44 C-13.04 76.3 -13.02 75.17 -13 74 C-13.99 73.67 -14.98 73.34 -16 73 C-16 54.19 -16 35.38 -16 16 C-15.01 15.67 -14.02 15.34 -13 15 C-12.92 14.22 -12.84 13.43 -12.75 12.62 C-12.5 11.76 -12.26 10.89 -12 10 C-10.06 8.94 -10.06 8.94 -8 8 C-7.69 7.32 -7.38 6.64 -7.06 5.94 C-6.71 5.3 -6.36 4.66 -6 4 C-3.38 3.25 -3.38 3.25 -1 3 C-0.67 2.01 -0.34 1.02 0 0 Z " fill="#002267" transform="translate(1205,484)"/>
<path d="M0 0 C17.82 0 35.64 0 54 0 C54.5 1.48 54.5 1.48 55 3 C56.09 2.94 57.19 2.88 58.31 2.81 C62 3 62 3 63.94 4.38 C65 6 65 6 65 8 C65.64 8.27 66.28 8.54 66.94 8.81 C69 10 69 10 70 13 C70.99 13.33 71.98 13.66 73 14 C73 35.12 73 56.24 73 78 C71.51 78.49 71.51 78.49 70 79 C70 80.65 70 82.3 70 84 C69.34 84 68.68 84 68 84 C67.5 85.48 67.5 85.48 67 87 C66.34 87 65.68 87 65 87 C65 87.66 65 88.32 65 89 C63.35 89 61.7 89 60 89 C60 89.66 60 90.32 60 91 C38.22 91 16.44 91 -6 91 C-6 90.34 -6 89.68 -6 89 C-7.65 89 -9.3 89 -11 89 C-11 88.34 -11 87.68 -11 87 C-11.99 86.67 -12.98 86.34 -14 86 C-14 85.34 -14 84.68 -14 84 C-14.66 84 -15.32 84 -16 84 C-16 81.69 -16 79.38 -16 77 C-16.99 76.67 -17.98 76.34 -19 76 C-19 56.2 -19 36.4 -19 16 C-18.01 15.67 -17.02 15.34 -16 15 C-15.92 14.22 -15.84 13.43 -15.75 12.62 C-15.5 11.76 -15.25 10.89 -15 10 C-13.06 8.94 -13.06 8.94 -11 8 C-9.79 6 -9.79 6 -9 4 C-8 3 -8 3 -4.44 2.94 C-3.3 2.96 -2.17 2.98 -1 3 C-0.67 2.01 -0.34 1.02 0 0 Z " fill="#002267" transform="translate(723,1189)"/>
<path d="M0 0 C21.78 0 43.56 0 66 0 C66 0.66 66 1.32 66 2 C67.65 2 69.3 2 71 2 C71 2.66 71 3.32 71 4 C71.99 4.33 72.98 4.66 74 5 C74 5.66 74 6.32 74 7 C74.66 7 75.32 7 76 7 C76 8.65 76 10.3 76 12 C76.99 12.33 77.98 12.66 79 13 C79 34.12 79 55.24 79 77 C77.51 77.5 77.51 77.5 76 78 C75.67 78.66 75.34 79.32 75 80 C74.67 80.66 74.34 81.32 74 82 C72.51 82.5 72.51 82.5 71 83 C69.85 84.97 69.85 84.97 69 87 C68 88 68 88 64.44 88.06 C63.3 88.04 62.17 88.02 61 88 C60.5 89.48 60.5 89.48 60 91 C42.18 91 24.36 91 6 91 C5.67 90.01 5.34 89.02 5 88 C3.91 88.06 2.81 88.12 1.69 88.19 C-2 88 -2 88 -3.94 86.62 C-5 85 -5 85 -5 83 C-5.64 82.77 -6.28 82.55 -6.94 82.31 C-9 81 -9 81 -9.75 78.38 C-9.83 77.59 -9.91 76.81 -10 76 C-10.99 75.67 -11.98 75.34 -13 75 C-13 55.2 -13 35.4 -13 15 C-12.01 14.67 -11.02 14.34 -10 14 C-10 11.69 -10 9.38 -10 7 C-9.34 7 -8.68 7 -8 7 C-7.67 6.01 -7.34 5.02 -7 4 C-6.34 4 -5.68 4 -5 4 C-5 3.34 -5 2.68 -5 2 C-3.35 2 -1.7 2 0 2 C0 1.34 0 0.68 0 0 Z " fill="#002267" transform="translate(717,0)"/>
<path d="M0 0 C21.78 0 43.56 0 66 0 C66 0.66 66 1.32 66 2 C67.65 2 69.3 2 71 2 C71 2.66 71 3.32 71 4 C71.99 4.33 72.98 4.66 74 5 C74 5.66 74 6.32 74 7 C74.66 7 75.32 7 76 7 C76 9.31 76 11.62 76 14 C76.99 14.33 77.98 14.66 79 15 C79 34.8 79 54.6 79 75 C77.51 75.5 77.51 75.5 76 76 C75.92 76.78 75.84 77.57 75.75 78.38 C75.5 79.24 75.25 80.11 75 81 C73.06 82.06 73.06 82.06 71 83 C69.79 85 69.79 85 69 87 C68 88 68 88 64.44 88.06 C63.3 88.04 62.17 88.02 61 88 C60.5 89.48 60.5 89.48 60 91 C42.18 91 24.36 91 6 91 C5.67 90.01 5.34 89.02 5 88 C3.91 88.06 2.81 88.12 1.69 88.19 C-2 88 -2 88 -3.94 86.62 C-5 85 -5 85 -5 83 C-5.64 82.77 -6.28 82.55 -6.94 82.31 C-9 81 -9 81 -9.75 78.38 C-9.83 77.59 -9.92 76.81 -10 76 C-10.99 75.67 -11.98 75.34 -13 75 C-13 54.54 -13 34.08 -13 13 C-12.01 12.67 -11.02 12.34 -10 12 C-10 10.35 -10 8.7 -10 7 C-9.34 7 -8.68 7 -8 7 C-7.67 6.01 -7.34 5.02 -7 4 C-6.34 4 -5.68 4 -5 4 C-5 3.34 -5 2.68 -5 2 C-3.35 2 -1.7 2 0 2 C0 1.34 0 0.68 0 0 Z " fill="#002267" transform="translate(497,0)"/>
<path d="M0 0 C18.81 0 37.62 0 57 0 C57.5 1.48 57.5 1.48 58 3 C59.65 3 61.3 3 63 3 C63 3.66 63 4.32 63 5 C64.65 5.33 66.3 5.66 68 6 C68 6.66 68 7.32 68 8 C68.99 8.33 69.98 8.66 71 9 C71 10.32 71 11.64 71 13 C71.66 13 72.32 13 73 13 C73 14.65 73 16.3 73 18 C74.48 18.49 74.48 18.49 76 19 C76 37.81 76 56.62 76 76 C74.52 76.49 74.52 76.49 73 77 C72.81 78.08 72.81 78.08 72.62 79.19 C71.42 84.61 71.42 84.61 70 87 C66.37 88.31 66.37 88.31 63 89 C63 89.66 63 90.32 63 91 C40.23 91 17.46 91 -6 91 C-6 90.34 -6 89.68 -6 89 C-6.66 89 -7.32 89 -8 89 C-8 88.34 -8 87.68 -8 87 C-8.99 86.67 -9.98 86.34 -11 86 C-11 85.34 -11 84.68 -11 84 C-11.66 84 -12.32 84 -13 84 C-13 83.34 -13 82.68 -13 82 C-13.66 82 -14.32 82 -15 82 C-15 59.23 -15 36.46 -15 13 C-14.34 13 -13.68 13 -13 13 C-12.79 11.91 -12.59 10.81 -12.38 9.69 C-11 6 -11 6 -8.12 4.06 C-5 3 -5 3 -1 3 C-0.67 2.01 -0.34 1.02 0 0 Z " fill="#002268" transform="translate(15,1189)"/>
<path d="M0 0 C18.81 0 37.62 0 57 0 C57.49 1.48 57.49 1.48 58 3 C59.08 3.19 59.08 3.19 60.19 3.38 C65.61 4.58 65.61 4.58 68 6 C69.31 9.62 69.31 9.62 70 13 C70.66 13 71.32 13 72 13 C72 35.77 72 58.54 72 82 C71.34 82 70.68 82 70 82 C70 82.66 70 83.32 70 84 C69.34 84 68.68 84 68 84 C67.51 85.48 67.51 85.48 67 87 C66.34 87 65.68 87 65 87 C65 87.66 65 88.32 65 89 C64.34 89 63.68 89 63 89 C63 89.66 63 90.32 63 91 C40.23 91 17.46 91 -6 91 C-6 90.34 -6 89.68 -6 89 C-7.09 88.79 -8.19 88.59 -9.31 88.38 C-13 87 -13 87 -14.94 84.12 C-16 81 -16 81 -16 77 C-16.99 76.67 -17.98 76.34 -19 76 C-19 57.19 -19 38.38 -19 19 C-18.01 18.67 -17.02 18.34 -16 18 C-16 16.35 -16 14.7 -16 13 C-15.34 13 -14.68 13 -14 13 C-13.67 11.35 -13.34 9.7 -13 8 C-12.34 8 -11.68 8 -11 8 C-10.67 7.01 -10.34 6.02 -10 5 C-8.68 5 -7.36 5 -6 5 C-6 4.34 -6 3.68 -6 3 C-4.35 3 -2.7 3 -1 3 C-0.67 2.01 -0.34 1.02 0 0 Z " fill="#002268" transform="translate(1208,1189)"/>
<path d="M0 0 C22.77 0 45.54 0 69 0 C69 0.66 69 1.32 69 2 C69.66 2 70.32 2 71 2 C71 2.66 71 3.32 71 4 C71.99 4.33 72.98 4.66 74 5 C74 5.66 74 6.32 74 7 C74.66 7 75.32 7 76 7 C76 7.66 76 8.32 76 9 C76.66 9 77.32 9 78 9 C78 31.77 78 54.54 78 78 C77.34 78 76.68 78 76 78 C75.79 79.09 75.59 80.19 75.38 81.31 C74 85 74 85 71.12 86.94 C68 88 68 88 64 88 C63.51 89.48 63.51 89.48 63 91 C44.19 91 25.38 91 6 91 C5.67 90.01 5.34 89.02 5 88 C3.35 88 1.7 88 0 88 C0 87.34 0 86.68 0 86 C-1.65 85.67 -3.3 85.34 -5 85 C-5 84.34 -5 83.68 -5 83 C-5.99 82.67 -6.98 82.34 -8 82 C-8 80.68 -8 79.36 -8 78 C-8.66 78 -9.32 78 -10 78 C-10 76.35 -10 74.7 -10 73 C-10.99 72.67 -11.98 72.34 -13 72 C-13 53.19 -13 34.38 -13 15 C-12.01 14.67 -11.02 14.34 -10 14 C-9.88 13.28 -9.75 12.56 -9.62 11.81 C-8.42 6.39 -8.42 6.39 -7 4 C-3.38 2.69 -3.38 2.69 0 2 C0 1.34 0 0.68 0 0 Z " fill="#002268" transform="translate(1202,0)"/>
<path d="M0 0 C22.77 0 45.54 0 69 0 C69 0.66 69 1.32 69 2 C70.09 2.21 71.19 2.41 72.31 2.62 C76 4 76 4 77.94 6.88 C79 10 79 10 79 14 C79.99 14.33 80.98 14.66 82 15 C82 33.81 82 52.62 82 72 C80.52 72.5 80.52 72.5 79 73 C79 74.65 79 76.3 79 78 C78.34 78 77.68 78 77 78 C76.67 79.65 76.34 81.3 76 83 C75.34 83 74.68 83 74 83 C73.5 84.48 73.5 84.48 73 86 C71.68 86 70.36 86 69 86 C69 86.66 69 87.32 69 88 C67.35 88 65.7 88 64 88 C63.5 89.48 63.5 89.48 63 91 C44.19 91 25.38 91 6 91 C5.67 90.01 5.34 89.02 5 88 C3.92 87.81 3.92 87.81 2.81 87.62 C-2.61 86.42 -2.61 86.42 -5 85 C-6.31 81.38 -6.31 81.38 -7 78 C-7.66 78 -8.32 78 -9 78 C-9 55.23 -9 32.46 -9 9 C-8.34 9 -7.68 9 -7 9 C-7 8.34 -7 7.68 -7 7 C-6.34 7 -5.68 7 -5 7 C-4.67 6.01 -4.34 5.02 -4 4 C-3.34 4 -2.68 4 -2 4 C-2 3.34 -2 2.68 -2 2 C-1.34 2 -0.68 2 0 2 C0 1.34 0 0.68 0 0 Z " fill="#002268" transform="translate(9,0)"/>
</svg>
