<?xml version="1.0" encoding="UTF-8"?>
<!-- Generator: visioncortex VTracer 0.6.3 -->
<svg version="1.1" xmlns="http://www.w3.org/2000/svg" width="1280" height="1280">
<path d="M0 0 C45.17 -0.02 90.35 -0.04 135.52 -0.05 C140.85 -0.05 146.18 -0.05 151.51 -0.05 C153.1 -0.06 153.1 -0.06 154.72 -0.06 C171.92 -0.06 189.11 -0.07 206.31 -0.08 C223.94 -0.09 241.58 -0.09 259.21 -0.09 C270.1 -0.1 280.99 -0.1 291.88 -0.11 C299.33 -0.11 306.79 -0.11 314.25 -0.11 C318.56 -0.11 322.87 -0.11 327.17 -0.12 C331.11 -0.12 335.05 -0.12 338.99 -0.12 C340.42 -0.12 341.85 -0.12 343.28 -0.12 C345.22 -0.13 347.15 -0.13 349.09 -0.12 C350.16 -0.12 351.24 -0.12 352.35 -0.12 C355 0 355 0 358 1 C358 4.96 358 8.92 358 13 C358.66 13 359.32 13 360 13 C360 14.65 360 16.3 360 18 C360.99 18.33 361.98 18.66 363 19 C363 20.32 363 21.64 363 23 C363.66 23 364.32 23 365 23 C365 24.65 365 26.3 365 28 C365.64 28.27 366.28 28.54 366.94 28.81 C369 30 369 30 370 33 C370.66 33.33 371.32 33.66 372 34 C372.66 34.33 373.32 34.66 374 35 C374.33 35.99 374.66 36.98 375 38 C376.65 38 378.3 38 380 38 C380 38.66 380 39.32 380 40 C381.65 40.33 383.3 40.66 385 41 C385 41.66 385 42.32 385 43 C388.3 43 391.6 43 395 43 C395 43.66 395 44.32 395 45 C396.98 45 398.96 45 401 45 C401 155.22 401 265.44 401 379 C388.13 379 375.26 379 362 379 C361.01 378.01 360.02 377.02 359 376 C359 375.34 359 374.68 359 374 C358.36 373.73 357.72 373.46 357.06 373.19 C355 372 355 372 354 369 C353.34 368.67 352.68 368.34 352 368 C350 367 350 367 349 364 C348.34 363.67 347.68 363.34 347 363 C345 362 345 362 344 359 C343.34 358.67 342.68 358.34 342 358 C340 357 340 357 339 354 C338.34 353.67 337.68 353.34 337 353 C335 352 335 352 334 349 C333.34 348.67 332.68 348.34 332 348 C330 347 330 347 329 344 C328.34 343.67 327.68 343.34 327 343 C325 342 325 342 324 339 C323.34 338.67 322.68 338.34 322 338 C320 337 320 337 319 334 C318.34 333.67 317.68 333.34 317 333 C315 332 315 332 314 329 C313.34 328.67 312.68 328.34 312 328 C310 327 310 327 309 324 C308.34 323.67 307.68 323.34 307 323 C305 322 305 322 304 319 C303.34 318.67 302.68 318.34 302 318 C300 317 300 317 299 314 C298.34 313.67 297.68 313.34 297 313 C295 312 295 312 294 309 C293.34 308.67 292.68 308.34 292 308 C290 307 290 307 289 304 C288.34 303.67 287.68 303.34 287 303 C285 302 285 302 284 299 C283.34 298.67 282.68 298.34 282 298 C280 297 280 297 279 294 C278.34 293.67 277.68 293.34 277 293 C275 292 275 292 274 289 C273.34 288.67 272.68 288.34 272 288 C270 287 270 287 269 284 C268.34 283.67 267.68 283.34 267 283 C265 282 265 282 264 279 C263.34 278.67 262.68 278.34 262 278 C260 277 260 277 259 274 C258.34 273.67 257.68 273.34 257 273 C255 272 255 272 254 269 C253.34 268.67 252.68 268.34 252 268 C250 267 250 267 249 264 C248.34 263.67 247.68 263.34 247 263 C245 262 245 262 244 259 C243.34 258.67 242.68 258.34 242 258 C240 257 240 257 239 254 C238.34 253.67 237.68 253.34 237 253 C235 252 235 252 234 249 C233.34 248.67 232.68 248.34 232 248 C230 247 230 247 229 244 C228.34 243.67 227.68 243.34 227 243 C225 242 225 242 224 239 C223.34 238.67 222.68 238.34 222 238 C220 237 220 237 219 234 C218.34 233.67 217.68 233.34 217 233 C215 232 215 232 214 229 C212.03 227.85 212.03 227.85 210 227 C209 226 209 226 208.88 223.5 C209 221 209 221 210 220 C212.97 219.85 215.92 219.76 218.89 219.72 C219.79 219.7 220.68 219.68 221.61 219.66 C224.49 219.6 227.37 219.55 230.25 219.5 C234.03 219.43 237.8 219.36 241.58 219.28 C242.88 219.26 242.88 219.26 244.21 219.24 C248.26 219.16 252.05 219 256 218 C256.33 217.01 256.66 216.02 257 215 C257.66 215 258.32 215 259 215 C259 214.34 259 213.68 259 213 C259.66 213 260.32 213 261 213 C261.33 212.01 261.66 211.02 262 210 C262.66 210 263.32 210 264 210 C264 204.06 264 198.12 264 192 C263.01 191.67 262.02 191.34 261 191 C261 190.34 261 189.68 261 189 C260.34 189 259.68 189 259 189 C259 188.34 259 187.68 259 187 C258.01 186.67 257.02 186.34 256 186 C256 185.34 256 184.68 256 184 C255.34 184 254.68 184 254 184 C254 183.34 254 182.68 254 182 C219.68 182 185.36 182 150 182 C150 182.66 150 183.32 150 184 C148.35 184 146.7 184 145 184 C144.73 184.64 144.46 185.28 144.19 185.94 C143 188 143 188 140 189 C140 190.65 140 192.3 140 194 C139.34 194 138.68 194 138 194 C138 228.32 138 262.64 138 298 C138.66 298 139.32 298 140 298 C140 298.66 140 299.32 140 300 C140.99 300.33 141.98 300.66 143 301 C143 301.66 143 302.32 143 303 C143.66 303 144.32 303 145 303 C145 303.66 145 304.32 145 305 C145.99 305.33 146.98 305.66 148 306 C148 306.66 148 307.32 148 308 C149.11 308 150.23 308 151.38 308 C156.25 308 161.12 308 166 308 C166.33 307.01 166.66 306.02 167 305 C167.66 305 168.32 305 169 305 C169 304.34 169 303.68 169 303 C169.66 303 170.32 303 171 303 C171.33 302.01 171.66 301.02 172 300 C172.66 300 173.32 300 174 300 C175.21 295.21 175.2 290.49 175.28 285.58 C175.31 284.23 175.31 284.23 175.34 282.85 C175.42 279.01 175.48 275.16 175.55 271.32 C175.6 268.51 175.66 265.7 175.72 262.89 C175.73 262.01 175.75 261.14 175.76 260.24 C175.89 254.11 175.89 254.11 177 253 C179.93 252.69 181.43 252.56 183.81 254.38 C185 256 185 256 185 258 C185.64 258.27 186.28 258.54 186.94 258.81 C189 260 189 260 190 263 C190.66 263.33 191.32 263.66 192 264 C192.66 264.33 193.32 264.66 194 265 C194.33 265.99 194.66 266.98 195 268 C195.66 268.33 196.32 268.66 197 269 C197.66 269.33 198.32 269.66 199 270 C199.33 270.99 199.66 271.98 200 273 C200.66 273.33 201.32 273.66 202 274 C202.66 274.33 203.32 274.66 204 275 C204.33 275.99 204.66 276.98 205 278 C205.66 278.33 206.32 278.66 207 279 C207.66 279.33 208.32 279.66 209 280 C209.33 280.99 209.66 281.98 210 283 C210.66 283.33 211.32 283.66 212 284 C212.66 284.33 213.32 284.66 214 285 C214.33 285.99 214.66 286.98 215 288 C215.66 288.33 216.32 288.66 217 289 C217.66 289.33 218.32 289.66 219 290 C219.33 290.99 219.66 291.98 220 293 C220.66 293.33 221.32 293.66 222 294 C222.66 294.33 223.32 294.66 224 295 C224.33 295.99 224.66 296.98 225 298 C225.66 298.33 226.32 298.66 227 299 C227.66 299.33 228.32 299.66 229 300 C229.33 300.99 229.66 301.98 230 303 C230.66 303.33 231.32 303.66 232 304 C232.66 304.33 233.32 304.66 234 305 C234.33 305.99 234.66 306.98 235 308 C235.66 308.33 236.32 308.66 237 309 C237.66 309.33 238.32 309.66 239 310 C239.33 310.99 239.66 311.98 240 313 C240.66 313.33 241.32 313.66 242 314 C242.66 314.33 243.32 314.66 244 315 C244.33 315.99 244.66 316.98 245 318 C245.66 318.33 246.32 318.66 247 319 C247.66 319.33 248.32 319.66 249 320 C249.33 320.99 249.66 321.98 250 323 C250.66 323.33 251.32 323.66 252 324 C252.66 324.33 253.32 324.66 254 325 C254.33 325.99 254.66 326.98 255 328 C255.66 328.33 256.32 328.66 257 329 C257.66 329.33 258.32 329.66 259 330 C259.33 330.99 259.66 331.98 260 333 C260.66 333.33 261.32 333.66 262 334 C262.66 334.33 263.32 334.66 264 335 C264.33 335.99 264.66 336.98 265 338 C265.66 338.33 266.32 338.66 267 339 C267.66 339.33 268.32 339.66 269 340 C269.33 340.99 269.66 341.98 270 343 C270.66 343.33 271.32 343.66 272 344 C272.66 344.33 273.32 344.66 274 345 C274.33 345.99 274.66 346.98 275 348 C275.66 348.33 276.32 348.66 277 349 C277.66 349.33 278.32 349.66 279 350 C279.33 350.99 279.66 351.98 280 353 C280.66 353.33 281.32 353.66 282 354 C282.66 354.33 283.32 354.66 284 355 C284.33 355.99 284.66 356.98 285 358 C285.66 358.33 286.32 358.66 287 359 C287.66 359.33 288.32 359.66 289 360 C289.33 360.99 289.66 361.98 290 363 C290.66 363.33 291.32 363.66 292 364 C292.66 364.33 293.32 364.66 294 365 C294.33 365.99 294.66 366.98 295 368 C295.66 368.33 296.32 368.66 297 369 C297.66 369.33 298.32 369.66 299 370 C299.33 370.99 299.66 371.98 300 373 C300.66 373.33 301.32 373.66 302 374 C302.66 374.33 303.32 374.66 304 375 C304.33 375.99 304.66 376.98 305 378 C305.66 378.33 306.32 378.66 307 379 C307.66 379.33 308.32 379.66 309 380 C309.33 380.99 309.66 381.98 310 383 C310.66 383.33 311.32 383.66 312 384 C312.66 384.33 313.32 384.66 314 385 C314.33 385.99 314.66 386.98 315 388 C315.66 388.33 316.32 388.66 317 389 C317.66 389.33 318.32 389.66 319 390 C319.33 390.99 319.66 391.98 320 393 C320.66 393.33 321.32 393.66 322 394 C322.66 394.33 323.32 394.66 324 395 C324.33 395.99 324.66 396.98 325 398 C325.66 398.33 326.32 398.66 327 399 C327.66 399.33 328.32 399.66 329 400 C329.33 400.99 329.66 401.98 330 403 C331.97 404.15 331.97 404.15 334 405 C343.43 414.43 335 431.66 335 445 C224.78 445 114.56 445 1 445 C1 443.02 1 441.04 1 439 C0.34 439 -0.32 439 -1 439 C-1 435.7 -1 432.4 -1 429 C-1.99 428.67 -2.98 428.34 -4 428 C-4 426.68 -4 425.36 -4 424 C-4.66 424 -5.32 424 -6 424 C-6 422.35 -6 420.7 -6 419 C-6.64 418.73 -7.28 418.46 -7.94 418.19 C-10 417 -10 417 -11 414 C-11.66 413.67 -12.32 413.34 -13 413 C-15 412 -15 412 -16 409 C-17.65 409 -19.3 409 -21 409 C-21 408.34 -21 407.68 -21 407 C-22.65 406.67 -24.3 406.34 -26 406 C-26 405.34 -26 404.68 -26 404 C-27.65 404 -29.3 404 -31 404 C-31 403.34 -31 402.68 -31 402 C-31.77 402.01 -32.54 402.02 -33.34 402.04 C-34.84 402.05 -34.84 402.05 -36.38 402.06 C-37.37 402.07 -38.37 402.09 -39.4 402.1 C-42 402 -42 402 -44 401 C-44.05 355.81 -44.08 310.62 -44.1 265.43 C-44.1 260.1 -44.11 254.77 -44.11 249.44 C-44.11 248.38 -44.11 247.32 -44.11 246.22 C-44.12 229.02 -44.14 211.82 -44.15 194.61 C-44.17 176.97 -44.18 159.33 -44.19 141.69 C-44.19 130.8 -44.2 119.91 -44.22 109.02 C-44.23 101.56 -44.23 94.1 -44.23 86.64 C-44.23 82.33 -44.23 78.02 -44.24 73.71 C-44.25 69.77 -44.25 65.83 -44.24 61.89 C-44.24 60.46 -44.24 59.02 -44.25 57.59 C-44.26 55.66 -44.25 53.72 -44.25 51.79 C-44.25 50.17 -44.25 50.17 -44.25 48.52 C-44 46 -44 46 -42 44 C-39.05 43 -36.35 42.89 -33.25 42.94 C-32.45 42.95 -31.65 42.96 -30.83 42.96 C-30.22 42.98 -29.62 42.99 -29 43 C-28.67 42.01 -28.34 41.02 -28 40 C-24.68 38.29 -22.82 38 -19 38 C-18.67 37.01 -18.34 36.02 -18 35 C-17.34 35 -16.68 35 -16 35 C-16 34.34 -16 33.68 -16 33 C-15.34 33 -14.68 33 -14 33 C-13.67 32.01 -13.34 31.02 -13 30 C-12.34 30 -11.68 30 -11 30 C-11 29.34 -11 28.68 -11 28 C-10.34 28 -9.68 28 -9 28 C-8.5 26.52 -8.5 26.52 -8 25 C-7.34 25 -6.68 25 -6 25 C-5.81 23.92 -5.81 23.92 -5.62 22.81 C-5.01 20.04 -4.12 17.6 -3 15 C-2.34 15 -1.68 15 -1 15 C-1.01 14.41 -1.02 13.82 -1.04 13.21 C-1.08 8.99 -1.03 5.12 0 1 C0 0.67 0 0.34 0 0 Z " fill="#FAFCFC" transform="translate(108,64)"/>
<path d="M0 0 C45.17 -0.02 90.35 -0.04 135.52 -0.05 C140.85 -0.05 146.18 -0.05 151.51 -0.05 C153.1 -0.06 153.1 -0.06 154.72 -0.06 C171.92 -0.06 189.11 -0.07 206.31 -0.08 C223.94 -0.09 241.58 -0.09 259.21 -0.09 C270.1 -0.1 280.99 -0.1 291.88 -0.11 C299.33 -0.11 306.79 -0.11 314.25 -0.11 C318.56 -0.11 322.87 -0.11 327.17 -0.12 C331.11 -0.12 335.05 -0.12 338.99 -0.12 C340.42 -0.12 341.85 -0.12 343.28 -0.12 C345.22 -0.13 347.15 -0.13 349.09 -0.12 C350.16 -0.12 351.24 -0.12 352.35 -0.12 C355 0 355 0 358 1 C360.62 5.41 360.19 10.05 360 15 C360.99 15.33 361.98 15.66 363 16 C364.71 19.32 365 21.18 365 25 C365.99 25.33 366.98 25.66 368 26 C368 26.66 368 27.32 368 28 C368.66 28 369.32 28 370 28 C370 28.66 370 29.32 370 30 C370.99 30.33 371.98 30.66 373 31 C373 31.66 373 32.32 373 33 C373.66 33 374.32 33 375 33 C375 33.66 375 34.32 375 35 C375.99 35.33 376.98 35.66 378 36 C378 36.66 378 37.32 378 38 C378.72 38.12 379.44 38.25 380.19 38.38 C382.96 38.99 385.4 39.88 388 41 C388 41.66 388 42.32 388 43 C388.6 42.98 389.21 42.95 389.83 42.93 C390.63 42.91 391.43 42.89 392.25 42.88 C393.43 42.84 393.43 42.84 394.64 42.8 C397 43 397 43 401 45 C401 162.81 401 280.62 401 402 C397.37 402 393.74 402 390 402 C390 402.66 390 403.32 390 404 C388.35 404 386.7 404 385 404 C384.67 404.99 384.34 405.98 384 407 C382.68 407 381.36 407 380 407 C380 407.66 380 408.32 380 409 C378.35 409 376.7 409 375 409 C374.73 409.64 374.46 410.28 374.19 410.94 C373 413 373 413 370 414 C369.67 414.66 369.34 415.32 369 416 C368.67 416.66 368.34 417.32 368 418 C367.01 418.33 366.02 418.66 365 419 C365 420.65 365 422.3 365 424 C364.34 424 363.68 424 363 424 C362.67 425.65 362.34 427.3 362 429 C361.34 429 360.68 429 360 429 C360 432.3 360 435.6 360 439 C359.34 439 358.68 439 358 439 C358 440.98 358 442.96 358 445 C247.78 445 137.56 445 24 445 C24 432.13 24 419.26 24 406 C24.99 405.01 25.98 404.02 27 403 C27.66 403 28.32 403 29 403 C29.27 402.36 29.54 401.72 29.81 401.06 C31 399 31 399 34 398 C34.33 397.34 34.66 396.68 35 396 C36 394 36 394 39 393 C39.33 392.34 39.66 391.68 40 391 C41 389 41 389 44 388 C44.33 387.34 44.66 386.68 45 386 C46 384 46 384 49 383 C49.33 382.34 49.66 381.68 50 381 C51 379 51 379 54 378 C54.33 377.34 54.66 376.68 55 376 C56 374 56 374 59 373 C59.33 372.34 59.66 371.68 60 371 C61 369 61 369 64 368 C64.33 367.34 64.66 366.68 65 366 C66 364 66 364 69 363 C69.33 362.34 69.66 361.68 70 361 C71 359 71 359 74 358 C74.33 357.34 74.66 356.68 75 356 C76 354 76 354 79 353 C79.33 352.34 79.66 351.68 80 351 C81 349 81 349 84 348 C84.33 347.34 84.66 346.68 85 346 C86 344 86 344 89 343 C89.33 342.34 89.66 341.68 90 341 C91 339 91 339 94 338 C94.33 337.34 94.66 336.68 95 336 C96 334 96 334 99 333 C99.33 332.34 99.66 331.68 100 331 C101 329 101 329 104 328 C104.33 327.34 104.66 326.68 105 326 C106 324 106 324 109 323 C109.33 322.34 109.66 321.68 110 321 C111 319 111 319 114 318 C114.33 317.34 114.66 316.68 115 316 C116 314 116 314 119 313 C119.33 312.34 119.66 311.68 120 311 C121 309 121 309 124 308 C124.33 307.34 124.66 306.68 125 306 C126 304 126 304 129 303 C129.33 302.34 129.66 301.68 130 301 C131 299 131 299 134 298 C134.33 297.34 134.66 296.68 135 296 C136 294 136 294 139 293 C139.33 292.34 139.66 291.68 140 291 C141 289 141 289 144 288 C144.33 287.34 144.66 286.68 145 286 C146 284 146 284 149 283 C149.33 282.34 149.66 281.68 150 281 C151 279 151 279 154 278 C154.33 277.34 154.66 276.68 155 276 C156 274 156 274 159 273 C159.33 272.34 159.66 271.68 160 271 C161 269 161 269 164 268 C164.33 267.34 164.66 266.68 165 266 C166 264 166 264 169 263 C169.33 262.34 169.66 261.68 170 261 C171 259 171 259 174 258 C175.15 256.03 175.15 256.03 176 254 C177 253 177 253 179.5 252.88 C182 253 182 253 183 254 C183.15 256.97 183.24 259.92 183.28 262.89 C183.3 263.79 183.32 264.68 183.34 265.61 C183.4 268.49 183.45 271.37 183.5 274.25 C183.57 278.03 183.64 281.8 183.72 285.58 C183.74 286.88 183.74 286.88 183.76 288.21 C183.84 292.26 184 296.05 185 300 C185.99 300.33 186.98 300.66 188 301 C188 301.66 188 302.32 188 303 C188.66 303 189.32 303 190 303 C190 303.66 190 304.32 190 305 C190.99 305.33 191.98 305.66 193 306 C193 306.66 193 307.32 193 308 C193.63 308 194.25 308 194.9 308 C200.27 308 205.63 308 211 308 C211.33 307.01 211.66 306.02 212 305 C212.66 305 213.32 305 214 305 C214 304.34 214 303.68 214 303 C214.66 303 215.32 303 216 303 C216.33 302.01 216.66 301.02 217 300 C217.66 300 218.32 300 219 300 C219 299.34 219 298.68 219 298 C219.66 298 220.32 298 221 298 C221 263.68 221 229.36 221 194 C220.34 194 219.68 194 219 194 C219 192.35 219 190.7 219 189 C218.36 188.73 217.72 188.46 217.06 188.19 C215 187 215 187 214 184 C212.35 184 210.7 184 209 184 C209 183.34 209 182.68 209 182 C174.68 182 140.36 182 105 182 C105 182.66 105 183.32 105 184 C104.34 184 103.68 184 103 184 C102.67 184.99 102.34 185.98 102 187 C101.34 187 100.68 187 100 187 C100 187.66 100 188.32 100 189 C99.34 189 98.68 189 98 189 C97.67 189.99 97.34 190.98 97 192 C96.34 192 95.68 192 95 192 C95 197.94 95 203.88 95 210 C95.99 210.33 96.98 210.66 98 211 C98 211.66 98 212.32 98 213 C98.66 213 99.32 213 100 213 C100 213.66 100 214.32 100 215 C100.99 215.33 101.98 215.66 103 216 C103 216.66 103 217.32 103 218 C107.79 219.21 112.51 219.2 117.42 219.28 C118.77 219.31 118.77 219.31 120.15 219.34 C123.99 219.42 127.84 219.48 131.68 219.55 C134.49 219.6 137.3 219.66 140.11 219.72 C140.99 219.73 141.86 219.75 142.76 219.76 C148.89 219.89 148.89 219.89 150 221 C150.31 223.93 150.44 225.43 148.62 227.81 C147 229 147 229 145 229 C144.73 229.64 144.46 230.28 144.19 230.94 C143 233 143 233 140 234 C139.67 234.66 139.34 235.32 139 236 C138.67 236.66 138.34 237.32 138 238 C137.01 238.33 136.02 238.66 135 239 C134.67 239.66 134.34 240.32 134 241 C133.67 241.66 133.34 242.32 133 243 C132.01 243.33 131.02 243.66 130 244 C129.67 244.66 129.34 245.32 129 246 C128.67 246.66 128.34 247.32 128 248 C127.01 248.33 126.02 248.66 125 249 C124.67 249.66 124.34 250.32 124 251 C123.67 251.66 123.34 252.32 123 253 C122.01 253.33 121.02 253.66 120 254 C119.67 254.66 119.34 255.32 119 256 C118.67 256.66 118.34 257.32 118 258 C117.01 258.33 116.02 258.66 115 259 C114.67 259.66 114.34 260.32 114 261 C113.67 261.66 113.34 262.32 113 263 C112.01 263.33 111.02 263.66 110 264 C109.67 264.66 109.34 265.32 109 266 C108.67 266.66 108.34 267.32 108 268 C107.01 268.33 106.02 268.66 105 269 C104.67 269.66 104.34 270.32 104 271 C103.67 271.66 103.34 272.32 103 273 C102.01 273.33 101.02 273.66 100 274 C99.67 274.66 99.34 275.32 99 276 C98.67 276.66 98.34 277.32 98 278 C97.01 278.33 96.02 278.66 95 279 C94.67 279.66 94.34 280.32 94 281 C93.67 281.66 93.34 282.32 93 283 C92.01 283.33 91.02 283.66 90 284 C89.67 284.66 89.34 285.32 89 286 C88.67 286.66 88.34 287.32 88 288 C87.01 288.33 86.02 288.66 85 289 C84.67 289.66 84.34 290.32 84 291 C83.67 291.66 83.34 292.32 83 293 C82.01 293.33 81.02 293.66 80 294 C79.67 294.66 79.34 295.32 79 296 C78.67 296.66 78.34 297.32 78 298 C77.01 298.33 76.02 298.66 75 299 C74.67 299.66 74.34 300.32 74 301 C73.67 301.66 73.34 302.32 73 303 C72.01 303.33 71.02 303.66 70 304 C69.67 304.66 69.34 305.32 69 306 C68.67 306.66 68.34 307.32 68 308 C67.01 308.33 66.02 308.66 65 309 C64.67 309.66 64.34 310.32 64 311 C63.67 311.66 63.34 312.32 63 313 C62.01 313.33 61.02 313.66 60 314 C59.67 314.66 59.34 315.32 59 316 C58.67 316.66 58.34 317.32 58 318 C57.01 318.33 56.02 318.66 55 319 C54.67 319.66 54.34 320.32 54 321 C53.67 321.66 53.34 322.32 53 323 C52.01 323.33 51.02 323.66 50 324 C49.67 324.66 49.34 325.32 49 326 C48.67 326.66 48.34 327.32 48 328 C47.01 328.33 46.02 328.66 45 329 C44.67 329.66 44.34 330.32 44 331 C43.67 331.66 43.34 332.32 43 333 C42.01 333.33 41.02 333.66 40 334 C39.67 334.66 39.34 335.32 39 336 C38.67 336.66 38.34 337.32 38 338 C37.01 338.33 36.02 338.66 35 339 C34.67 339.66 34.34 340.32 34 341 C33.67 341.66 33.34 342.32 33 343 C32.01 343.33 31.02 343.66 30 344 C29.67 344.66 29.34 345.32 29 346 C28.67 346.66 28.34 347.32 28 348 C27.01 348.33 26.02 348.66 25 349 C24.67 349.66 24.34 350.32 24 351 C23.67 351.66 23.34 352.32 23 353 C22.01 353.33 21.02 353.66 20 354 C19.67 354.66 19.34 355.32 19 356 C18.67 356.66 18.34 357.32 18 358 C17.01 358.33 16.02 358.66 15 359 C14.67 359.66 14.34 360.32 14 361 C13.67 361.66 13.34 362.32 13 363 C12.01 363.33 11.02 363.66 10 364 C9.67 364.66 9.34 365.32 9 366 C8.67 366.66 8.34 367.32 8 368 C7.01 368.33 6.02 368.66 5 369 C4.67 369.66 4.34 370.32 4 371 C3.67 371.66 3.34 372.32 3 373 C2.01 373.33 1.02 373.66 0 374 C-1.15 375.97 -1.15 375.97 -2 378 C-3.87 379.87 -6.53 379.13 -9.01 379.14 C-10.27 379.14 -10.27 379.14 -11.56 379.13 C-12.85 379.13 -12.85 379.13 -14.16 379.14 C-15.98 379.14 -17.81 379.13 -19.63 379.13 C-22.42 379.13 -25.22 379.13 -28.01 379.14 C-29.78 379.14 -31.54 379.13 -33.31 379.13 C-34.15 379.13 -34.99 379.14 -35.85 379.14 C-41.77 379.11 -41.77 379.11 -44 378 C-44.05 335.74 -44.08 293.48 -44.1 251.22 C-44.1 246.23 -44.11 241.25 -44.11 236.26 C-44.11 234.78 -44.11 234.78 -44.11 233.26 C-44.12 217.17 -44.14 201.08 -44.15 184.99 C-44.17 168.5 -44.18 152 -44.19 135.51 C-44.19 125.32 -44.2 115.13 -44.22 104.95 C-44.23 97.97 -44.23 91 -44.23 84.02 C-44.23 79.99 -44.23 75.96 -44.24 71.93 C-44.25 68.24 -44.25 64.56 -44.24 60.87 C-44.24 58.9 -44.25 56.92 -44.26 54.95 C-44.25 53.79 -44.25 52.63 -44.25 51.43 C-44.25 50.42 -44.25 49.42 -44.25 48.38 C-44 46 -44 46 -42 44 C-38.88 44.38 -38.88 44.38 -36 45 C-36 44.34 -36 43.68 -36 43 C-32.7 43 -29.4 43 -26 43 C-25.67 42.01 -25.34 41.02 -25 40 C-23.68 40 -22.36 40 -21 40 C-21 39.34 -21 38.68 -21 38 C-19.35 38 -17.7 38 -16 38 C-15.73 37.36 -15.46 36.72 -15.19 36.06 C-14 34 -14 34 -11 33 C-10.5 32.01 -10.5 32.01 -10 31 C-9 29 -9 29 -6 28 C-6 26.35 -6 24.7 -6 23 C-5.34 23 -4.68 23 -4 23 C-3.67 21.35 -3.34 19.7 -3 18 C-2.34 18 -1.68 18 -1 18 C-1 16.35 -1 14.7 -1 13 C-0.34 13 0.32 13 1 13 C0.67 8.71 0.34 4.42 0 0 Z " fill="#FAFCFC" transform="translate(813,64)"/>
<path d="M0 0 C42.39 -0.02 84.78 -0.04 127.16 -0.05 C132.16 -0.05 137.16 -0.05 142.16 -0.05 C143.16 -0.06 144.15 -0.06 145.18 -0.06 C161.32 -0.06 177.45 -0.07 193.59 -0.08 C210.13 -0.09 226.68 -0.09 243.22 -0.09 C253.44 -0.1 263.66 -0.1 273.87 -0.11 C280.87 -0.11 287.87 -0.11 294.87 -0.11 C298.91 -0.11 302.95 -0.11 307 -0.12 C310.69 -0.12 314.39 -0.12 318.08 -0.12 C320.06 -0.12 322.05 -0.12 324.03 -0.13 C325.19 -0.13 326.35 -0.13 327.55 -0.12 C329.07 -0.12 329.07 -0.12 330.62 -0.12 C333 0 333 0 335 1 C335.07 6.64 335.13 12.28 335.16 17.93 C335.18 19.84 335.2 21.76 335.23 23.68 C335.26 26.44 335.28 29.2 335.29 31.96 C335.31 32.82 335.32 33.68 335.34 34.56 C335.34 35.36 335.34 36.16 335.34 36.99 C335.35 38.04 335.35 38.04 335.36 39.12 C334.89 41.58 333.95 42.48 332 44 C331.34 44 330.68 44 330 44 C329.73 44.64 329.46 45.28 329.19 45.94 C328 48 328 48 325 49 C324.67 49.66 324.34 50.32 324 51 C323.67 51.66 323.34 52.32 323 53 C321.51 53.5 321.51 53.5 320 54 C319.67 54.66 319.34 55.32 319 56 C318.67 56.66 318.34 57.32 318 58 C316.51 58.5 316.51 58.5 315 59 C314.67 59.66 314.34 60.32 314 61 C313.67 61.66 313.34 62.32 313 63 C311.51 63.5 311.51 63.5 310 64 C309.67 64.66 309.34 65.32 309 66 C308.67 66.66 308.34 67.32 308 68 C306.51 68.5 306.51 68.5 305 69 C304.67 69.66 304.34 70.32 304 71 C303.67 71.66 303.34 72.32 303 73 C301.51 73.5 301.51 73.5 300 74 C299.67 74.66 299.34 75.32 299 76 C298.67 76.66 298.34 77.32 298 78 C296.51 78.5 296.51 78.5 295 79 C294.67 79.66 294.34 80.32 294 81 C293.67 81.66 293.34 82.32 293 83 C291.51 83.5 291.51 83.5 290 84 C289.67 84.66 289.34 85.32 289 86 C288.67 86.66 288.34 87.32 288 88 C286.51 88.5 286.51 88.5 285 89 C284.67 89.66 284.34 90.32 284 91 C283.67 91.66 283.34 92.32 283 93 C281.51 93.5 281.51 93.5 280 94 C279.67 94.66 279.34 95.32 279 96 C278.67 96.66 278.34 97.32 278 98 C276.51 98.5 276.51 98.5 275 99 C274.67 99.66 274.34 100.32 274 101 C273.67 101.66 273.34 102.32 273 103 C271.51 103.5 271.51 103.5 270 104 C269.67 104.66 269.34 105.32 269 106 C268.67 106.66 268.34 107.32 268 108 C266.51 108.5 266.51 108.5 265 109 C264.67 109.66 264.34 110.32 264 111 C263.67 111.66 263.34 112.32 263 113 C261.51 113.5 261.51 113.5 260 114 C259.67 114.66 259.34 115.32 259 116 C258.67 116.66 258.34 117.32 258 118 C256.51 118.5 256.51 118.5 255 119 C254.67 119.66 254.34 120.32 254 121 C253.67 121.66 253.34 122.32 253 123 C251.51 123.5 251.51 123.5 250 124 C249.67 124.66 249.34 125.32 249 126 C248.67 126.66 248.34 127.32 248 128 C247.01 128.33 246.02 128.66 245 129 C244.67 129.66 244.34 130.32 244 131 C243.67 131.66 243.34 132.32 243 133 C242.01 133.33 241.02 133.66 240 134 C239.67 134.66 239.34 135.32 239 136 C238.67 136.66 238.34 137.32 238 138 C237.01 138.33 236.02 138.66 235 139 C234.67 139.66 234.34 140.32 234 141 C233.67 141.66 233.34 142.32 233 143 C232.01 143.33 231.02 143.66 230 144 C229.67 144.66 229.34 145.32 229 146 C228.67 146.66 228.34 147.32 228 148 C227.01 148.33 226.02 148.66 225 149 C224.67 149.66 224.34 150.32 224 151 C223.67 151.66 223.34 152.32 223 153 C222.01 153.33 221.02 153.66 220 154 C219.67 154.66 219.34 155.32 219 156 C218.67 156.66 218.34 157.32 218 158 C217.01 158.33 216.02 158.66 215 159 C214.67 159.66 214.34 160.32 214 161 C213.67 161.66 213.34 162.32 213 163 C212.01 163.33 211.02 163.66 210 164 C209.67 164.66 209.34 165.32 209 166 C208.67 166.66 208.34 167.32 208 168 C207.01 168.33 206.02 168.66 205 169 C204.67 169.66 204.34 170.32 204 171 C203.67 171.66 203.34 172.32 203 173 C202.01 173.33 201.02 173.66 200 174 C199.67 174.66 199.34 175.32 199 176 C198.67 176.66 198.34 177.32 198 178 C197.01 178.33 196.02 178.66 195 179 C194.67 179.66 194.34 180.32 194 181 C193.67 181.66 193.34 182.32 193 183 C192.01 183.33 191.02 183.66 190 184 C189.67 184.66 189.34 185.32 189 186 C188.67 186.66 188.34 187.32 188 188 C187.01 188.33 186.02 188.66 185 189 C183.85 190.97 183.85 190.97 183 193 C182 194 182 194 179.5 194.12 C177 194 177 194 176 193 C175.85 190.03 175.76 187.08 175.72 184.11 C175.7 183.21 175.68 182.32 175.66 181.39 C175.6 178.51 175.55 175.63 175.5 172.75 C175.43 168.97 175.36 165.2 175.28 161.42 C175.26 160.12 175.26 160.12 175.24 158.79 C175.16 154.74 175 150.95 174 147 C173.01 146.67 172.02 146.34 171 146 C171 145.34 171 144.68 171 144 C170.34 144 169.68 144 169 144 C169 143.34 169 142.68 169 142 C168.01 141.67 167.02 141.34 166 141 C166 140.34 166 139.68 166 139 C163.69 139 161.38 139 159 139 C159 138.34 159 137.68 159 137 C157.68 137 156.36 137 155 137 C155 137.66 155 138.32 155 139 C152.69 139 150.38 139 148 139 C147.67 139.99 147.34 140.98 147 142 C146.34 142 145.68 142 145 142 C145 142.66 145 143.32 145 144 C144.34 144 143.68 144 143 144 C142.67 144.99 142.34 145.98 142 147 C141.34 147 140.68 147 140 147 C140 147.66 140 148.32 140 149 C139.34 149 138.68 149 138 149 C138 183.32 138 217.64 138 253 C138.66 253 139.32 253 140 253 C140 254.65 140 256.3 140 258 C140.64 258.27 141.28 258.54 141.94 258.81 C144 260 144 260 145 263 C146.65 263 148.3 263 150 263 C150 263.66 150 264.32 150 265 C184.32 265 218.64 265 254 265 C254 264.34 254 263.68 254 263 C254.66 263 255.32 263 256 263 C256.33 262.01 256.66 261.02 257 260 C257.66 260 258.32 260 259 260 C259 259.34 259 258.68 259 258 C259.66 258 260.32 258 261 258 C261.33 257.01 261.66 256.02 262 255 C262.66 255 263.32 255 264 255 C264 249.06 264 243.12 264 237 C263.01 236.67 262.02 236.34 261 236 C261 235.34 261 234.68 261 234 C260.34 234 259.68 234 259 234 C259 233.34 259 232.68 259 232 C258.01 231.67 257.02 231.34 256 231 C256 230.34 256 229.68 256 229 C251.21 227.79 246.49 227.8 241.58 227.72 C240.23 227.69 240.23 227.69 238.85 227.66 C235.01 227.58 231.16 227.52 227.32 227.45 C224.51 227.4 221.7 227.34 218.89 227.28 C217.58 227.26 217.58 227.26 216.24 227.24 C210.11 227.11 210.11 227.11 209 226 C208.69 223.07 208.56 221.57 210.38 219.19 C212 218 212 218 214 218 C214.27 217.36 214.54 216.72 214.81 216.06 C216 214 216 214 219 213 C219.33 212.34 219.66 211.68 220 211 C221 209 221 209 224 208 C224.33 207.34 224.66 206.68 225 206 C226 204 226 204 229 203 C229.33 202.34 229.66 201.68 230 201 C231 199 231 199 234 198 C234.33 197.34 234.66 196.68 235 196 C236 194 236 194 239 193 C239.33 192.34 239.66 191.68 240 191 C241 189 241 189 244 188 C244.33 187.34 244.66 186.68 245 186 C246 184 246 184 249 183 C249.33 182.34 249.66 181.68 250 181 C251 179 251 179 254 178 C254.33 177.34 254.66 176.68 255 176 C256 174 256 174 259 173 C259.33 172.34 259.66 171.68 260 171 C261 169 261 169 264 168 C264.33 167.34 264.66 166.68 265 166 C266 164 266 164 269 163 C269.33 162.34 269.66 161.68 270 161 C271 159 271 159 274 158 C274.33 157.34 274.66 156.68 275 156 C276 154 276 154 279 153 C279.33 152.34 279.66 151.68 280 151 C281 149 281 149 284 148 C284.33 147.34 284.66 146.68 285 146 C286 144 286 144 289 143 C289.33 142.34 289.66 141.68 290 141 C291 139 291 139 294 138 C294.33 137.34 294.66 136.68 295 136 C296 134 296 134 299 133 C299.33 132.34 299.66 131.68 300 131 C301 129 301 129 304 128 C304.33 127.34 304.66 126.68 305 126 C306 124 306 124 309 123 C309.33 122.34 309.66 121.68 310 121 C311 119 311 119 314 118 C314.33 117.34 314.66 116.68 315 116 C316 114 316 114 319 113 C319.33 112.34 319.66 111.68 320 111 C321 109 321 109 324 108 C324.33 107.34 324.66 106.68 325 106 C326 104 326 104 329 103 C329.33 102.34 329.66 101.68 330 101 C331 99 331 99 334 98 C334.33 97.34 334.66 96.68 335 96 C336 94 336 94 339 93 C339.33 92.34 339.66 91.68 340 91 C341 89 341 89 344 88 C344.33 87.34 344.66 86.68 345 86 C346 84 346 84 349 83 C349.33 82.34 349.66 81.68 350 81 C351 79 351 79 354 78 C354.33 77.34 354.66 76.68 355 76 C356 74 356 74 359 73 C360.15 71.03 360.15 71.03 361 69 C361.33 68.67 361.66 68.34 362 68 C374.87 68 387.74 68 401 68 C401 178.22 401 288.44 401 402 C399.02 402 397.04 402 395 402 C395 402.66 395 403.32 395 404 C391.7 404 388.4 404 385 404 C384.67 404.99 384.34 405.98 384 407 C382.68 407 381.36 407 380 407 C380 407.66 380 408.32 380 409 C378.35 409 376.7 409 375 409 C374.73 409.64 374.46 410.28 374.19 410.94 C373 413 373 413 370 414 C369.67 414.66 369.34 415.32 369 416 C368.67 416.66 368.34 417.32 368 418 C367.01 418.33 366.02 418.66 365 419 C365 420.65 365 422.3 365 424 C364.34 424 363.68 424 363 424 C362.67 425.65 362.34 427.3 362 429 C361.34 429 360.68 429 360 429 C360 430.65 360 432.3 360 434 C359.34 434 358.68 434 358 434 C358 437.63 358 441.26 358 445 C240.19 445 122.38 445 1 445 C-0.87 441.26 -1.24 440.16 -1.12 436.25 C-1.11 435.45 -1.09 434.65 -1.07 433.83 C-1.05 433.22 -1.02 432.62 -1 432 C-1.99 431.67 -2.98 431.34 -4 431 C-5.71 427.68 -6 425.82 -6 422 C-6.99 421.67 -7.98 421.34 -9 421 C-9 420.34 -9 419.68 -9 419 C-9.66 419 -10.32 419 -11 419 C-11 418.34 -11 417.68 -11 417 C-11.99 416.67 -12.98 416.34 -14 416 C-14 415.34 -14 414.68 -14 414 C-14.66 414 -15.32 414 -16 414 C-16 413.34 -16 412.68 -16 412 C-16.99 411.67 -17.98 411.34 -19 411 C-19 410.34 -19 409.68 -19 409 C-19.66 409 -20.32 409 -21 409 C-21 408.34 -21 407.68 -21 407 C-23.31 407 -25.62 407 -28 407 C-28.5 405.51 -28.5 405.51 -29 404 C-29.58 404.03 -30.16 404.07 -30.76 404.11 C-31.54 404.13 -32.32 404.16 -33.12 404.19 C-33.89 404.22 -34.66 404.26 -35.45 404.29 C-38.73 403.92 -41.09 402.52 -44 401 C-44.05 355.81 -44.08 310.62 -44.1 265.43 C-44.1 260.1 -44.11 254.77 -44.11 249.44 C-44.11 248.38 -44.11 247.32 -44.11 246.22 C-44.12 229.02 -44.14 211.82 -44.15 194.61 C-44.17 176.97 -44.18 159.33 -44.19 141.69 C-44.19 130.8 -44.2 119.91 -44.22 109.02 C-44.23 101.56 -44.23 94.1 -44.23 86.64 C-44.23 82.33 -44.23 78.02 -44.24 73.71 C-44.25 69.77 -44.25 65.83 -44.24 61.89 C-44.24 60.46 -44.24 59.02 -44.25 57.59 C-44.26 55.66 -44.25 53.72 -44.25 51.79 C-44.25 50.17 -44.25 50.17 -44.25 48.52 C-44 46 -44 46 -42 44 C-39.4 44.02 -39.4 44.02 -36.38 44.38 C-35.37 44.49 -34.37 44.6 -33.34 44.71 C-32.18 44.85 -32.18 44.85 -31 45 C-31 44.34 -31 43.68 -31 43 C-29.35 43 -27.7 43 -26 43 C-25.67 42.01 -25.34 41.02 -25 40 C-23.68 40 -22.36 40 -21 40 C-21 39.34 -21 38.68 -21 38 C-19.35 38 -17.7 38 -16 38 C-15.73 37.36 -15.46 36.72 -15.19 36.06 C-14 34 -14 34 -11 33 C-10.5 32.01 -10.5 32.01 -10 31 C-9 29 -9 29 -6 28 C-6 26.35 -6 24.7 -6 23 C-5.34 23 -4.68 23 -4 23 C-3.67 21.35 -3.34 19.7 -3 18 C-2.34 18 -1.68 18 -1 18 C-1 14.7 -1 11.4 -1 8 C-0.34 8 0.32 8 1 8 C0.5 4.04 0.5 4.04 0 0 Z " fill="#FAFCFC" transform="translate(108,769)"/>
<path d="M0 0 C42.37 -0.02 84.74 -0.04 127.11 -0.05 C132.11 -0.05 137.11 -0.05 142.11 -0.05 C143.1 -0.06 144.1 -0.06 145.12 -0.06 C161.25 -0.06 177.38 -0.07 193.51 -0.08 C210.05 -0.09 226.59 -0.09 243.13 -0.09 C253.34 -0.1 263.55 -0.1 273.77 -0.11 C280.76 -0.11 287.76 -0.11 294.75 -0.11 C298.79 -0.11 302.84 -0.11 306.88 -0.12 C310.57 -0.12 314.27 -0.12 317.96 -0.12 C319.94 -0.12 321.92 -0.12 323.9 -0.13 C325.06 -0.13 326.23 -0.13 327.43 -0.12 C328.44 -0.12 329.45 -0.12 330.49 -0.12 C333 0 333 0 336 1 C336 3.31 336 5.62 336 8 C336.66 8 337.32 8 338 8 C338 11.3 338 14.6 338 18 C338.99 18.33 339.98 18.66 341 19 C341 20.32 341 21.64 341 23 C341.66 23 342.32 23 343 23 C343 24.65 343 26.3 343 28 C343.64 28.27 344.28 28.54 344.94 28.81 C347 30 347 30 348 33 C348.66 33.33 349.32 33.66 350 34 C350.66 34.33 351.32 34.66 352 35 C352.33 35.99 352.66 36.98 353 38 C354.65 38 356.3 38 358 38 C358 38.66 358 39.32 358 40 C359.65 40.33 361.3 40.66 363 41 C363 41.66 363 42.32 363 43 C364.65 43 366.3 43 368 43 C368 43.66 368 44.32 368 45 C371.63 45 375.26 45 379 45 C379 162.81 379 280.62 379 402 C375.26 403.87 374.16 404.24 370.25 404.12 C369.45 404.11 368.65 404.09 367.83 404.07 C366.92 404.04 366.92 404.04 366 404 C365.67 404.99 365.34 405.98 365 407 C362.69 407 360.38 407 358 407 C358 407.66 358 408.32 358 409 C357.34 409 356.68 409 356 409 C355.67 409.99 355.34 410.98 355 412 C354.34 412 353.68 412 353 412 C353 412.66 353 413.32 353 414 C351.35 414 349.7 414 348 414 C348 415.65 348 417.3 348 419 C347.34 419 346.68 419 346 419 C345.67 419.99 345.34 420.98 345 422 C344.34 422 343.68 422 343 422 C343 422.66 343 423.32 343 424 C342.34 424 341.68 424 341 424 C341 426.31 341 428.62 341 431 C340.01 431.33 339.02 431.66 338 432 C338.02 432.6 338.05 433.21 338.07 433.83 C338.09 434.63 338.11 435.43 338.12 436.25 C338.16 437.43 338.16 437.43 338.2 438.64 C338 441 338 441 336 445 C218.19 445 100.38 445 -21 445 C-21 441.37 -21 437.74 -21 434 C-21.66 434 -22.32 434 -23 434 C-23 432.35 -23 430.7 -23 429 C-23.99 428.67 -24.98 428.34 -26 428 C-26 426.68 -26 425.36 -26 424 C-26.66 424 -27.32 424 -28 424 C-28 422.35 -28 420.7 -28 419 C-28.64 418.73 -29.28 418.46 -29.94 418.19 C-32 417 -32 417 -33 414 C-33.66 413.67 -34.32 413.34 -35 413 C-37 412 -37 412 -38 409 C-39.65 409 -41.3 409 -43 409 C-43 408.34 -43 407.68 -43 407 C-44.65 406.67 -46.3 406.34 -48 406 C-48 405.34 -48 404.68 -48 404 C-51.3 404 -54.6 404 -58 404 C-58 403.34 -58 402.68 -58 402 C-59.42 402.03 -59.42 402.03 -60.88 402.06 C-64 402 -64 402 -66 401 C-66.05 358.76 -66.08 316.51 -66.1 274.27 C-66.1 269.29 -66.11 264.3 -66.11 259.32 C-66.11 258.33 -66.11 257.33 -66.11 256.31 C-66.12 240.23 -66.14 224.15 -66.15 208.07 C-66.17 191.58 -66.18 175.09 -66.19 158.6 C-66.19 148.42 -66.2 138.24 -66.22 128.06 C-66.23 121.08 -66.23 114.11 -66.23 107.13 C-66.23 103.1 -66.23 99.07 -66.24 95.05 C-66.25 91.36 -66.25 87.68 -66.24 83.99 C-66.24 82.02 -66.25 80.05 -66.26 78.08 C-66.25 76.91 -66.25 75.75 -66.25 74.55 C-66.25 73.55 -66.25 72.54 -66.25 71.5 C-66 69 -66 69 -64 66 C-64 66.66 -64 67.32 -64 68 C-62.83 67.98 -61.67 67.97 -60.47 67.95 C-56.15 67.9 -51.82 67.86 -47.5 67.84 C-45.63 67.82 -43.76 67.8 -41.89 67.77 C-39.2 67.74 -36.51 67.72 -33.82 67.71 C-32.57 67.68 -32.57 67.68 -31.29 67.66 C-25.43 67.66 -25.43 67.66 -23.25 69.4 C-22 71 -22 71 -22 73 C-21.36 73.27 -20.72 73.54 -20.06 73.81 C-18 75 -18 75 -17 78 C-16.01 78.5 -16.01 78.5 -15 79 C-14.01 79.5 -14.01 79.5 -13 80 C-12.67 80.99 -12.34 81.98 -12 83 C-11.01 83.5 -11.01 83.5 -10 84 C-9.01 84.5 -9.01 84.5 -8 85 C-7.67 85.99 -7.34 86.98 -7 88 C-6.01 88.5 -6.01 88.5 -5 89 C-4.01 89.5 -4.01 89.5 -3 90 C-2.67 90.99 -2.34 91.98 -2 93 C-1.34 93.33 -0.68 93.66 0 94 C0.66 94.33 1.32 94.66 2 95 C2.33 95.99 2.66 96.98 3 98 C3.66 98.33 4.32 98.66 5 99 C5.66 99.33 6.32 99.66 7 100 C7.33 100.99 7.66 101.98 8 103 C8.66 103.33 9.32 103.66 10 104 C10.66 104.33 11.32 104.66 12 105 C12.33 105.99 12.66 106.98 13 108 C13.66 108.33 14.32 108.66 15 109 C15.66 109.33 16.32 109.66 17 110 C17.33 110.99 17.66 111.98 18 113 C18.66 113.33 19.32 113.66 20 114 C20.66 114.33 21.32 114.66 22 115 C22.33 115.99 22.66 116.98 23 118 C23.66 118.33 24.32 118.66 25 119 C25.66 119.33 26.32 119.66 27 120 C27.33 120.99 27.66 121.98 28 123 C28.66 123.33 29.32 123.66 30 124 C30.66 124.33 31.32 124.66 32 125 C32.33 125.99 32.66 126.98 33 128 C33.66 128.33 34.32 128.66 35 129 C35.66 129.33 36.32 129.66 37 130 C37.33 130.99 37.66 131.98 38 133 C38.66 133.33 39.32 133.66 40 134 C40.66 134.33 41.32 134.66 42 135 C42.33 135.99 42.66 136.98 43 138 C43.66 138.33 44.32 138.66 45 139 C45.66 139.33 46.32 139.66 47 140 C47.33 140.99 47.66 141.98 48 143 C48.66 143.33 49.32 143.66 50 144 C50.66 144.33 51.32 144.66 52 145 C52.33 145.99 52.66 146.98 53 148 C53.66 148.33 54.32 148.66 55 149 C55.66 149.33 56.32 149.66 57 150 C57.33 150.99 57.66 151.98 58 153 C58.66 153.33 59.32 153.66 60 154 C60.66 154.33 61.32 154.66 62 155 C62.33 155.99 62.66 156.98 63 158 C63.66 158.33 64.32 158.66 65 159 C65.66 159.33 66.32 159.66 67 160 C67.33 160.99 67.66 161.98 68 163 C68.66 163.33 69.32 163.66 70 164 C70.66 164.33 71.32 164.66 72 165 C72.33 165.99 72.66 166.98 73 168 C73.66 168.33 74.32 168.66 75 169 C75.66 169.33 76.32 169.66 77 170 C77.33 170.99 77.66 171.98 78 173 C78.66 173.33 79.32 173.66 80 174 C80.66 174.33 81.32 174.66 82 175 C82.33 175.99 82.66 176.98 83 178 C83.66 178.33 84.32 178.66 85 179 C85.66 179.33 86.32 179.66 87 180 C87.33 180.99 87.66 181.98 88 183 C88.66 183.33 89.32 183.66 90 184 C90.66 184.33 91.32 184.66 92 185 C92.33 185.99 92.66 186.98 93 188 C93.66 188.33 94.32 188.66 95 189 C95.66 189.33 96.32 189.66 97 190 C97.33 190.99 97.66 191.98 98 193 C98.66 193.33 99.32 193.66 100 194 C100.66 194.33 101.32 194.66 102 195 C102.33 195.99 102.66 196.98 103 198 C103.66 198.33 104.32 198.66 105 199 C105.66 199.33 106.32 199.66 107 200 C107.33 200.99 107.66 201.98 108 203 C108.66 203.33 109.32 203.66 110 204 C110.66 204.33 111.32 204.66 112 205 C112.33 205.99 112.66 206.98 113 208 C113.66 208.33 114.32 208.66 115 209 C115.66 209.33 116.32 209.66 117 210 C117.33 210.99 117.66 211.98 118 213 C118.66 213.33 119.32 213.66 120 214 C120.66 214.33 121.32 214.66 122 215 C122.33 215.99 122.66 216.98 123 218 C124.97 219.15 124.97 219.15 127 220 C128 221 128 221 128.12 223.5 C128 226 128 226 127 227 C124.03 227.15 121.08 227.24 118.11 227.28 C117.21 227.3 116.32 227.32 115.39 227.34 C112.51 227.4 109.63 227.45 106.75 227.5 C102.97 227.57 99.2 227.64 95.42 227.72 C94.12 227.74 94.12 227.74 92.79 227.76 C88.74 227.84 84.95 228 81 229 C80.67 229.99 80.34 230.98 80 232 C79.34 232 78.68 232 78 232 C78 232.66 78 233.32 78 234 C77.34 234 76.68 234 76 234 C75.67 234.99 75.34 235.98 75 237 C74.34 237 73.68 237 73 237 C73 242.94 73 248.88 73 255 C73.99 255.33 74.98 255.66 76 256 C76 256.66 76 257.32 76 258 C76.66 258 77.32 258 78 258 C78 258.66 78 259.32 78 260 C78.99 260.33 79.98 260.66 81 261 C81 261.66 81 262.32 81 263 C81.66 263 82.32 263 83 263 C83 263.66 83 264.32 83 265 C117.32 265 151.64 265 187 265 C187 264.34 187 263.68 187 263 C188.65 263 190.3 263 192 263 C192.27 262.36 192.54 261.72 192.81 261.06 C194 259 194 259 197 258 C197 256.35 197 254.7 197 253 C197.66 253 198.32 253 199 253 C199 218.68 199 184.36 199 149 C198.34 149 197.68 149 197 149 C197 148.34 197 147.68 197 147 C196.01 146.67 195.02 146.34 194 146 C194 145.34 194 144.68 194 144 C193.34 144 192.68 144 192 144 C192 143.34 192 142.68 192 142 C191.01 141.67 190.02 141.34 189 141 C189 140.34 189 139.68 189 139 C186.69 139 184.38 139 182 139 C182 138.34 182 137.68 182 137 C180.68 137 179.36 137 178 137 C178 137.66 178 138.32 178 139 C175.69 139 173.38 139 171 139 C170.67 139.99 170.34 140.98 170 142 C169.34 142 168.68 142 168 142 C168 142.66 168 143.32 168 144 C167.34 144 166.68 144 166 144 C165.67 144.99 165.34 145.98 165 147 C164.34 147 163.68 147 163 147 C161.79 151.79 161.8 156.51 161.72 161.42 C161.69 162.77 161.69 162.77 161.66 164.15 C161.58 167.99 161.52 171.84 161.45 175.68 C161.4 178.49 161.34 181.3 161.28 184.11 C161.26 185.42 161.26 185.42 161.24 186.76 C161.11 192.89 161.11 192.89 160 194 C157.07 194.31 155.57 194.44 153.19 192.62 C152 191 152 191 152 189 C151.36 188.73 150.72 188.46 150.06 188.19 C148 187 148 187 147 184 C146.34 183.67 145.68 183.34 145 183 C143 182 143 182 142 179 C141.34 178.67 140.68 178.34 140 178 C138 177 138 177 137 174 C136.34 173.67 135.68 173.34 135 173 C133 172 133 172 132 169 C131.34 168.67 130.68 168.34 130 168 C128 167 128 167 127 164 C126.34 163.67 125.68 163.34 125 163 C123 162 123 162 122 159 C121.34 158.67 120.68 158.34 120 158 C118 157 118 157 117 154 C116.34 153.67 115.68 153.34 115 153 C113 152 113 152 112 149 C111.34 148.67 110.68 148.34 110 148 C108 147 108 147 107 144 C106.34 143.67 105.68 143.34 105 143 C103 142 103 142 102 139 C101.34 138.67 100.68 138.34 100 138 C98 137 98 137 97 134 C96.34 133.67 95.68 133.34 95 133 C93 132 93 132 92 129 C91.34 128.67 90.68 128.34 90 128 C88 127 88 127 87 124 C86.34 123.67 85.68 123.34 85 123 C83 122 83 122 82 119 C81.34 118.67 80.68 118.34 80 118 C78 117 78 117 77 114 C76.34 113.67 75.68 113.34 75 113 C73 112 73 112 72 109 C71.34 108.67 70.68 108.34 70 108 C68 107 68 107 67 104 C66.34 103.67 65.68 103.34 65 103 C63 102 63 102 62 99 C61.34 98.67 60.68 98.34 60 98 C58 97 58 97 57 94 C56.34 93.67 55.68 93.34 55 93 C53 92 53 92 52 89 C51.34 88.67 50.68 88.34 50 88 C48 87 48 87 47 84 C46.34 83.67 45.68 83.34 45 83 C43 82 43 82 42 79 C41.34 78.67 40.68 78.34 40 78 C38 77 38 77 37 74 C36.34 73.67 35.68 73.34 35 73 C33 72 33 72 32 69 C31.34 68.67 30.68 68.34 30 68 C28 67 28 67 27 64 C26.34 63.67 25.68 63.34 25 63 C23 62 23 62 22 59 C21.34 58.67 20.68 58.34 20 58 C18 57 18 57 17 54 C16.34 53.67 15.68 53.34 15 53 C13 52 13 52 12 49 C11.34 48.67 10.68 48.34 10 48 C8 47 8 47 7 44 C5.03 42.85 5.03 42.85 3 42 C2 41 2 41 1.89 37.21 C1.89 35.53 1.89 33.84 1.9 32.15 C1.9 31.27 1.91 30.38 1.91 29.47 C1.91 26.62 1.92 23.78 1.94 20.94 C1.94 19.01 1.95 17.09 1.95 15.17 C1.96 10.45 1.98 5.72 2 1 C1.01 0.5 1.01 0.5 0 0 Z " fill="#FAFCFC" transform="translate(835,769)"/>
<path d="M0 0 C1.07 -0 2.14 -0 3.25 -0 C6.81 -0.01 10.37 -0.01 13.93 -0 C16.49 -0 19.06 -0.01 21.62 -0.01 C27.85 -0.01 34.08 -0.01 40.3 -0.01 C45.37 -0.01 50.43 -0.01 55.49 -0.01 C56.58 -0.01 56.58 -0.01 57.68 -0.01 C59.15 -0.01 60.62 -0.01 62.09 -0.01 C75.83 -0.01 89.57 -0.01 103.32 -0 C115.09 0 126.87 0 138.64 -0 C152.34 -0.01 166.03 -0.01 179.73 -0.01 C181.19 -0.01 182.66 -0.01 184.12 -0.01 C185.2 -0.01 185.2 -0.01 186.3 -0.01 C191.35 -0.01 196.4 -0.01 201.46 -0.01 C208.27 -0.01 215.08 -0.01 221.88 -0 C224.38 -0 226.87 -0 229.37 -0.01 C232.78 -0.01 236.2 -0 239.61 0 C240.59 -0 241.57 -0 242.58 -0.01 C249.04 0.01 255.39 0.44 261.8 1.13 C262.13 2.12 262.46 3.11 262.8 4.13 C264.45 4.13 266.1 4.13 267.8 4.13 C267.8 4.79 267.8 5.45 267.8 6.13 C268.79 6.46 269.78 6.79 270.8 7.13 C270.8 7.79 270.8 8.45 270.8 9.13 C271.46 9.13 272.12 9.13 272.8 9.13 C272.8 10.78 272.8 12.43 272.8 14.13 C273.79 14.46 274.78 14.79 275.8 15.13 C275.83 17.11 275.85 19.09 275.87 21.06 C275.88 22.17 275.89 23.27 275.9 24.4 C275.8 27.13 275.8 27.13 274.8 28.13 C274.71 29.51 274.68 30.89 274.68 32.28 C274.68 33.18 274.67 34.08 274.67 35 C274.67 36 274.68 37 274.68 38.04 C274.68 39.62 274.68 39.62 274.67 41.23 C274.67 44.79 274.67 48.35 274.68 51.91 C274.67 54.45 274.67 56.99 274.67 59.53 C274.67 65.73 274.67 71.93 274.67 78.13 C274.67 83.17 274.67 88.21 274.67 93.25 C274.67 93.96 274.67 94.68 274.67 95.41 C274.67 96.87 274.67 98.32 274.67 99.78 C274.67 113.42 274.67 127.07 274.68 140.71 C274.68 152.43 274.68 164.16 274.67 175.88 C274.67 189.47 274.67 203.07 274.67 216.66 C274.67 218.11 274.67 219.56 274.67 221.01 C274.67 221.72 274.67 222.43 274.67 223.17 C274.67 228.2 274.67 233.24 274.67 238.27 C274.67 245.04 274.67 251.81 274.67 258.58 C274.67 261.07 274.67 263.57 274.67 266.06 C274.67 269.45 274.67 272.83 274.68 276.22 C274.67 277.72 274.67 277.72 274.67 279.25 C274.67 280.6 274.67 280.6 274.68 281.98 C274.68 282.76 274.68 283.54 274.68 284.35 C274.61 286.15 274.61 286.15 275.8 287.13 C275.88 289.15 275.89 291.17 275.87 293.19 C275.86 294.29 275.85 295.4 275.84 296.54 C275.83 297.39 275.82 298.25 275.8 299.13 C274.81 299.46 273.82 299.79 272.8 300.13 C272.8 301.78 272.8 303.43 272.8 305.13 C272.14 305.13 271.48 305.13 270.8 305.13 C270.47 306.12 270.14 307.11 269.8 308.13 C269.14 308.13 268.48 308.13 267.8 308.13 C267.8 308.79 267.8 309.45 267.8 310.13 C266.15 310.13 264.5 310.13 262.8 310.13 C262.47 311.12 262.14 312.11 261.8 313.13 C259.83 313.15 257.85 313.17 255.87 313.19 C254.77 313.2 253.66 313.21 252.53 313.22 C249.8 313.13 249.8 313.13 248.8 312.13 C247.42 312.03 246.04 312 244.66 312 C243.31 312 243.31 312 241.93 311.99 C240.93 312 239.93 312 238.9 312 C237.84 312 236.79 312 235.7 312 C232.14 311.99 228.58 311.99 225.02 312 C222.48 312 219.94 311.99 217.4 311.99 C211.2 311.99 205 311.99 198.8 311.99 C193.76 311.99 188.72 311.99 183.69 311.99 C182.97 311.99 182.25 311.99 181.52 311.99 C180.06 311.99 178.61 311.99 177.16 311.99 C163.51 311.99 149.86 311.99 136.22 312 C124.5 312 112.78 312 101.05 312 C87.46 311.99 73.86 311.99 60.27 311.99 C58.82 311.99 57.37 311.99 55.92 311.99 C54.85 311.99 54.85 311.99 53.76 311.99 C48.73 311.99 43.69 311.99 38.66 311.99 C31.89 311.99 25.12 311.99 18.35 312 C15.86 312 13.37 312 10.87 311.99 C7.49 311.99 4.1 311.99 0.71 312 C-0.79 312 -0.79 312 -2.32 311.99 C-3.67 312 -3.67 312 -5.05 312 C-5.83 312 -6.61 312 -7.42 312 C-9.22 311.93 -9.22 311.93 -10.2 313.13 C-12.21 313.2 -14.24 313.21 -16.26 313.19 C-17.36 313.18 -18.47 313.17 -19.61 313.16 C-20.89 313.14 -20.89 313.14 -22.2 313.13 C-22.69 311.64 -22.69 311.64 -23.2 310.13 C-24.85 310.13 -26.5 310.13 -28.2 310.13 C-28.2 309.47 -28.2 308.81 -28.2 308.13 C-29.19 307.8 -30.18 307.47 -31.2 307.13 C-31.2 306.47 -31.2 305.81 -31.2 305.13 C-31.86 305.13 -32.52 305.13 -33.2 305.13 C-33.2 303.48 -33.2 301.83 -33.2 300.13 C-34.19 299.8 -35.18 299.47 -36.2 299.13 C-36.94 291.35 -37.34 283.66 -37.32 275.85 C-37.32 274.78 -37.33 273.71 -37.33 272.61 C-37.33 269.07 -37.33 265.52 -37.32 261.98 C-37.33 259.42 -37.33 256.87 -37.33 254.31 C-37.33 248.12 -37.33 241.92 -37.33 235.72 C-37.33 230.68 -37.33 225.64 -37.33 220.6 C-37.33 219.88 -37.33 219.16 -37.33 218.42 C-37.33 216.95 -37.33 215.49 -37.33 214.03 C-37.33 200.35 -37.33 186.66 -37.32 172.98 C-37.32 161.26 -37.32 149.53 -37.33 137.81 C-37.33 124.17 -37.33 110.53 -37.33 96.89 C-37.33 95.44 -37.33 93.98 -37.33 92.52 C-37.33 91.81 -37.33 91.09 -37.33 90.35 C-37.33 85.32 -37.33 80.29 -37.33 75.26 C-37.33 68.48 -37.33 61.7 -37.33 54.92 C-37.33 52.44 -37.33 49.96 -37.33 47.47 C-37.33 44.07 -37.33 40.68 -37.32 37.28 C-37.32 36.3 -37.33 35.33 -37.33 34.32 C-37.31 27.88 -36.88 21.54 -36.2 15.13 C-35.21 14.8 -34.22 14.47 -33.2 14.13 C-33.2 12.48 -33.2 10.83 -33.2 9.13 C-32.54 9.13 -31.88 9.13 -31.2 9.13 C-30.87 8.14 -30.54 7.15 -30.2 6.13 C-29.54 6.13 -28.88 6.13 -28.2 6.13 C-28.2 5.47 -28.2 4.81 -28.2 4.13 C-26.55 4.13 -24.9 4.13 -23.2 4.13 C-22.87 3.14 -22.54 2.15 -22.2 1.13 C-14.77 0.34 -7.46 -0.02 0 0 Z " fill="#FAFCFC" transform="translate(520.1953125,482.8730163574219)"/>
<path d="M0 0 C1.61 0.03 1.61 0.03 3.25 0.06 C5.51 0.11 7.77 0.16 10.02 0.21 C13.49 0.29 16.95 0.36 20.41 0.42 C22.61 0.47 24.8 0.51 27 0.56 C28.04 0.58 29.08 0.6 30.14 0.62 C31.11 0.65 32.07 0.67 33.06 0.69 C34.33 0.72 34.33 0.72 35.62 0.75 C37.8 0.91 37.8 0.91 40.8 1.91 C40.8 2.57 40.8 3.23 40.8 3.91 C41.52 4.04 42.24 4.16 42.99 4.29 C48.41 5.49 48.41 5.49 50.8 6.91 C52.11 10.54 52.11 10.54 52.8 13.91 C53.46 13.91 54.12 13.91 54.8 13.91 C54.8 36.68 54.8 59.45 54.8 82.91 C54.14 82.91 53.48 82.91 52.8 82.91 C52.8 83.57 52.8 84.23 52.8 84.91 C52.14 84.91 51.48 84.91 50.8 84.91 C50.31 86.4 50.31 86.4 49.8 87.91 C49.14 87.91 48.48 87.91 47.8 87.91 C47.8 88.57 47.8 89.23 47.8 89.91 C47.14 89.91 46.48 89.91 45.8 89.91 C45.8 90.57 45.8 91.23 45.8 91.91 C23.03 91.91 0.26 91.91 -23.2 91.91 C-23.2 91.25 -23.2 90.59 -23.2 89.91 C-24.27 89.77 -25.34 89.63 -26.45 89.48 C-29.14 88.74 -29.99 88.25 -31.48 85.85 C-32.16 84.25 -32.79 82.64 -33.38 81.01 C-34.11 78.74 -34.11 78.74 -36.2 76.91 C-36.49 74.78 -36.49 74.78 -36.55 72.12 C-36.58 71.12 -36.6 70.12 -36.63 69.09 C-36.65 68.01 -36.67 66.92 -36.68 65.81 C-36.71 64.7 -36.73 63.58 -36.76 62.44 C-36.81 60.08 -36.85 57.72 -36.89 55.36 C-36.95 51.76 -37.03 48.16 -37.12 44.56 C-37.16 42.27 -37.2 39.98 -37.25 37.68 C-37.27 36.61 -37.3 35.54 -37.32 34.43 C-37.4 28.83 -37.11 24.2 -35.2 18.91 C-34.54 18.91 -33.88 18.91 -33.2 18.91 C-33.2 17.26 -33.2 15.61 -33.2 13.91 C-32.54 13.91 -31.88 13.91 -31.2 13.91 C-30.87 12.26 -30.54 10.61 -30.2 8.91 C-29.54 8.91 -28.88 8.91 -28.2 8.91 C-27.87 7.92 -27.54 6.93 -27.2 5.91 C-25.88 5.91 -24.56 5.91 -23.2 5.91 C-23.2 5.25 -23.2 4.59 -23.2 3.91 C-21.55 3.91 -19.9 3.91 -18.2 3.91 C-17.87 2.92 -17.54 1.93 -17.2 0.91 C-11.45 -0.35 -5.85 -0.14 0 0 Z " fill="#F9FBFB" transform="translate(1225.19921875,1188.0859375)"/>
<path d="M0 0 C7.77 -0.02 15.54 -0.04 23.31 -0.05 C26.92 -0.06 30.53 -0.06 34.14 -0.08 C37.62 -0.09 41.1 -0.09 44.58 -0.09 C46.56 -0.1 48.54 -0.11 50.51 -0.11 C51.71 -0.11 52.91 -0.11 54.15 -0.11 C55.21 -0.12 56.27 -0.12 57.36 -0.12 C60 0 60 0 63 1 C63 1.66 63 2.32 63 3 C65.31 3 67.62 3 70 3 C70 3.66 70 4.32 70 5 C70.99 5.33 71.98 5.66 73 6 C73 6.66 73 7.32 73 8 C73.66 8 74.32 8 75 8 C75 9.65 75 11.3 75 13 C75.66 13 76.32 13 77 13 C77 34.78 77 56.56 77 79 C76.34 79 75.68 79 75 79 C75 80.65 75 82.3 75 84 C74.34 84 73.68 84 73 84 C72.51 85.49 72.51 85.49 72 87 C71.34 87 70.68 87 70 87 C70 87.66 70 88.32 70 89 C66.51 89.79 63.25 90.14 59.67 90.19 C58.12 90.21 58.12 90.21 56.53 90.24 C54.87 90.26 54.87 90.26 53.17 90.28 C51.45 90.31 51.45 90.31 49.7 90.34 C44.81 90.42 39.91 90.48 35.02 90.55 C31.44 90.6 27.87 90.66 24.3 90.72 C23.18 90.73 22.06 90.75 20.91 90.76 C19.89 90.78 18.86 90.79 17.81 90.81 C16.9 90.82 15.99 90.84 15.06 90.85 C13.01 90.77 13.01 90.77 12 92 C9.98 92.07 7.96 92.08 5.94 92.06 C4.83 92.05 3.73 92.04 2.59 92.04 C1.74 92.02 0.88 92.01 0 92 C-0.33 91.01 -0.66 90.02 -1 89 C-1.66 88.67 -2.32 88.34 -3 88 C-5 87 -5 87 -6 84 C-6.66 83.71 -7.32 83.42 -8 83.12 C-10 82 -10 82 -10.75 79.38 C-10.87 78.2 -10.87 78.2 -11 77 C-11.99 76.67 -12.98 76.34 -14 76 C-14.87 68.93 -15.09 62.04 -14.91 54.92 C-14.89 53.9 -14.87 52.88 -14.85 51.84 C-14.8 49.7 -14.75 47.57 -14.7 45.44 C-14.62 42.18 -14.56 38.92 -14.49 35.66 C-14.45 33.58 -14.4 31.5 -14.35 29.42 C-14.33 28.45 -14.31 27.48 -14.29 26.48 C-14.26 25.11 -14.26 25.11 -14.22 23.72 C-14.2 22.93 -14.18 22.14 -14.16 21.32 C-13.79 15.98 -12.74 12.95 -9 9 C-8.01 8.67 -7.02 8.34 -6 8 C-5.71 7.34 -5.42 6.68 -5.12 6 C-4 4 -4 4 -1.38 3.25 C-0.59 3.17 0.19 3.09 1 3 C0.67 2.01 0.34 1.02 0 0 Z " fill="#F9FBFB" transform="translate(1203,704)"/>
<path d="M0 0 C0.5 1.48 0.5 1.48 1 3 C2.09 2.94 3.19 2.88 4.31 2.81 C8 3 8 3 9.94 4.38 C11 6 11 6 11 8 C11.64 8.27 12.28 8.54 12.94 8.81 C15 10 15 10 16 13 C16.99 13.33 17.98 13.66 19 14 C19.03 15.98 19.05 17.96 19.06 19.94 C19.07 21.04 19.09 22.14 19.1 23.28 C19 26 19 26 18 27 C17.88 28.6 17.83 30.2 17.81 31.81 C17.79 32.83 17.78 33.86 17.76 34.91 C17.75 36.03 17.73 37.15 17.72 38.3 C17.7 39.44 17.68 40.58 17.66 41.75 C17.6 45.42 17.55 49.08 17.5 52.75 C17.43 57.56 17.36 62.36 17.28 67.17 C17.27 68.28 17.25 69.39 17.24 70.53 C17.22 71.57 17.21 72.61 17.19 73.67 C17.17 75.04 17.17 75.04 17.15 76.43 C17 79.04 16.57 81.46 16 84 C15.34 84 14.68 84 14 84 C13.5 85.48 13.5 85.48 13 87 C12.34 87 11.68 87 11 87 C11 87.66 11 88.32 11 89 C9.35 89 7.7 89 6 89 C6 89.66 6 90.32 6 91 C-15.78 91 -37.56 91 -60 91 C-60 90.34 -60 89.68 -60 89 C-61.65 89 -63.3 89 -65 89 C-65 88.34 -65 87.68 -65 87 C-65.99 86.67 -66.98 86.34 -68 86 C-68 85.34 -68 84.68 -68 84 C-68.66 84 -69.32 84 -70 84 C-70.19 82.58 -70.19 82.58 -70.38 81.12 C-70.72 77.91 -70.72 77.91 -73 76 C-73.25 73.52 -73.25 73.52 -73.24 70.36 C-73.25 69.18 -73.25 68 -73.25 66.78 C-73.25 65.5 -73.24 64.21 -73.23 62.89 C-73.23 61.58 -73.23 60.26 -73.23 58.91 C-73.23 56.12 -73.22 53.33 -73.21 50.54 C-73.19 46.98 -73.18 43.42 -73.19 39.86 C-73.19 36.45 -73.18 33.05 -73.17 29.64 C-73.17 28.37 -73.17 27.09 -73.16 25.78 C-73.16 24.58 -73.15 23.39 -73.15 22.16 C-73.14 21.11 -73.14 20.06 -73.13 18.99 C-73 15.92 -72.57 13.01 -72 10 C-71.01 10 -70.02 10 -69 10 C-66.33 9.03 -65.25 8.43 -63.81 5.94 C-63.54 5.3 -63.28 4.66 -63 4 C-62 3 -62 3 -58.44 2.94 C-57.3 2.96 -56.17 2.98 -55 3 C-55 2.34 -55 1.68 -55 1 C-55.66 0.67 -56.32 0.34 -57 0 C-50.01 -0.17 -43.01 -0.33 -36.02 -0.48 C-33.64 -0.54 -31.27 -0.59 -28.89 -0.65 C-25.47 -0.73 -22.04 -0.81 -18.62 -0.88 C-17.56 -0.91 -16.51 -0.93 -15.42 -0.96 C-10.14 -1.07 -5.19 -0.95 0 0 Z " fill="#F8FAFA" transform="translate(777,1189)"/>
<path d="M0 0 C1.14 0.02 2.27 0.04 3.44 0.06 C5.83 0.11 8.22 0.16 10.6 0.21 C14.27 0.29 17.93 0.36 21.6 0.42 C23.92 0.47 26.24 0.51 28.56 0.56 C29.66 0.58 30.76 0.6 31.89 0.62 C32.9 0.65 33.92 0.67 34.96 0.69 C35.85 0.71 36.74 0.73 37.66 0.75 C39.82 0.91 39.82 0.91 41.82 1.91 C41.82 2.57 41.82 3.23 41.82 3.91 C43.47 3.91 45.12 3.91 46.82 3.91 C46.82 4.57 46.82 5.23 46.82 5.91 C47.81 6.24 48.8 6.57 49.82 6.91 C49.82 7.57 49.82 8.23 49.82 8.91 C50.48 8.91 51.14 8.91 51.82 8.91 C51.82 10.56 51.82 12.21 51.82 13.91 C52.48 13.91 53.14 13.91 53.82 13.91 C53.82 35.69 53.82 57.47 53.82 79.91 C53.16 79.91 52.5 79.91 51.82 79.91 C51.82 81.56 51.82 83.21 51.82 84.91 C51.16 84.91 50.5 84.91 49.82 84.91 C49.32 86.4 49.32 86.4 48.82 87.91 C48.16 87.91 47.5 87.91 46.82 87.91 C46.82 88.57 46.82 89.23 46.82 89.91 C39.83 91.22 32.84 91.08 25.75 91.08 C24.38 91.09 23.01 91.09 21.64 91.09 C18.79 91.1 15.93 91.1 13.07 91.1 C9.42 91.1 5.77 91.11 2.12 91.13 C-0.7 91.14 -3.53 91.14 -6.35 91.14 C-8.35 91.14 -10.34 91.16 -12.34 91.17 C-14.17 91.16 -14.17 91.16 -16.04 91.16 C-17.1 91.16 -18.17 91.16 -19.28 91.16 C-22.31 90.9 -24.47 90.29 -27.18 88.91 C-27.88 87.6 -28.55 86.26 -29.18 84.91 C-31.18 83.71 -31.18 83.71 -33.18 82.91 C-34.18 81.91 -34.18 81.91 -34.25 78.35 C-34.23 77.22 -34.2 76.08 -34.18 74.91 C-35.17 74.58 -36.16 74.25 -37.18 73.91 C-37.35 67.24 -37.51 60.57 -37.67 53.9 C-37.72 51.63 -37.77 49.37 -37.83 47.1 C-37.91 43.83 -37.99 40.56 -38.06 37.29 C-38.09 36.29 -38.12 35.29 -38.14 34.25 C-38.27 28.36 -37.97 22.75 -37.18 16.91 C-36.19 16.58 -35.2 16.25 -34.18 15.91 C-34.1 15.13 -34.02 14.35 -33.93 13.54 C-33.69 12.67 -33.44 11.81 -33.18 10.91 C-31.25 9.85 -31.25 9.85 -29.18 8.91 C-28.87 8.23 -28.56 7.55 -28.25 6.85 C-27.9 6.21 -27.54 5.57 -27.18 4.91 C-24.56 4.16 -24.56 4.16 -22.18 3.91 C-21.85 2.92 -21.52 1.93 -21.18 0.91 C-14.06 -0.05 -7.18 -0.16 0 0 Z " fill="#F9FBFB" transform="translate(1226.18359375,483.0859375)"/>
<path d="M0 0 C1.03 0.02 2.05 0.04 3.11 0.06 C5.26 0.11 7.41 0.16 9.56 0.21 C12.86 0.29 16.16 0.36 19.47 0.42 C21.56 0.47 23.66 0.51 25.75 0.56 C26.74 0.58 27.73 0.6 28.75 0.62 C29.66 0.65 30.57 0.67 31.51 0.69 C32.31 0.71 33.12 0.73 33.95 0.75 C35.91 0.91 35.91 0.91 37.91 1.91 C37.91 2.57 37.91 3.23 37.91 3.91 C39 3.85 40.1 3.79 41.22 3.73 C44.91 3.91 44.91 3.91 46.85 5.29 C47.91 6.91 47.91 6.91 47.91 8.91 C48.53 9.14 49.15 9.37 49.79 9.6 C52.62 11.35 52.92 12.76 53.91 15.91 C54.16 18.82 54.16 18.82 54.15 22.06 C54.16 23.89 54.16 23.89 54.16 25.75 C54.15 27.72 54.15 27.72 54.14 29.72 C54.14 31.08 54.14 32.45 54.14 33.82 C54.14 36.68 54.13 39.54 54.12 42.4 C54.1 46.05 54.1 49.7 54.1 53.35 C54.1 56.17 54.09 58.99 54.08 61.81 C54.08 63.81 54.08 65.8 54.07 67.8 C54.04 73.6 53.98 79.2 52.91 84.91 C52.25 84.91 51.59 84.91 50.91 84.91 C50.42 86.4 50.42 86.4 49.91 87.91 C49.25 87.91 48.59 87.91 47.91 87.91 C47.91 88.57 47.91 89.23 47.91 89.91 C46.26 89.91 44.61 89.91 42.91 89.91 C42.91 90.57 42.91 91.23 42.91 91.91 C21.13 91.91 -0.65 91.91 -23.09 91.91 C-23.09 91.25 -23.09 90.59 -23.09 89.91 C-24.74 89.91 -26.39 89.91 -28.09 89.91 C-28.09 89.25 -28.09 88.59 -28.09 87.91 C-29.08 87.58 -30.07 87.25 -31.09 86.91 C-31.09 86.25 -31.09 85.59 -31.09 84.91 C-31.75 84.91 -32.41 84.91 -33.09 84.91 C-33.21 84.11 -33.34 83.31 -33.46 82.48 C-33.67 81.63 -33.88 80.79 -34.09 79.91 C-34.75 79.58 -35.41 79.25 -36.09 78.91 C-36.26 71.53 -36.42 64.15 -36.57 56.76 C-36.63 54.26 -36.68 51.75 -36.74 49.24 C-36.82 45.62 -36.9 42 -36.97 38.39 C-37.01 36.72 -37.01 36.72 -37.05 35.01 C-37.17 28.87 -36.92 23 -36.09 16.91 C-35.1 16.58 -34.11 16.25 -33.09 15.91 C-33.01 15.13 -32.92 14.35 -32.84 13.54 C-32.59 12.67 -32.34 11.81 -32.09 10.91 C-30.15 9.85 -30.15 9.85 -28.09 8.91 C-27.78 8.23 -27.47 7.55 -27.15 6.85 C-26.8 6.21 -26.45 5.57 -26.09 4.91 C-23.46 4.16 -23.46 4.16 -21.09 3.91 C-20.76 2.92 -20.43 1.93 -20.09 0.91 C-13.33 0.02 -6.81 -0.17 0 0 Z " fill="#F9FBFB" transform="translate(520.08984375,1188.0859375)"/>
<path d="M0 0 C22.77 0 45.54 0 69 0 C69 0.66 69 1.32 69 2 C69.66 2 70.32 2 71 2 C71 2.66 71 3.32 71 4 C71.99 4.33 72.98 4.66 74 5 C74 5.66 74 6.32 74 7 C74.66 7 75.32 7 76 7 C76 7.66 76 8.32 76 9 C76.66 9 77.32 9 78 9 C78 31.77 78 54.54 78 78 C77.34 78 76.68 78 76 78 C75.81 79.61 75.81 79.61 75.62 81.25 C74.88 83.83 74.37 84.77 72.07 86.22 C65.31 88.94 59.37 89.59 52.12 89.57 C51.03 89.59 49.93 89.6 48.81 89.62 C45.35 89.66 41.89 89.67 38.44 89.69 C34.95 89.72 31.46 89.75 27.97 89.79 C25.81 89.81 23.64 89.83 21.48 89.84 C20.51 89.84 19.54 89.85 18.54 89.86 C17.26 89.86 17.26 89.86 15.95 89.87 C14 89.79 14 89.79 13 91 C10.67 91.04 8.33 91.04 6 91 C5.67 90.01 5.34 89.02 5 88 C3.35 88 1.7 88 0 88 C0 87.34 0 86.68 0 86 C-1.65 85.67 -3.3 85.34 -5 85 C-5 84.34 -5 83.68 -5 83 C-5.99 82.67 -6.98 82.34 -8 82 C-8 80.68 -8 79.36 -8 78 C-8.66 78 -9.32 78 -10 78 C-10 76.35 -10 74.7 -10 73 C-10.99 72.67 -11.98 72.34 -13 72 C-14.12 65.82 -14.06 59.85 -13.91 53.59 C-13.89 52.5 -13.87 51.42 -13.85 50.3 C-13.8 48.01 -13.75 45.73 -13.7 43.44 C-13.63 39.95 -13.56 36.45 -13.49 32.96 C-13.45 30.73 -13.4 28.5 -13.35 26.28 C-13.33 25.24 -13.31 24.2 -13.29 23.12 C-13.18 18.32 -12.98 13.72 -12 9 C-11.01 9 -10.02 9 -9 9 C-8.81 8.22 -8.63 7.43 -8.44 6.62 C-7 4 -7 4 -3.38 2.69 C-2.26 2.46 -1.15 2.23 0 2 C0 1.34 0 0.68 0 0 Z " fill="#F9FBFB" transform="translate(1202,0)"/>
<path d="M0 0 C0.5 1.48 0.5 1.48 1 3 C2.65 3 4.3 3 6 3 C6 3.66 6 4.32 6 5 C7.65 5.33 9.3 5.66 11 6 C11 6.66 11 7.32 11 8 C11.99 8.33 12.98 8.66 14 9 C14 10.32 14 11.64 14 13 C14.66 13 15.32 13 16 13 C16 14.65 16 16.3 16 18 C17.48 18.49 17.48 18.49 19 19 C19.04 21.33 19.04 23.67 19 26 C18.5 26.49 18.5 26.49 18 27 C17.9 28.51 17.86 30.03 17.86 31.54 C17.85 32.51 17.84 33.48 17.84 34.48 C17.83 36.07 17.83 36.07 17.82 37.68 C17.8 39.91 17.78 42.14 17.75 44.37 C17.72 47.89 17.69 51.42 17.67 54.94 C17.66 58.33 17.62 61.73 17.57 65.12 C17.58 66.16 17.58 67.2 17.58 68.27 C17.47 74.96 16.65 81.24 13 87 C10.53 88.45 8.9 88.67 6 89 C6 89.66 6 90.32 6 91 C-16.77 91 -39.54 91 -63 91 C-63 90.34 -63 89.68 -63 89 C-63.66 89 -64.32 89 -65 89 C-65 88.34 -65 87.68 -65 87 C-65.99 86.67 -66.98 86.34 -68 86 C-68 85.34 -68 84.68 -68 84 C-68.66 84 -69.32 84 -70 84 C-70 83.34 -70 82.68 -70 82 C-70.66 82 -71.32 82 -72 82 C-72 59.23 -72 36.46 -72 13 C-71.34 13 -70.68 13 -70 13 C-69.79 11.91 -69.59 10.81 -69.38 9.69 C-68 6 -68 6 -65.12 4.06 C-62 3 -62 3 -58 3 C-58.33 2.01 -58.66 1.02 -59 0 C-51.72 -0.17 -44.45 -0.33 -37.17 -0.48 C-34.69 -0.54 -32.22 -0.59 -29.74 -0.65 C-26.18 -0.73 -22.62 -0.81 -19.06 -0.88 C-17.96 -0.91 -16.86 -0.93 -15.72 -0.96 C-10.35 -1.06 -5.29 -0.98 0 0 Z " fill="#FAFCFC" transform="translate(72,1189)"/>
<path d="M0 0 C7.77 -0.02 15.54 -0.04 23.31 -0.05 C26.92 -0.06 30.53 -0.06 34.14 -0.08 C37.62 -0.09 41.1 -0.09 44.58 -0.09 C46.56 -0.1 48.54 -0.11 50.51 -0.11 C51.71 -0.11 52.91 -0.11 54.15 -0.11 C55.21 -0.12 56.27 -0.12 57.36 -0.12 C60 0 60 0 63 1 C63 1.66 63 2.32 63 3 C64.18 3.12 64.18 3.12 65.38 3.25 C66.24 3.5 67.11 3.75 68 4 C69.06 5.94 69.06 5.94 70 8 C72 9.21 72 9.21 74 10 C77.62 13.62 76.22 24.17 76.28 28.93 C76.32 31.04 76.36 33.16 76.39 35.27 C76.45 38.59 76.5 41.91 76.55 45.23 C76.6 48.44 76.66 51.65 76.72 54.87 C76.73 55.87 76.75 56.87 76.76 57.9 C76.78 58.82 76.79 59.74 76.81 60.68 C76.82 61.49 76.84 62.31 76.85 63.14 C76.8 65.02 76.8 65.02 78 66 C78.07 67.69 78.08 69.38 78.06 71.06 C78.05 71.98 78.04 72.9 78.04 73.85 C78.02 74.56 78.01 75.27 78 76 C76.52 76.5 76.52 76.5 75 77 C74.92 77.78 74.83 78.57 74.75 79.38 C74.5 80.24 74.25 81.11 74 82 C72.06 83.06 72.06 83.06 70 84 C69.32 85.33 68.65 86.66 68 88 C66.52 88.5 66.52 88.5 65 89 C64.5 90.49 64.5 90.49 64 92 C62.02 92.03 60.04 92.05 58.06 92.06 C56.96 92.07 55.86 92.09 54.72 92.1 C52 92 52 92 51 91 C49.4 90.88 47.8 90.83 46.19 90.81 C45.17 90.79 44.14 90.78 43.09 90.76 C41.97 90.75 40.85 90.73 39.7 90.72 C37.99 90.69 37.99 90.69 36.25 90.66 C32.58 90.6 28.92 90.55 25.25 90.5 C20.44 90.43 15.64 90.36 10.83 90.28 C9.72 90.27 8.61 90.25 7.47 90.24 C6.43 90.22 5.39 90.21 4.33 90.19 C3.42 90.18 2.51 90.16 1.57 90.15 C-1.04 90 -3.46 89.57 -6 89 C-6 88.34 -6 87.68 -6 87 C-6.99 86.67 -7.98 86.34 -9 86 C-9 85.34 -9 84.68 -9 84 C-9.66 84 -10.32 84 -11 84 C-11 82.35 -11 80.7 -11 79 C-11.66 79 -12.32 79 -13 79 C-13 57.22 -13 35.44 -13 13 C-12.34 13 -11.68 13 -11 13 C-11 11.35 -11 9.7 -11 8 C-10.34 8 -9.68 8 -9 8 C-8.67 7.01 -8.34 6.02 -8 5 C-7.34 5 -6.68 5 -6 5 C-6 4.34 -6 3.68 -6 3 C-3.69 3 -1.38 3 1 3 C0.67 2.01 0.34 1.02 0 0 Z " fill="#FAFCFC" transform="translate(13,704)"/>
<path d="M0 0 C21.78 0 43.56 0 66 0 C66 0.66 66 1.32 66 2 C67.65 2 69.3 2 71 2 C71 2.66 71 3.32 71 4 C71.99 4.33 72.98 4.66 74 5 C74 5.66 74 6.32 74 7 C74.66 7 75.32 7 76 7 C76.79 10.49 77.14 13.75 77.19 17.33 C77.21 18.36 77.22 19.4 77.24 20.47 C77.25 21.58 77.27 22.69 77.28 23.83 C77.3 24.97 77.32 26.12 77.34 27.3 C77.42 32.19 77.48 37.09 77.55 41.98 C77.6 45.56 77.66 49.13 77.72 52.7 C77.73 53.82 77.75 54.94 77.76 56.09 C77.78 57.11 77.79 58.14 77.81 59.19 C77.82 60.1 77.84 61.01 77.85 61.94 C77.77 63.99 77.77 63.99 79 65 C79.07 67.02 79.08 69.04 79.06 71.06 C79.05 72.17 79.04 73.27 79.04 74.41 C79.02 75.26 79.01 76.12 79 77 C77.51 77.5 77.51 77.5 76 78 C75.67 78.66 75.34 79.32 75 80 C74.67 80.66 74.34 81.32 74 82 C72.51 82.5 72.51 82.5 71 83 C69.85 84.97 69.85 84.97 69 87 C68 88 68 88 64.44 88.06 C63.3 88.04 62.17 88.02 61 88 C60.5 89.48 60.5 89.48 60 91 C57.67 91.04 55.33 91.04 53 91 C52.67 90.67 52.34 90.34 52 90 C50.56 89.88 49.12 89.83 47.68 89.81 C46.76 89.79 45.85 89.78 44.9 89.76 C43.9 89.75 42.9 89.73 41.87 89.72 C40.84 89.7 39.82 89.68 38.76 89.66 C35.47 89.6 32.17 89.55 28.88 89.5 C25.6 89.45 22.33 89.4 19.05 89.34 C17.01 89.3 14.97 89.27 12.93 89.24 C-0.66 89 -0.66 89 -3.94 86.56 C-5 85 -5 85 -5 83 C-5.58 82.79 -6.15 82.59 -6.75 82.38 C-9.92 80.44 -11.65 78.41 -13 75 C-13.57 70.5 -13.49 66.03 -13.43 61.5 C-13.42 60.19 -13.42 58.88 -13.42 57.53 C-13.41 54.77 -13.39 52.01 -13.36 49.24 C-13.32 45.71 -13.3 42.18 -13.29 38.65 C-13.28 35.27 -13.26 31.88 -13.24 28.5 C-13.23 27.24 -13.22 25.97 -13.22 24.67 C-13.2 23.49 -13.19 22.31 -13.18 21.09 C-13.17 20.06 -13.16 19.02 -13.15 17.96 C-12.99 14.88 -12.68 12 -12 9 C-10 7.81 -10 7.81 -8 7 C-7.67 6.01 -7.34 5.02 -7 4 C-6.34 4 -5.68 4 -5 4 C-5 3.34 -5 2.68 -5 2 C-3.35 2 -1.7 2 0 2 C0 1.34 0 0.68 0 0 Z " fill="#F9FBFB" transform="translate(717,0)"/>
<path d="M0 0 C0.5 1.49 0.5 1.49 1 3 C2.18 3.12 2.18 3.12 3.38 3.25 C4.24 3.5 5.11 3.75 6 4 C7.06 5.94 7.06 5.94 8 8 C8.68 8.31 9.36 8.62 10.06 8.94 C11.02 9.46 11.02 9.46 12 10 C12.75 12.62 12.75 12.62 13 15 C14.48 15.5 14.48 15.5 16 16 C16.03 17.65 16.05 19.29 16.06 20.94 C16.07 21.85 16.09 22.77 16.1 23.71 C16 26 16 26 15 27 C14.88 28.44 14.83 29.88 14.81 31.32 C14.79 32.24 14.78 33.15 14.76 34.1 C14.75 35.1 14.73 36.1 14.72 37.13 C14.7 38.16 14.68 39.18 14.66 40.24 C14.6 43.53 14.55 46.83 14.5 50.12 C14.45 53.4 14.4 56.67 14.34 59.95 C14.3 61.99 14.27 64.03 14.24 66.07 C14 79.66 14 79.66 11.56 82.94 C10 84 10 84 8 84 C7.77 84.62 7.55 85.24 7.31 85.88 C5.56 88.71 4.15 89.01 1 90 C-1.91 90.25 -1.91 90.25 -5.15 90.24 C-6.37 90.25 -7.58 90.25 -8.84 90.25 C-10.8 90.24 -10.8 90.24 -12.8 90.23 C-14.17 90.23 -15.54 90.23 -16.9 90.23 C-19.76 90.23 -22.62 90.22 -25.48 90.21 C-29.13 90.19 -32.78 90.18 -36.43 90.19 C-39.25 90.19 -42.07 90.18 -44.9 90.17 C-46.89 90.17 -48.89 90.17 -50.88 90.16 C-56.68 90.13 -62.29 90.07 -68 89 C-68 88.34 -68 87.68 -68 87 C-68.99 86.67 -69.98 86.34 -71 86 C-71 85.34 -71 84.68 -71 84 C-71.66 84 -72.32 84 -73 84 C-73 82.35 -73 80.7 -73 79 C-73.66 79 -74.32 79 -75 79 C-75 57.22 -75 35.44 -75 13 C-74.34 13 -73.68 13 -73 13 C-73 11.35 -73 9.7 -73 8 C-72.34 8 -71.68 8 -71 8 C-70.67 7.01 -70.34 6.02 -70 5 C-69.34 5 -68.68 5 -68 5 C-68 4.34 -68 3.68 -68 3 C-66.35 3 -64.7 3 -63 3 C-63 2.34 -63 1.68 -63 1 C-63.66 0.67 -64.32 0.34 -65 0 C-57.35 -0.17 -49.7 -0.33 -42.05 -0.48 C-39.45 -0.54 -36.85 -0.59 -34.25 -0.65 C-30.5 -0.73 -26.76 -0.81 -23.01 -0.88 C-21.86 -0.91 -20.7 -0.93 -19.52 -0.96 C-12.93 -1.08 -6.54 -0.84 0 0 Z " fill="#FAFCFC" transform="translate(75,484)"/>
<path d="M0 0 C21.78 0 43.56 0 66 0 C66 0.66 66 1.32 66 2 C67.65 2 69.3 2 71 2 C71 2.66 71 3.32 71 4 C71.99 4.33 72.98 4.66 74 5 C74 5.66 74 6.32 74 7 C74.66 7 75.32 7 76 7 C77.31 13.99 77.16 20.98 77.17 28.07 C77.17 29.44 77.17 30.81 77.18 32.17 C77.18 35.03 77.19 37.89 77.19 40.74 C77.19 44.4 77.2 48.05 77.22 51.7 C77.23 54.52 77.23 57.34 77.23 60.16 C77.23 62.16 77.24 64.16 77.25 66.16 C77.25 67.38 77.25 68.6 77.24 69.85 C77.24 70.92 77.25 71.99 77.25 73.09 C76.99 76.13 76.38 78.29 75 81 C73.68 81.7 72.35 82.37 71 83 C69.79 85 69.79 85 69 87 C65.38 90.62 54.83 89.22 50.07 89.28 C47.96 89.32 45.84 89.36 43.73 89.39 C40.41 89.45 37.09 89.5 33.77 89.55 C30.56 89.6 27.35 89.66 24.13 89.72 C23.13 89.73 22.13 89.75 21.1 89.76 C20.18 89.78 19.26 89.79 18.32 89.81 C17.51 89.82 16.69 89.84 15.86 89.85 C13.98 89.8 13.98 89.8 13 91 C10.67 91.04 8.33 91.04 6 91 C5.67 90.01 5.34 89.02 5 88 C3.91 88.06 2.81 88.12 1.69 88.19 C-2 88 -2 88 -3.94 86.62 C-5 85 -5 85 -5 83 C-5.64 82.77 -6.28 82.55 -6.94 82.31 C-9 81 -9 81 -9.75 78.38 C-9.87 77.2 -9.87 77.2 -10 76 C-10.99 75.67 -11.98 75.34 -13 75 C-13.93 67.56 -14.09 60.28 -13.95 52.79 C-13.93 51.66 -13.91 50.53 -13.89 49.36 C-13.85 46.99 -13.81 44.62 -13.76 42.25 C-13.69 38.62 -13.63 34.98 -13.58 31.35 C-13.54 29.04 -13.49 26.73 -13.45 24.41 C-13.43 23.33 -13.42 22.24 -13.4 21.12 C-13.38 20.12 -13.36 19.11 -13.33 18.07 C-13.32 17.18 -13.3 16.3 -13.29 15.39 C-12.98 12.83 -12.28 11.22 -11 9 C-10.67 8.34 -10.34 7.68 -10 7 C-9.34 7 -8.68 7 -8 7 C-7.67 6.01 -7.34 5.02 -7 4 C-6.34 4 -5.68 4 -5 4 C-5 3.34 -5 2.68 -5 2 C-3.35 2 -1.7 2 0 2 C0 1.34 0 0.68 0 0 Z " fill="#F9FBFB" transform="translate(497,0)"/>
<path d="M0 0 C22.77 0 45.54 0 69 0 C69 0.66 69 1.32 69 2 C70.07 2.12 71.14 2.25 72.25 2.38 C74.83 3.12 75.77 3.63 77.22 5.93 C79.94 12.69 80.59 18.63 80.57 25.88 C80.59 26.97 80.6 28.07 80.62 29.19 C80.66 32.65 80.67 36.11 80.69 39.56 C80.72 43.05 80.75 46.54 80.79 50.03 C80.81 52.19 80.83 54.36 80.84 56.52 C80.85 57.97 80.85 57.97 80.86 59.46 C80.86 60.31 80.87 61.17 80.87 62.05 C80.79 64 80.79 64 82 65 C82.04 67.33 82.04 69.67 82 72 C80.52 72.5 80.52 72.5 79 73 C79 74.65 79 76.3 79 78 C78.34 78 77.68 78 77 78 C76.67 79.65 76.34 81.3 76 83 C75.34 83 74.68 83 74 83 C73.5 84.48 73.5 84.48 73 86 C71.68 86 70.36 86 69 86 C69 86.66 69 87.32 69 88 C67.35 88 65.7 88 64 88 C63.5 89.48 63.5 89.48 63 91 C60.67 91.04 58.33 91.04 56 91 C55.67 90.67 55.34 90.34 55 90 C53.49 89.9 51.97 89.86 50.46 89.86 C49.49 89.85 48.52 89.84 47.52 89.84 C45.93 89.83 45.93 89.83 44.32 89.82 C42.09 89.8 39.86 89.78 37.63 89.75 C34.11 89.72 30.58 89.69 27.06 89.67 C23.67 89.66 20.27 89.62 16.88 89.57 C15.84 89.58 14.8 89.58 13.73 89.58 C7.04 89.47 0.76 88.65 -5 85 C-6.45 82.53 -6.67 80.9 -7 78 C-7.66 78 -8.32 78 -9 78 C-9 55.23 -9 32.46 -9 9 C-8.34 9 -7.68 9 -7 9 C-7 8.34 -7 7.68 -7 7 C-6.34 7 -5.68 7 -5 7 C-4.67 6.01 -4.34 5.02 -4 4 C-3.34 4 -2.68 4 -2 4 C-2 3.34 -2 2.68 -2 2 C-1.34 2 -0.68 2 0 2 C0 1.34 0 0.68 0 0 Z " fill="#FAFCFC" transform="translate(9,0)"/>
<path d="M0 0 C42.39 -0.02 84.78 -0.04 127.16 -0.05 C132.16 -0.05 137.16 -0.05 142.16 -0.05 C143.16 -0.06 144.15 -0.06 145.18 -0.06 C161.32 -0.06 177.45 -0.07 193.59 -0.08 C210.13 -0.09 226.68 -0.09 243.22 -0.09 C253.44 -0.1 263.66 -0.1 273.87 -0.11 C280.87 -0.11 287.87 -0.11 294.87 -0.11 C298.91 -0.11 302.95 -0.11 307 -0.12 C310.69 -0.12 314.39 -0.12 318.08 -0.12 C320.06 -0.12 322.05 -0.12 324.03 -0.13 C325.19 -0.13 326.35 -0.13 327.55 -0.12 C329.07 -0.12 329.07 -0.12 330.62 -0.12 C333 0 333 0 335 1 C335 2.65 335 4.3 335 6 C224.78 6 114.56 6 1 6 C0.67 4.02 0.34 2.04 0 0 Z " fill="#F8F9F9" transform="translate(108,769)"/>
<path d="M0 0 C45.17 -0.02 90.35 -0.04 135.52 -0.05 C140.85 -0.05 146.18 -0.05 151.51 -0.05 C153.1 -0.06 153.1 -0.06 154.72 -0.06 C171.92 -0.06 189.11 -0.07 206.31 -0.08 C223.94 -0.09 241.58 -0.09 259.21 -0.09 C270.1 -0.1 280.99 -0.1 291.88 -0.11 C299.33 -0.11 306.79 -0.11 314.25 -0.11 C318.56 -0.11 322.87 -0.11 327.17 -0.12 C331.11 -0.12 335.05 -0.12 338.99 -0.12 C340.42 -0.12 341.85 -0.12 343.28 -0.12 C345.22 -0.13 347.15 -0.13 349.09 -0.12 C350.16 -0.12 351.24 -0.12 352.35 -0.12 C355 0 355 0 358 1 C358 2.32 358 3.64 358 5 C240.19 5 122.38 5 1 5 C0.67 3.35 0.34 1.7 0 0 Z " fill="#FBFDFD" transform="translate(813,64)"/>
<path d="M0 0 C45.17 -0.02 90.35 -0.04 135.52 -0.05 C140.85 -0.05 146.18 -0.05 151.51 -0.05 C153.1 -0.06 153.1 -0.06 154.72 -0.06 C171.92 -0.06 189.11 -0.07 206.31 -0.08 C223.94 -0.09 241.58 -0.09 259.21 -0.09 C270.1 -0.1 280.99 -0.1 291.88 -0.11 C299.33 -0.11 306.79 -0.11 314.25 -0.11 C318.56 -0.11 322.87 -0.11 327.17 -0.12 C331.11 -0.12 335.05 -0.12 338.99 -0.12 C340.42 -0.12 341.85 -0.12 343.28 -0.12 C345.22 -0.13 347.15 -0.13 349.09 -0.12 C350.16 -0.12 351.24 -0.12 352.35 -0.12 C355 0 355 0 358 1 C358 2.32 358 3.64 358 5 C240.19 5 122.38 5 1 5 C0.67 3.35 0.34 1.7 0 0 Z " fill="#FBFDFD" transform="translate(108,64)"/>
<path d="M0 0 C42.37 -0.02 84.74 -0.04 127.11 -0.05 C132.11 -0.05 137.11 -0.05 142.11 -0.05 C143.1 -0.06 144.1 -0.06 145.12 -0.06 C161.25 -0.06 177.38 -0.07 193.51 -0.08 C210.05 -0.09 226.59 -0.09 243.13 -0.09 C253.34 -0.1 263.55 -0.1 273.77 -0.11 C280.76 -0.11 287.76 -0.11 294.75 -0.11 C298.79 -0.11 302.84 -0.11 306.88 -0.12 C310.57 -0.12 314.27 -0.12 317.96 -0.12 C319.94 -0.12 321.92 -0.12 323.9 -0.13 C325.06 -0.13 326.23 -0.13 327.43 -0.12 C328.44 -0.12 329.45 -0.12 330.49 -0.12 C333 0 333 0 336 1 C336 2.32 336 3.64 336 5 C225.78 5 115.56 5 2 5 C2 3.68 2 2.36 2 1 C1.34 0.67 0.68 0.34 0 0 Z " fill="#FBFDFD" transform="translate(835,769)"/>
<path d="M0 0 C117.15 0 234.3 0 355 0 C355 0.33 355 0.66 355 1 C237.85 1 120.7 1 0 1 C0 0.67 0 0.34 0 0 Z " fill="#000002" transform="translate(815,1215)"/>
<path d="M0 0 C117.15 0 234.3 0 355 0 C355 0.33 355 0.66 355 1 C237.85 1 120.7 1 0 1 C0 0.67 0 0.34 0 0 Z " fill="#000002" transform="translate(110,1215)"/>
<path d="M0 0 C0.33 0 0.66 0 1 0 C1 117.15 1 234.3 1 355 C0.67 355 0.34 355 0 355 C0 237.85 0 120.7 0 0 Z " fill="#000002" transform="translate(1215,815)"/>
<path d="M0 0 C0.33 0 0.66 0 1 0 C1 117.15 1 234.3 1 355 C0.67 355 0.34 355 0 355 C0 237.85 0 120.7 0 0 Z " fill="#000002" transform="translate(1215,110)"/>
<path d="M0 0 C0.33 0 0.66 0 1 0 C1 109.56 1 219.12 1 332 C0.67 332 0.34 332 0 332 C0 222.44 0 112.88 0 0 Z " fill="#000002" transform="translate(510,838)"/>
<path d="M0 0 C109.56 0 219.12 0 332 0 C332 0.33 332 0.66 332 1 C222.44 1 112.88 1 0 1 C0 0.67 0 0.34 0 0 Z " fill="#000002" transform="translate(838,510)"/>
<path d="M0 0 C109.56 0 219.12 0 332 0 C332 0.33 332 0.66 332 1 C222.44 1 112.88 1 0 1 C0 0.67 0 0.34 0 0 Z " fill="#000002" transform="translate(110,510)"/>
<path d="M0 0 C0.33 0 0.66 0 1 0 C1 109.56 1 219.12 1 332 C0.67 332 0.34 332 0 332 C0 222.44 0 112.88 0 0 Z " fill="#000002" transform="translate(510,110)"/>
<path d="M0 0 C7.77 -0.02 15.54 -0.04 23.31 -0.05 C26.92 -0.06 30.53 -0.06 34.14 -0.08 C37.62 -0.09 41.1 -0.09 44.58 -0.09 C46.56 -0.1 48.54 -0.11 50.51 -0.11 C51.71 -0.11 52.91 -0.11 54.15 -0.11 C55.21 -0.12 56.27 -0.12 57.36 -0.12 C60 0 60 0 63 1 C63 1.66 63 2.32 63 3 C65.31 3 67.62 3 70 3 C70 3.66 70 4.32 70 5 C45.58 5 21.16 5 -4 5 C-3.67 4.34 -3.34 3.68 -3 3 C-1.68 3 -0.36 3 1 3 C0.67 2.01 0.34 1.02 0 0 Z " fill="#FBFDFD" transform="translate(1203,704)"/>
<path d="M0 0 C85.14 0 170.28 0 258 0 C258 0.33 258 0.66 258 1 C172.86 1 87.72 1 0 1 C0 0.67 0 0.34 0 0 Z " fill="#000002" transform="translate(511,795)"/>
<path d="M0 0 C0.33 0 0.66 0 1 0 C1 85.14 1 170.28 1 258 C0.67 258 0.34 258 0 258 C0 172.86 0 87.72 0 0 Z " fill="#000002" transform="translate(795,511)"/>
<path d="M0 0 C0.33 0 0.66 0 1 0 C1 19.8 1 39.6 1 60 C0.67 60 0.34 60 0 60 C0 40.2 0 20.4 0 0 Z " fill="#000002" transform="translate(575,1205)"/>
<path d="M0 0 C19.8 0 39.6 0 60 0 C60 0.33 60 0.66 60 1 C40.2 1 20.4 1 0 1 C0 0.67 0 0.34 0 0 Z " fill="#000002" transform="translate(1205,575)"/>
<path d="M0 0 C19.8 0 39.6 0 60 0 C60 0.33 60 0.66 60 1 C40.2 1 20.4 1 0 1 C0 0.67 0 0.34 0 0 Z " fill="#000002" transform="translate(15,575)"/>
<path d="M0 0 C0.33 0 0.66 0 1 0 C1 19.8 1 39.6 1 60 C0.67 60 0.34 60 0 60 C0 40.2 0 20.4 0 0 Z " fill="#000002" transform="translate(575,15)"/>
<path d="M0 0 C0.33 0 0.66 0 1 0 C1 16.83 1 33.66 1 51 C0.67 51 0.34 51 0 51 C0 34.17 0 17.34 0 0 Z " fill="#000002" transform="translate(795,1216)"/>
<path d="M0 0 C16.83 0 33.66 0 51 0 C51 0.33 51 0.66 51 1 C34.17 1 17.34 1 0 1 C0 0.67 0 0.34 0 0 Z " fill="#000002" transform="translate(1216,795)"/>
<path d="M0 0 C16.83 0 33.66 0 51 0 C51 0.33 51 0.66 51 1 C34.17 1 17.34 1 0 1 C0 0.67 0 0.34 0 0 Z " fill="#000002" transform="translate(13,795)"/>
<path d="M0 0 C0.33 0 0.66 0 1 0 C1 16.83 1 33.66 1 51 C0.67 51 0.34 51 0 51 C0 34.17 0 17.34 0 0 Z " fill="#000002" transform="translate(795,13)"/>
<path d="M0 0 C0.33 0 0.66 0 1 0 C1 16.17 1 32.34 1 49 C0.67 49 0.34 49 0 49 C0 32.83 0 16.66 0 0 Z " fill="#000002" transform="translate(90,1216)"/>
<path d="M0 0 C16.17 0 32.34 0 49 0 C49 0.33 49 0.66 49 1 C32.83 1 16.66 1 0 1 C0 0.67 0 0.34 0 0 Z " fill="#000002" transform="translate(1216,90)"/>
<path d="M0 0 C16.17 0 32.34 0 49 0 C49 0.33 49 0.66 49 1 C32.83 1 16.66 1 0 1 C0 0.67 0 0.34 0 0 Z " fill="#000002" transform="translate(15,90)"/>
<path d="M0 0 C0.33 0 0.66 0 1 0 C1 16.17 1 32.34 1 49 C0.67 49 0.34 49 0 49 C0 32.83 0 16.66 0 0 Z " fill="#000002" transform="translate(90,15)"/>
<path d="M0 0 C0.33 0 0.66 0 1 0 C1 15.18 1 30.36 1 46 C0.67 46 0.34 46 0 46 C0 30.82 0 15.64 0 0 Z " fill="#000002" transform="translate(90,723)"/>
<path d="M0 0 C0.33 0 0.66 0 1 0 C1 15.18 1 30.36 1 46 C0.67 46 0.34 46 0 46 C0 30.82 0 15.64 0 0 Z " fill="#000002" transform="translate(90,511)"/>
<path d="M0 0 C15.18 0 30.36 0 46 0 C46 0.33 46 0.66 46 1 C30.82 1 15.64 1 0 1 C0 0.67 0 0.34 0 0 Z " fill="#000002" transform="translate(723,90)"/>
<path d="M0 0 C15.18 0 30.36 0 46 0 C46 0.33 46 0.66 46 1 C30.82 1 15.64 1 0 1 C0 0.67 0 0.34 0 0 Z " fill="#000002" transform="translate(511,90)"/>
<path d="" fill="#FBFDFD" transform="translate(0,0)"/>
<path d="" fill="#FBFDFD" transform="translate(0,0)"/>
<path d="" fill="#FBFDFD" transform="translate(0,0)"/>
<path d="" fill="#FBFDFD" transform="translate(0,0)"/>
</svg>
